<svg width="340" height="339" viewBox="0 0 340 339" fill="none" xmlns="http://www.w3.org/2000/svg">
<path d="M235.342 279.51C244.598 293.053 264.918 305.803 308.946 303.557C306.359 313.091 300.838 321.577 293.154 327.805C285.269 334.198 275.529 337.871 265.386 338.277C247.716 338.5 225.817 329.426 207.401 312.913C188.995 296.409 174.12 272.518 170.454 243.188H169.309C165.643 272.518 150.769 296.409 132.363 312.913C113.947 329.426 92.0487 338.5 74.3783 338.277C64.2466 337.854 54.5218 334.172 46.6508 327.778C38.9811 321.548 33.471 313.067 30.8909 303.542C74.9192 305.773 95.2391 293.027 104.495 279.492C109.138 272.703 110.962 265.763 111.626 260.525C111.958 257.905 112 255.708 111.959 254.162C111.938 253.389 111.897 252.778 111.86 252.359C111.842 252.149 111.825 251.987 111.812 251.876C111.81 251.855 111.807 251.835 111.805 251.817C111.802 251.79 111.799 251.767 111.797 251.749L111.793 251.715L111.791 251.706L111.791 251.703C111.791 251.702 111.791 251.701 111.219 251.781L111.791 251.701L111.641 250.633L110.836 251.35C101.001 260.102 88.9528 265.987 76.0042 268.365C63.0555 270.743 49.7027 269.522 37.4 264.835L37.3825 264.828L37.3645 264.823C30.6942 262.767 24.5045 259.394 19.1622 254.901C13.82 250.409 9.43396 244.891 6.26416 238.672C3.09435 232.453 1.20529 225.662 0.708937 218.699C0.212587 211.737 1.11906 204.746 3.37461 198.141L3.38193 198.119L3.38754 198.098C3.74568 196.699 4.54022 195.45 5.65589 194.533C6.77156 193.616 8.15033 193.079 9.59216 192.999C11.034 192.918 12.4639 193.3 13.6745 194.087C14.885 194.874 15.8132 196.027 16.3244 197.377L16.3296 197.391L16.3354 197.404C20.5869 207.126 27.6623 215.346 36.6434 220.997C45.6218 226.646 56.0903 229.467 66.6912 229.094C81.6876 229.089 92.8893 219.715 100.303 210.448C104.017 205.806 106.8 201.167 108.654 197.69C109.582 195.95 110.278 194.5 110.743 193.483C110.976 192.974 111.151 192.574 111.268 192.3C111.326 192.162 111.37 192.057 111.4 191.985L111.433 191.903L111.442 191.882L111.444 191.876L111.445 191.874C111.445 191.874 111.445 191.873 110.91 191.659L111.445 191.873L111.453 191.853L111.46 191.833C116.153 176.959 115.015 160.857 108.279 146.791L90.7968 107.39L90.7928 107.381L90.7884 107.372C85.667 96.8367 82.6805 85.3925 82.0006 73.6984C82.0057 48.1137 93.8348 29.8587 110.72 17.9792C127.63 6.08272 149.621 0.576923 169.882 0.576923C190.142 0.576923 212.134 6.08272 229.043 17.9792C245.929 29.8587 257.758 48.1136 257.763 73.6982C257.086 85.3927 254.099 96.8375 248.975 107.372L248.971 107.381L248.967 107.39L231.5 146.776C224.763 160.842 223.62 176.941 228.304 191.818L228.854 191.644C228.318 191.859 228.318 191.859 228.319 191.86L228.319 191.861L228.321 191.867L228.33 191.888L228.364 191.97C228.393 192.042 228.438 192.148 228.496 192.285C228.613 192.559 228.788 192.959 229.02 193.468C229.485 194.485 230.182 195.936 231.109 197.675C232.964 201.152 235.747 205.791 239.461 210.434C246.874 219.701 258.076 229.075 273.073 229.079C283.673 229.45 294.141 226.628 303.118 220.979C312.099 215.329 319.175 207.11 323.428 197.39L323.434 197.376L323.439 197.363C323.95 196.012 324.879 194.859 326.089 194.072C327.3 193.285 328.73 192.904 330.171 192.984C331.613 193.064 332.992 193.602 334.108 194.519C335.223 195.435 336.018 196.684 336.376 198.083L336.382 198.105L336.389 198.126C338.649 204.733 339.559 211.725 339.065 218.69C338.57 225.654 336.682 232.449 333.512 238.669C330.342 244.89 325.954 250.411 320.609 254.903C315.265 259.396 309.072 262.769 302.399 264.823L302.381 264.828L302.364 264.835C290.071 269.507 276.733 270.72 263.799 268.343C250.864 265.965 238.829 260.088 229.001 251.35L228.041 250.496V251.781C228.041 251.719 226.063 265.934 235.342 279.51Z" fill="black" stroke="black" stroke-width="1.15385"/>
<path d="M144.097 114.258C145.074 114.258 146.012 114.647 146.703 115.338C147.394 116.029 147.782 116.967 147.782 117.944" fill="white"/>
<path d="M144.097 114.258C145.074 114.258 146.012 114.647 146.703 115.338C147.394 116.029 147.782 116.967 147.782 117.944" stroke="white" stroke-width="22" stroke-linecap="round" stroke-linejoin="round"/>
<path d="M140.396 117.944C140.396 116.967 140.784 116.029 141.475 115.338C142.166 114.647 143.104 114.258 144.081 114.258" fill="white"/>
<path d="M140.396 117.944C140.396 116.967 140.784 116.029 141.475 115.338C142.166 114.647 143.104 114.258 144.081 114.258" stroke="white" stroke-width="22" stroke-linecap="round" stroke-linejoin="round"/>
<path d="M144.096 121.63C143.118 121.63 142.181 121.241 141.49 120.55C140.798 119.859 140.41 118.921 140.41 117.944" fill="white"/>
<path d="M144.096 121.63C143.118 121.63 142.181 121.241 141.49 120.55C140.798 119.859 140.41 118.921 140.41 117.944" stroke="white" stroke-width="22" stroke-linecap="round" stroke-linejoin="round"/>
<path d="M147.767 117.944C147.767 118.921 147.378 119.859 146.687 120.55C145.996 121.241 145.059 121.63 144.081 121.63" fill="white"/>
<path d="M147.767 117.944C147.767 118.921 147.378 119.859 146.687 120.55C145.996 121.241 145.059 121.63 144.081 121.63" stroke="white" stroke-width="22" stroke-linecap="round" stroke-linejoin="round"/>
<path d="M195.696 114.258C194.719 114.258 193.781 114.647 193.09 115.338C192.399 116.029 192.011 116.967 192.011 117.944" fill="white"/>
<path d="M195.696 114.258C194.719 114.258 193.781 114.647 193.09 115.338C192.399 116.029 192.011 116.967 192.011 117.944" stroke="white" stroke-width="22" stroke-linecap="round" stroke-linejoin="round"/>
<path d="M199.367 117.944C199.367 116.967 198.979 116.029 198.288 115.338C197.597 114.647 196.659 114.258 195.682 114.258" fill="white"/>
<path d="M199.367 117.944C199.367 116.967 198.979 116.029 198.288 115.338C197.597 114.647 196.659 114.258 195.682 114.258" stroke="white" stroke-width="22" stroke-linecap="round" stroke-linejoin="round"/>
<path d="M195.697 121.63C196.675 121.63 197.612 121.241 198.303 120.55C198.995 119.859 199.383 118.921 199.383 117.944" fill="white"/>
<path d="M195.697 121.63C196.675 121.63 197.612 121.241 198.303 120.55C198.995 119.859 199.383 118.921 199.383 117.944" stroke="white" stroke-width="22" stroke-linecap="round" stroke-linejoin="round"/>
<path d="M191.996 117.944C191.996 118.921 192.384 119.859 193.076 120.55C193.767 121.241 194.704 121.63 195.682 121.63" fill="white"/>
<path d="M191.996 117.944C191.996 118.921 192.384 119.859 193.076 120.55C193.767 121.241 194.704 121.63 195.682 121.63" stroke="white" stroke-width="22" stroke-linecap="round" stroke-linejoin="round"/>
</svg>
