<svg width="340" height="339" viewBox="0 0 340 339" fill="none" xmlns="http://www.w3.org/2000/svg">
<path d="M232.024 147.017C225.347 160.953 224.213 176.905 228.854 191.644C228.854 191.644 243.597 228.502 273.083 228.502C283.571 228.871 293.928 226.08 302.811 220.491C311.694 214.902 318.693 206.773 322.9 197.158C323.454 195.693 324.461 194.443 325.775 193.588C327.088 192.734 328.639 192.321 330.203 192.408C331.768 192.495 333.264 193.078 334.474 194.073C335.684 195.068 336.546 196.422 336.935 197.94C339.22 204.619 340.14 211.689 339.64 218.731C339.14 225.772 337.231 232.642 334.026 238.931C330.821 245.221 326.384 250.803 320.981 255.345C315.577 259.887 309.316 263.298 302.569 265.374C290.177 270.084 276.732 271.307 263.694 268.91C250.656 266.514 238.525 260.589 228.618 251.781C228.618 251.781 220.789 307.805 309.705 302.94C307.179 312.902 301.501 321.781 293.517 328.254C285.533 334.726 275.671 338.444 265.402 338.854C229.694 339.311 177.253 302.232 169.882 243.26C162.51 302.232 110.069 339.311 74.3618 338.854C64.1032 338.427 54.2564 334.7 46.2871 328.226C38.3177 321.752 32.6518 312.878 30.1327 302.925C119.048 307.76 111.219 251.781 111.219 251.781C101.305 260.603 89.1608 266.535 76.1083 268.932C63.0559 271.329 49.596 270.098 37.1946 265.374C30.4505 263.296 24.1923 259.885 18.7909 255.343C13.3896 250.801 8.95503 245.221 5.75016 238.934C2.54528 232.647 0.635317 225.78 0.133475 218.74C-0.368367 211.701 0.548132 204.633 2.82864 197.954C3.2172 196.437 4.0792 195.082 5.2896 194.088C6.5 193.093 7.99583 192.51 9.5601 192.423C11.1244 192.335 12.6757 192.749 13.989 193.603C15.3024 194.457 16.3094 195.708 16.864 197.173C21.0691 206.789 28.0674 214.919 36.9507 220.508C45.8339 226.097 56.192 228.888 66.6807 228.517C96.1667 228.517 110.91 191.659 110.91 191.659C115.559 176.922 114.431 160.968 107.755 147.032L90.2695 107.624C85.1124 97.0154 82.1061 85.491 81.4237 73.7151C81.4237 22.1145 129.176 0 169.882 0C210.587 0 258.34 22.1145 258.34 73.7151C257.66 85.4914 254.654 97.0164 249.494 107.624L232.024 147.017Z" fill="white"/>
<path d="M144.096 114.258C145.074 114.258 146.011 114.647 146.702 115.338C147.394 116.029 147.782 116.967 147.782 117.944" fill="white"/>
<path d="M144.096 114.258C145.074 114.258 146.011 114.647 146.702 115.338C147.394 116.029 147.782 116.967 147.782 117.944" stroke="#4F46E5" stroke-width="22" stroke-linecap="round" stroke-linejoin="round"/>
<path d="M140.396 117.944C140.396 116.967 140.784 116.029 141.475 115.338C142.166 114.647 143.104 114.258 144.082 114.258" fill="white"/>
<path d="M140.396 117.944C140.396 116.967 140.784 116.029 141.475 115.338C142.166 114.647 143.104 114.258 144.082 114.258" stroke="#4F46E5" stroke-width="22" stroke-linecap="round" stroke-linejoin="round"/>
<path d="M144.096 121.63C143.119 121.63 142.181 121.241 141.49 120.55C140.799 119.859 140.411 118.922 140.411 117.944" fill="white"/>
<path d="M144.096 121.63C143.119 121.63 142.181 121.241 141.49 120.55C140.799 119.859 140.411 118.922 140.411 117.944" stroke="#4F46E5" stroke-width="22" stroke-linecap="round" stroke-linejoin="round"/>
<path d="M147.767 117.944C147.767 118.922 147.379 119.859 146.688 120.55C145.996 121.241 145.059 121.63 144.081 121.63" fill="white"/>
<path d="M147.767 117.944C147.767 118.922 147.379 119.859 146.688 120.55C145.996 121.241 145.059 121.63 144.081 121.63" stroke="#4F46E5" stroke-width="22" stroke-linecap="round" stroke-linejoin="round"/>
<path d="M195.697 114.258C194.719 114.258 193.782 114.647 193.091 115.338C192.4 116.029 192.011 116.967 192.011 117.944" fill="white"/>
<path d="M195.697 114.258C194.719 114.258 193.782 114.647 193.091 115.338C192.4 116.029 192.011 116.967 192.011 117.944" stroke="#4F46E5" stroke-width="22" stroke-linecap="round" stroke-linejoin="round"/>
<path d="M199.368 117.944C199.368 116.967 198.979 116.029 198.288 115.338C197.597 114.647 196.659 114.258 195.682 114.258" fill="white"/>
<path d="M199.368 117.944C199.368 116.967 198.979 116.029 198.288 115.338C197.597 114.647 196.659 114.258 195.682 114.258" stroke="#4F46E5" stroke-width="22" stroke-linecap="round" stroke-linejoin="round"/>
<path d="M195.697 121.63C196.674 121.63 197.612 121.241 198.303 120.55C198.994 119.859 199.383 118.922 199.383 117.944" fill="white"/>
<path d="M195.697 121.63C196.674 121.63 197.612 121.241 198.303 120.55C198.994 119.859 199.383 118.922 199.383 117.944" stroke="#4F46E5" stroke-width="22" stroke-linecap="round" stroke-linejoin="round"/>
<path d="M191.996 117.944C191.996 118.922 192.385 119.859 193.076 120.55C193.767 121.241 194.705 121.63 195.682 121.63" fill="white"/>
<path d="M191.996 117.944C191.996 118.922 192.385 119.859 193.076 120.55C193.767 121.241 194.705 121.63 195.682 121.63" stroke="#4F46E5" stroke-width="22" stroke-linecap="round" stroke-linejoin="round"/>
</svg>
