<svg width="340" height="339" viewBox="0 0 560 560" fill="none" xmlns="http://www.w3.org/2000/svg">
<rect width="560" height="560" fill="black"/>
<path d="M342.024 258.017C335.347 271.953 334.213 287.905 338.854 302.644C338.854 302.644 353.597 339.502 383.083 339.502C393.571 339.871 403.928 337.08 412.811 331.491C421.694 325.902 428.693 317.773 432.9 308.158C433.454 306.693 434.461 305.443 435.775 304.588C437.088 303.734 438.639 303.321 440.203 303.408C441.768 303.495 443.264 304.078 444.474 305.073C445.684 306.068 446.546 307.422 446.935 308.94C449.22 315.619 450.14 322.689 449.64 329.731C449.14 336.772 447.231 343.642 444.026 349.931C440.821 356.221 436.384 361.803 430.981 366.345C425.577 370.887 419.316 374.298 412.569 376.374C400.177 381.084 386.732 382.307 373.694 379.91C360.656 377.514 348.525 371.589 338.618 362.781C338.618 362.781 330.789 418.805 419.705 413.94C417.179 423.902 411.501 432.781 403.517 439.254C395.533 445.726 385.671 449.444 375.402 449.854C339.694 450.311 287.253 413.232 279.882 354.26C272.51 413.232 220.069 450.311 184.362 449.854C174.103 449.427 164.256 445.7 156.287 439.226C148.318 432.752 142.652 423.878 140.133 413.925C229.048 418.76 221.219 362.781 221.219 362.781C211.305 371.603 199.161 377.535 186.108 379.932C173.056 382.329 159.596 381.098 147.195 376.374C140.451 374.296 134.192 370.885 128.791 366.343C123.39 361.801 118.955 356.221 115.75 349.934C112.545 343.647 110.635 336.78 110.133 329.74C109.632 322.701 110.548 315.633 112.829 308.954C113.217 307.437 114.079 306.082 115.29 305.088C116.5 304.093 117.996 303.51 119.56 303.423C121.124 303.335 122.676 303.749 123.989 304.603C125.302 305.457 126.309 306.708 126.864 308.173C131.069 317.789 138.067 325.919 146.951 331.508C155.834 337.097 166.192 339.888 176.681 339.517C206.167 339.517 220.91 302.659 220.91 302.659C225.559 287.922 224.431 271.968 217.755 258.032L200.269 218.624C195.112 208.015 192.106 196.491 191.424 184.715C191.424 133.115 239.176 111 279.882 111C320.587 111 368.34 133.115 368.34 184.715C367.66 196.491 364.654 208.016 359.494 218.624L342.024 258.017Z" fill="white"/>
<path d="M254.096 225.258C255.074 225.258 256.011 225.647 256.702 226.338C257.394 227.029 257.782 227.967 257.782 228.944" fill="white"/>
<path d="M254.096 225.258C255.074 225.258 256.011 225.647 256.702 226.338C257.394 227.029 257.782 227.967 257.782 228.944" stroke="#4F46E5" stroke-width="22" stroke-linecap="round" stroke-linejoin="round"/>
<path d="M250.396 228.944C250.396 227.967 250.784 227.029 251.475 226.338C252.166 225.647 253.104 225.258 254.082 225.258" fill="white"/>
<path d="M250.396 228.944C250.396 227.967 250.784 227.029 251.475 226.338C252.166 225.647 253.104 225.258 254.082 225.258" stroke="#4F46E5" stroke-width="22" stroke-linecap="round" stroke-linejoin="round"/>
<path d="M254.096 232.63C253.119 232.63 252.181 232.241 251.49 231.55C250.799 230.859 250.411 229.922 250.411 228.944" fill="white"/>
<path d="M254.096 232.63C253.119 232.63 252.181 232.241 251.49 231.55C250.799 230.859 250.411 229.922 250.411 228.944" stroke="#4F46E5" stroke-width="22" stroke-linecap="round" stroke-linejoin="round"/>
<path d="M257.767 228.944C257.767 229.922 257.379 230.859 256.688 231.55C255.996 232.241 255.059 232.63 254.081 232.63" fill="white"/>
<path d="M257.767 228.944C257.767 229.922 257.379 230.859 256.688 231.55C255.996 232.241 255.059 232.63 254.081 232.63" stroke="#4F46E5" stroke-width="22" stroke-linecap="round" stroke-linejoin="round"/>
<path d="M305.697 225.258C304.719 225.258 303.782 225.647 303.091 226.338C302.4 227.029 302.011 227.967 302.011 228.944" fill="white"/>
<path d="M305.697 225.258C304.719 225.258 303.782 225.647 303.091 226.338C302.4 227.029 302.011 227.967 302.011 228.944" stroke="#4F46E5" stroke-width="22" stroke-linecap="round" stroke-linejoin="round"/>
<path d="M309.368 228.944C309.368 227.967 308.979 227.029 308.288 226.338C307.597 225.647 306.659 225.258 305.682 225.258" fill="white"/>
<path d="M309.368 228.944C309.368 227.967 308.979 227.029 308.288 226.338C307.597 225.647 306.659 225.258 305.682 225.258" stroke="#4F46E5" stroke-width="22" stroke-linecap="round" stroke-linejoin="round"/>
<path d="M305.697 232.63C306.674 232.63 307.612 232.241 308.303 231.55C308.994 230.859 309.383 229.922 309.383 228.944" fill="white"/>
<path d="M305.697 232.63C306.674 232.63 307.612 232.241 308.303 231.55C308.994 230.859 309.383 229.922 309.383 228.944" stroke="#4F46E5" stroke-width="22" stroke-linecap="round" stroke-linejoin="round"/>
<path d="M301.996 228.944C301.996 229.922 302.385 230.859 303.076 231.55C303.767 232.241 304.705 232.63 305.682 232.63" fill="white"/>
<path d="M301.996 228.944C301.996 229.922 302.385 230.859 303.076 231.55C303.767 232.241 304.705 232.63 305.682 232.63" stroke="#4F46E5" stroke-width="22" stroke-linecap="round" stroke-linejoin="round"/>
</svg>
