<svg xmlns="http://www.w3.org/2000/svg" width="128" height="128">
    <path fill="#52CCB5" d="M94.29 52.89c7.03-.85 12.72-4.23 16.92-9.94 3.31-4.51 4.42-9.42 2.09-14.74-1.38-3.14-3.62-5.67-6.4-7.59-3.22-2.23-6.59-4.26-9.94-6.3-7.75-4.72-15.54-9.4-23.3-14.1-.51-.31-.9-.3-1.34.13-.69.68-1.45 1.3-2.15 1.97-5.18 4.95-10.35 9.9-15.53 14.86-3.33 3.19-6.66 6.37-9.99 9.55-5.18 4.95-10.36 9.9-15.53 14.86-4.49 4.32-8.96 8.66-13.45 12.97-.7.67-1.47 1.27-2.21 1.9v.22c4.18 2.56 8.36 5.12 12.54 7.66 6.25 3.8 12.54 7.53 18.75 11.39 7.7 4.79 15.92 6.8 24.89 4.91 7.09-1.5 12.89-5.06 16.93-11.21 3.19-4.85 3.51-11.39-.57-16.07-.14-.16-.19-.41-.34-.74.44.05.71.11.99.12 2.54.08 5.13.46 7.62.15zM75.7 65.46c-4.72 5.72-10.85 7.47-18.02 6.11-3.76-.71-6.83-2.83-10-4.74-5.77-3.47-11.52-6.98-17.27-10.48-.42-.26-.82-.57-1.45-1.02.94-.85 1.75-1.55 2.52-2.28 1.72-1.63 3.44-3.27 5.15-4.93 2.87-2.78 5.73-5.57 8.6-8.35 1.09-1.05 2.23-2.04 3.29-3.11.58-.59 1.02-.27 1.52.03 4.59 2.78 9.19 5.55 13.77 8.35 3.35 2.05 6.71 4.08 9.98 6.25 1.59 1.06 2.9 2.51 3.67 4.31 1.57 3.66.65 6.95-1.76 9.86zm.8-22.89c-6.59-4.01-13.19-7.99-19.78-11.99-.27-.17-.53-.36-.78-.52 1.59-1.68 3.12-3.29 4.66-4.9.22-.23.5-.41.74-.63 4.25-4.1 8.51-8.18 12.74-12.31.6-.59 1.04-.63 1.76-.19 6.18 3.78 12.39 7.51 18.57 11.28 2.37 1.45 4.74 2.92 6.34 5.29 2.16 3.21 2.16 6.62-.13 9.76-2.84 3.89-6.77 6.09-11.48 6.84-4.51.72-8.73-.26-12.63-2.63zM88.54 107.81c-.11.19-.19.39-.33.56-4.55 5.82-10.62 9.18-17.73 10.78-3.86.86-7.76.9-11.7.44-4.54-.53-8.82-1.86-12.8-4.05-3.37-1.86-6.63-3.94-9.93-5.92-7.53-4.53-15.06-9.07-22.6-13.61v7.35c2.89 1.77 5.78 3.54 8.67 5.3 7.54 4.59 15.12 9.12 22.63 13.76 5.09 3.15 10.53 5.23 16.53 5.53 8.91.45 16.72-2.17 22.95-8.77 2.33-2.48 4.03-5.36 4.61-8.77.14-.8.02-1.63.02-2.45-.11-.05-.22-.1-.33-.16z"/>
    <path fill="#52CCB5" d="M88.55 73.03c-.15.15-.3.31-.43.48-2.94 3.83-6.77 6.53-11.12 8.51-5.04 2.29-10.35 3.09-15.89 2.8-4.98-.27-9.76-1.3-14.08-3.75-6.74-3.81-13.32-7.89-19.96-11.87-4.54-2.72-9.07-5.46-13.61-8.19v7.35c.39.26.77.53 1.17.77 10.1 6.13 20.22 12.22 30.29 18.4 5.1 3.13 10.55 5.15 16.55 5.45 7.64.38 14.57-1.63 20.48-6.58 3.06-2.56 5.44-5.66 6.58-9.56.37-1.26.62-2.55.3-3.89-.17.05-.25.06-.3.1z"/>
    <path fill="#52CCB5" d="M88.12 85.18c-2.93 3.85-6.78 6.53-11.12 8.5-5.04 2.29-10.35 3.09-15.89 2.8-4.98-.26-9.77-1.3-14.08-3.75-7.11-4.03-14.06-8.34-21.08-12.54-4.17-2.5-8.33-5.02-12.49-7.53v7.35c2.86 1.75 5.71 3.5 8.57 5.24 7.6 4.62 15.23 9.19 22.8 13.86 5.42 3.34 11.21 5.36 17.61 5.53 5.66.16 10.96-1.12 15.82-3.99 4.79-2.83 8.48-6.66 10.24-12.08.42-1.28.66-2.61.3-4.14-.31.33-.53.51-.69.73z"/>
    <path fill="#52CCB5" d="M88.06 96.93c-2.94 3.78-6.73 6.48-11.06 8.41-5.08 2.27-10.43 3.11-16 2.8-4.68-.26-9.18-1.22-13.29-3.41-4.48-2.38-8.8-5.06-13.16-7.67-7.04-4.22-14.06-8.49-21.09-12.74v7.35c2.86 1.75 5.71 3.5 8.57 5.24 7.6 4.62 15.23 9.19 22.8 13.86 5.42 3.34 11.2 5.37 17.61 5.54 5.65.15 10.96-1.12 15.82-3.99 4.79-2.83 8.48-6.66 10.24-12.08.42-1.29.65-2.61.3-4.18-.34.38-.56.61-.75.85zM94.03 64.61c1.38-.23 2.78-.45 4.12-.85 6.7-1.96 11.7-6.02 14.9-12.22 1.03-1.99 1.57-4.13 1.16-6.46l-.54.66c-3.55 4.31-7.82 7.66-13.2 9.33-2.42.75-4.98 1.09-7.48 1.58-.5.1-.88.08-.81.8.2 2 .34 4 .46 6 .07 1.11.27 1.35 1.39 1.16zM102.76 89.23c-2.77 1.18-5.61 2.05-8.63 2.26-1.31.09-1.48.29-1.48 1.58v4.1c0 2.7 0 2.75 2.66 2.28 8.23-1.44 14.23-5.92 17.96-13.37.92-1.84 1.37-3.84 1.17-6.27-.39.44-.58.64-.75.86-2.97 3.7-6.51 6.69-10.92 8.56z"/>
    <path fill="#52CCB5" d="M95.29 87.78c8.64-1.56 14.87-6.26 18.37-14.38.67-1.55.92-3.22.55-4.99-.34.41-.67.83-1.03 1.24-2.8 3.21-5.95 5.95-9.9 7.68-2.99 1.31-6.06 2.3-9.34 2.51-.89.06-1.36.43-1.31 1.43.07 1.44.02 2.88.02 4.32 0 2.61.01 2.67 2.64 2.2zM101.05 66.58c-2.15.76-4.47 1.05-6.71 1.57-.71.16-1.7-.06-1.69 1.18.02 2.02.01 4.03 0 6.05 0 .77.38 1.01 1.1.93 7.87-.9 13.97-4.68 18.27-11.31 1.63-2.52 2.59-5.28 2.46-8.64-.31.35-.43.48-.54.61-3.35 4.47-7.63 7.74-12.89 9.61z"/>
</svg>
