<svg xmlns="http://www.w3.org/2000/svg" width="128" height="128">
    <path d="M108.893 61.68c0 25.36-20.1 45.918-44.892 45.918S19.108 87.04 19.108 61.68 39.207 15.761 64 15.761s44.892 20.558 44.892 45.919" fill="#d33833"/>
    <path d="M20.938 73.052S17.688 25.167 61.811 23.8l-3.078-5.131-23.943 8.037-6.841 7.867-5.985 11.459-3.421 13.339 1.026 8.893" fill="#ef3d3a"/>
    <path d="M33.253 30.355a44.912 44.912 0 0 0-12.75 31.5 44.909 44.909 0 0 0 12.75 31.494A42.857 42.857 0 0 0 64 106.375a42.854 42.854 0 0 0 30.747-13.03A44.91 44.91 0 0 0 107.5 61.851a44.913 44.913 0 0 0-12.751-31.5A42.861 42.861 0 0 0 64 17.326a42.865 42.865 0 0 0-30.747 13.029zm-1.994 64.939a47.7 47.7 0 0 1-13.546-33.443 47.7 47.7 0 0 1 13.546-33.444A45.652 45.652 0 0 1 64 14.538a45.646 45.646 0 0 1 32.74 13.869 47.7 47.7 0 0 1 13.547 33.444A47.7 47.7 0 0 1 96.74 95.294 45.65 45.65 0 0 1 64 109.163a45.656 45.656 0 0 1-32.741-13.869" fill="#231f20"/>
    <path d="M82.9 61.934l-6.841 1.027-9.235 1.026-5.986.17-5.815-.17-4.446-1.369-3.934-4.275-3.078-8.722-.684-1.881-4.1-1.368-2.401-3.934-1.71-5.638 1.881-4.96L41 30.3l3.592 1.71 1.71 3.762 2.053-.342.683-.855-.683-3.933-.172-4.96 1.026-6.84-.04-3.908 3.119-4.985 5.472-3.934 9.578-4.1 10.6 1.539 9.235 6.67 4.276 6.84 2.736 4.96.684 12.313-2.053 10.6-3.762 9.406-3.591 4.957" fill="#f0d6b7"/>
    <path d="M77.083 91.52l-24.456 1.027v4.1l2.052 14.366-1.026 1.2-17.1-5.815-1.2-2.052-1.71-19.325-3.932-11.628-.856-2.737 13.682-9.405 4.275-1.711 3.763 4.617 3.249 2.908 3.763 1.2 1.71.513 2.052 8.893 1.539 1.881 3.934-1.368-2.737 5.3 14.879 7.011-1.881 1.025" fill="#335061"/>
    <path d="M36.551 31.835L41 30.3l3.592 1.71 1.71 3.762 2.053-.342.513-2.052-1.026-3.933 1.026-9.407-.856-5.13 3.079-3.592 6.669-5.3-1.884-2.57-9.406 4.617-3.933 3.079-2.224 4.788-3.42 4.618-1.026 5.472.684 5.815" fill="#6d6b6d"/>
    <path d="M43.563 15.759s2.565-6.327 12.826-9.406.511-2.223.511-2.223L45.786 8.4l-4.275 4.276L39.63 16.1l3.933-.342M38.432 30.638s-3.591-11.972 10.09-13.682l-.513-2.056-9.409 2.227-2.733 8.893.684 5.815 1.881-1.2" fill="#dcd9d8"/>
    <path d="M43.905 46.543l2.239-2.17a1.442 1.442 0 0 1 1.182 1.314c.17 1.2.683 11.972 8.037 17.787.671.531-5.472-.856-5.472-.856l-5.473-8.55M75.373 43.293s.4-5.183 1.8-4.785a1.922 1.922 0 0 1 1.4 1.795s-3.39 2.193-3.191 2.99M89.567 24.31s-2.819.6-3.078 3.079 3.078.513 3.591.342M68.874 24.482s-3.763.513-3.763 2.907 4.276 2.223 5.473 1.2M45.615 35.6s-6.5-3.934-7.183-.171-2.223 6.5 1.026 10.432l-2.223-.684-2.052-5.3-.684-5.13 3.933-4.105 4.447.342 2.565 2.052.171 2.566M48.693 24.823S51.6 9.774 66.309 6.866c12.108-2.393 18.469.513 20.864 3.25 0 0-10.774-12.826-21.036-8.893S48.352 12.339 48.522 16.956c.292 7.864.171 7.867.171 7.867M88.37 11.826s-4.959-.171-5.13 4.275a3.4 3.4 0 0 0 .341 1.368s3.935-4.446 6.328-2.052" fill="#f7e4cd"/>
    <path d="M66.653 17.932s-.853-6.825-6.672-2.857c-3.763 2.566-3.42 6.157-2.737 6.841s.5 2.062 1.019 1.116.349-4.024 2.231-4.878 4.965-1.811 6.159-.222" fill="#f7e4cd"/>
    <path d="M50.575 64.157L34.5 71.34s6.67 26.509 3.249 34.717l-2.394-.854-.171-10.091-4.447-19.154-1.882-5.3 16.76-11.288 4.96 4.787M52.228 78.819l2.28 2.783v10.261h-2.736s-.342-7.183-.342-8.038.342-3.934.342-3.934M52.285 93.4l-7.7.342 2.223 1.539 5.473.855" fill="#49728b"/>
    <path d="M78.622 91.692l6.328-.171 1.539 15.734-6.5.855-1.367-16.418" fill="#335061"/>
    <path d="M80.332 91.692l9.577-.513s3.934-9.919 3.934-10.432 3.42-14.366 3.42-14.366l-7.7-8.037-1.539-1.369-4.1 4.1v15.9l-3.592 14.717" fill="#335061"/>
    <path d="M84.607 90.5l-5.985 1.2.855 4.789c2.223 1.026 5.986-1.711 5.986-1.711M84.779 60.567l11.971 8.892.342-4.1-9.064-8.38-3.249 3.592" fill="#49728b"/>
    <path d="M58.22 125.384l-3.541-14.367-1.761-10.6-.291-7.868 16.025-.854h9.97l-.906 17.958 1.539 13.847-.171 2.565-13 1.026-7.867-1.71" fill="#fff"/>
    <path d="M76.4 91.521s-.855 17.786 1.71 30.441a32.667 32.667 0 0 1-12.656 4.1l14.366-.513 1.71-1.026-2.053-28.042-.513-5.987" fill="#dcd9d8"/>
    <path d="M86.78 105.888l6.67-1.881 12.655-.684 1.882-5.815-3.421-10.09-3.933-.513-5.473 1.71-5.251 2.564-2.787-.512-2.172.854" fill="#fff"/>
    <path d="M86.66 102.466s4.446-2.052 5.13-1.881l-1.881-9.406 2.224-.855s1.539 8.893 1.539 9.919c0 0 9.576.513 10.432.513a15.536 15.536 0 0 0 1.539-8.038l1.881 5.473.171 3.078-2.736 4.1-3.078.684-5.131-.171-1.71-2.223-5.986.855-1.881.685" fill="#dcd9d8"/>
    <path d="M79.939 90.326l-3.762-9.578-3.934-5.643s.855-2.4 2.053-2.4h3.933l3.762 1.369-.341 6.327-1.711 9.92" fill="#fff"/>
    <path d="M80.674 87.074s-4.788-9.234-4.788-10.6c0 0 .854-2.052 2.052-1.539s3.762 1.878 3.762 1.878v-3.249l-5.815-1.2-3.934.513 6.67 15.734 1.368.172" fill="#dcd9d8"/>
    <path d="M59.759 64.5l-4.738-.515-4.446-1.369v1.539l2.172 2.4 6.841 3.079" fill="#fff"/>
    <path d="M52.114 65.014s5.3 2.224 7.012 1.711l.171 2.05-4.788-1.024L51.6 65.7l.513-.685" fill="#dcd9d8"/>
    <path d="M86.762 73.293a32.506 32.506 0 0 1-7.819-1.078 24.365 24.365 0 0 1 .1-2.542 6.1 6.1 0 0 1 2.68-.562 4.661 4.661 0 0 0-2.977-.336 4.739 4.739 0 0 0-.493-1.569c1.632-.582 5.483-4.4 7.65-3.136 1.032.6 1.471 4.036 1.551 5.706a5.826 5.826 0 0 1-.69 3.517" fill="#d33833"/>
    <path d="M86.762 73.293a32.506 32.506 0 0 1-7.819-1.078 24.365 24.365 0 0 1 .1-2.542 6.1 6.1 0 0 1 2.68-.562 4.661 4.661 0 0 0-2.977-.336 4.739 4.739 0 0 0-.493-1.569c1.632-.582 5.483-4.4 7.65-3.136 1.032.6 1.471 4.036 1.551 5.706a5.826 5.826 0 0 1-.692 3.517z" fill="none" stroke="#d33833" stroke-width="1.75"/>
    <path d="M72.885 68.549l-.026.662c-.906.595-2.368.588-3.363 1.088a8.728 8.728 0 0 1 3.618.915q-.033.829-.064 1.659c-1.661 1.137-3.178 2.83-5.133 3.9-.925.5-4.17 1.8-5.153 1.572-.557-.129-.607-.819-.829-1.47-.474-1.394-1.566-3.613-1.661-5.712-.121-2.65-.389-7.092 2.468-6.546a25.486 25.486 0 0 1 6.768 2.476c1.09.6 1.721 1.333 3.375 1.46" fill="#d33833"/>
    <path d="M72.885 68.549l-.026.662c-.906.595-2.368.588-3.363 1.088a8.728 8.728 0 0 1 3.618.915q-.033.829-.064 1.659c-1.661 1.137-3.178 2.83-5.133 3.9-.925.5-4.17 1.8-5.153 1.572-.557-.129-.607-.819-.829-1.47-.474-1.394-1.566-3.613-1.661-5.712-.121-2.65-.389-7.092 2.468-6.546a25.486 25.486 0 0 1 6.768 2.476c1.09.592 1.721 1.329 3.375 1.456z" fill="none" stroke="#d33833" stroke-width="1.75"/>
    <path d="M74.535 71.711A9.751 9.751 0 0 1 74.1 68.6c3.85-2.567 4.573 4.41.433 3.115" fill="#d33833"/>
    <path d="M74.535 71.711A9.751 9.751 0 0 1 74.1 68.6c3.852-2.571 4.575 4.406.435 3.111z" fill="none" stroke="#d33833" stroke-width="1.75"/>
    <path d="M80.11 72.882s-1.2-1.711-.342-2.224 1.71 0 2.223-.855 0-1.368.171-2.394 1.027-1.2 1.882-1.369 3.249-.513 3.591.343L86.609 63.3l-2.052-.684-6.5 3.763-.342 1.881v3.762M62.153 78.525q-.307-4-.665-8c-.362-3.982.957-3.287 4.408-3.287.527 0 3.245.628 3.44 1.026.933 1.905-1.56 1.482 1.074 2.918 2.224 1.213 6.152-.736 5.253-3.431-.5-.6-2.619-.187-3.378-.58l-4.008-2.078c-1.7-.882-5.629-2.168-7.441-.936-4.592 3.123.29 10.927 1.928 14.184" fill="#ef3d3a"/>
    <path d="M66.653 17.932c-4.661-1.085-6.977 1.951-8.39 5.1-1.262-.3-.759-2.021-.441-2.895.834-2.3 4.2-5.349 6.944-4.935 1.182.178 2.782 1.259 1.887 2.73M89.365 23.241l.221.008a48.178 48.178 0 0 0 3.294 6.438c-.891 2.073-6.741 3.908-6.651.185 1.265-.553 3.45-.113 4.571-.819-.648-1.78-1.584-3.3-1.435-5.812M69.04 23.3c1 1.832 1.324 3.757 2.745 5.141.64.624 1.884 1.384 1.267 3.117a3.95 3.95 0 0 1-1.805 1.5c-2.221.656-7.4.135-5.644-2.634 1.837.086 4.306 1.193 5.679-.14-1.054-1.686-2.934-5.02-2.242-6.984M88.531 41.918c-3.344 2.149-7.073 4.485-12.553 3.943a3.716 3.716 0 0 1-.479-4.779c.592 1.018.22 2.89 1.87 3.171 3.109.532 6.727-1.9 8.964-2.752 1.387-2.338-.12-3.2-1.369-4.7-2.558-3.083-5.988-6.9-5.864-11.52 1.034-.749 1.123 1.145 1.272 1.489 1.335 3.126 4.7 7.123 7.149 9.8.6.659 1.594 1.291 1.7 1.727.318 1.266-.828 2.784-.695 3.626M44.445 39.657c-1.049-.6-1.3-3.233-2.529-3.308-1.758-.107-1.438 3.418-1.431 5.48-1.21-1.1-1.423-4.483-.534-6.221-1.013-.5-1.466.549-2.028.918.723-5.248 7.678-2.434 6.522 3.131M90.66 44.1c-1.56 2.967-3.76 6.23-8.326 6.325a11.243 11.243 0 0 1 0-2.989c3.492-.336 5.647-2.113 8.321-3.332M68.776 46.025c2.914 1.532 8.268 1.7 12.228 1.581a13.873 13.873 0 0 1 .215 3c-5.09.254-11.108-1.006-12.443-4.578M68.223 48.882c2.014 5.058 8.938 4.476 14.777 4.336a3.122 3.122 0 0 1-1.507 1.713c-1.871.762-7.032 1.339-9.63-.04-1.647-.876-2.706-2.855-3.608-4.015-.436-.56-2.607-1.991-.033-1.994" fill="#231f20"/>
    <path d="M88.288 76.783a103.438 103.438 0 0 1-7.431 11.78c1.175-3.458 1.679-9.245 1.856-13.656a4.3 4.3 0 0 1 5.575 1.876" fill="#81b0c4"/>
    <path d="M101.009 91.336c-2.646.53-4.506 3.1-7.088 2.938 1.419-2 3.9-2.844 7.088-2.938M102.177 95.479a38.855 38.855 0 0 1-6.879.4c1.035-1.582 5.027-1.036 6.879-.4M102.925 99.05c-2.425.053-5.439 0-7.743-.189 1.363-1.464 6.17-.544 7.743.189" fill="#231f20"/>
    <path d="M83.726 108.823c.347 3.045 1.555 6.131 1.4 9.466a9.917 9.917 0 0 1-3.907.845c-.126-2.834-.506-7.167-.392-9.869.883.059 2.186-.631 2.9-.442" fill="#dcd9d8"/>
    <path d="M79.817 63.945c-1.218.795-2.255 1.787-3.424 2.636-2.593.128-4.008-.18-5.913-1.669.031-.119.223-.066.23-.213 2.775 1.237 6.3-.5 9.107-.754" fill="#f0d6b7"/>
    <path d="M65.245 82.866c.763-3.3 3.751-5.017 6.465-6.836 2.8 3.554 4.5 8.125 6.38 12.537a65.438 65.438 0 0 1-12.845-5.7" fill="#81b0c4"/>
    <path d="M80.83 109.265c-.114 2.7.266 7.035.392 9.869a9.917 9.917 0 0 0 3.907-.845c.152-3.335-1.056-6.421-1.4-9.466-.713-.189-2.016.501-2.899.442zM52.861 93.9a141.25 141.25 0 0 0 6.046 29.684c6.984 2.12 15.4 2.3 21.575.391-1.133-5.442-.638-12.067-1.3-17.874-.5-4.365-.244-8.757-.929-13.211-7.48-1.556-18.053-.363-25.392 1.01zm27.16-.941c-.063 4.676.209 9.289.566 13.971 1.8-.269 3.014-.449 4.683-.815-.542-4.508-.475-9.58-1.579-13.567a11.117 11.117 0 0 0-3.67.411zm9.109-.754a11.15 11.15 0 0 0-2.659.008c.383 3.812 1.312 8.019 1.639 12.02 1.281.04 1.965-.564 3.019-.767.056-3.513-.307-8.352-2-11.261zm13.793 12.6c2.671-.648 4.35-3.919 3.6-7.278-.5-2.258-1.394-6.508-2.349-7.953-.706-1.068-2.621-2.466-4.149-1.487-2.486 1.592-6.866 2.054-8.679 3.981.909 3.027 1.191 7.185 1.566 11.02 3.106.194 6.928-.854 9.511.258-1.8.584-4.143.589-5.7 1.44 1.274.615 4.255.491 6.2.019zM78.09 88.567c-1.876-4.412-3.579-8.983-6.38-12.537-2.714 1.819-5.7 3.531-6.465 6.836a65.438 65.438 0 0 0 12.845 5.701zm4.623-13.66c-.177 4.411-.681 10.2-1.856 13.656a103.438 103.438 0 0 0 7.431-11.78 4.3 4.3 0 0 0-5.575-1.876zm-5.241-1.863c-1.063-.114-1.965 1.222-3.346.644-.317.35-.605.729-.927 1.071 3.051 3.677 4.438 8.895 6.8 13.217 1.265-4.151 1.119-8.7 1.4-13.231-1.745.11-2.709-1.572-3.927-1.701zM74.1 68.6a9.751 9.751 0 0 0 .433 3.115c4.142 1.291 3.419-5.686-.433-3.115zm-4.59-1.511a25.486 25.486 0 0 0-6.768-2.476c-2.857-.547-2.589 3.9-2.468 6.546.095 2.1 1.187 4.318 1.661 5.712.222.651.272 1.341.829 1.47.983.23 4.228-1.068 5.153-1.572 1.955-1.066 3.472-2.759 5.133-3.9l.064-1.659a8.728 8.728 0 0 0-3.614-.91c1-.5 2.457-.493 3.363-1.088l.026-.662c-1.658-.128-2.289-.865-3.379-1.461zm-17.04-3.1c-1.481 1.5 4.153 3.553 5.946 3.663-.01-.951.542-1.848.431-2.53-2.13-.37-4.93-.122-6.377-1.129zm18.24.706c-.007.147-.2.094-.23.213 1.905 1.489 3.32 1.8 5.913 1.669 1.169-.849 2.206-1.841 3.424-2.636-2.803.254-6.332 1.995-9.107.759zm16.742 5.077c-.08-1.67-.519-5.1-1.551-5.706-2.167-1.264-6.018 2.554-7.65 3.136a4.739 4.739 0 0 1 .493 1.569 4.661 4.661 0 0 1 2.977.336 6.1 6.1 0 0 0-2.68.562 24.365 24.365 0 0 0-.1 2.542 32.506 32.506 0 0 0 7.819 1.078 5.826 5.826 0 0 0 .692-3.513zm-37.475-4.325c-.465-.331-3.61-4.424-4.041-4.254-5.692 2.245-11.014 6.126-15.77 9.8 4.534 9.73 6.365 21.65 6.688 33.139 5.2 2.43 9.757 5.932 16.806 6.3-.816-5.771-1.561-10.92-2.024-16.353-1.771-.747-4.312.034-5.969-.232-.014-2 2.531-.874 2.743-2.217.16-1.016-1.4-1.093-.892-2.693 1.3.471 1.976 1.511 3.358 1.9 1.262-2.762-.018-7.65.164-9.958.035-.434.217-2.4 1.188-2.057.859.306-.049 5.234.045 7.42.086 2.013-.243 3.961.572 5.225a194.342 194.342 0 0 1 21.1-1.729 51.047 51.047 0 0 1-5.659-2.544c-1.145-.646-4.753-1.988-5.084-3.076-.527-1.732 1.383-2.655 1.71-4.14-3.438 1.875-4.109-1.8-4.922-4.4a34.241 34.241 0 0 1-1.336-5.478 59.238 59.238 0 0 1-8.677-4.653zm34.467-3.759c4.742-2.3 5.6 8.594 3.738 12.1.287 1.046 1.275 1.447 1.679 2.388-2.647 4.741-5.586 9.166-8.286 13.851 2.008-1.251 4.877-.224 7.241-1.16.864-.342 1.49-2.32 2.144-3.9a84.819 84.819 0 0 0 4.528-14 17.689 17.689 0 0 0 .591-3.851c-.206-1.508-2.253-2.627-3.294-3.56-1.918-1.722-3.125-3.239-5.126-4.85-.811 1.2-2.552 2-3.215 2.976zM39.132 19.634c-2.26 2.486-1.787 7.145-1.513 10.459 4.084-2.569 9.505.2 9.454 4.573 1.95-.051.728-2.435.376-3.971-1.153-5.015 1.942-10.465.14-15.051a12.392 12.392 0 0 0-8.457 3.99zM55.3 5.2c-5.116 1.449-11.672 5.167-13.774 9.762 1.628-.237 2.758-1.057 4.364-1.159a10.794 10.794 0 0 0 2.1.081c1.39-.345 2.563-3.461 3.611-4.621 1.022-1.132 2.251-1.616 3.092-2.648.54-.261 1.338-.243 1.369-1.054-.235-.246-.481-.437-.762-.361zm26.629 1.367c-5.309-3-14.3-5.249-19.945-2.433-4.557 2.272-10.717 6.032-12.818 10.8 1.962 4.6-.581 8.81-.743 13.478-.086 2.484 1.169 4.652 1.265 7.356-.671 1.108-2.722 1.244-4.142 1.168-.478-2.392-1.315-5.08-3.778-5.35a5.718 5.718 0 0 0-6.192 5.514c-.187 3.545 2.723 9.42 6.847 9.012 1.594-.157 1.985-1.754 3.721-1.738.941 1.877-1.451 2.467-1.7 3.809a10.7 10.7 0 0 0 .356 2.337 31.886 31.886 0 0 0 4.063 9.458c2.086 2.989 6.185 3.44 10.6 3.733.787-1.7 3.689-1.557 5.579-1.114-2.266-.9-4.372-3.072-6.118-5-2.005-2.209-4.036-4.579-4.138-7.466 3.789 5.256 6.919 9.847 13.809 12.16 5.214 1.748 11.3-.8 15.309-3.615 1.662-1.169 2.654-3.024 3.836-4.723 4.421-6.359 6.484-15.436 6.031-24.234-.187-3.628-.179-7.244-1.4-9.685-1.273-2.553-5.576-4.837-8.1-2.528-.466-2.482 2.095-4.017 5.1-3.124-2.145-2.769-4.4-6.1-7.447-7.817zm9.893 81.867c4.149-2.062 11.9-5.551 14.5.008a47.09 47.09 0 0 1 2.583 7.629c.7 2.984-.761 9.257-3.828 10.258a18.2 18.2 0 0 1-9.135.175 4.964 4.964 0 0 1-1.111-1.457 12.593 12.593 0 0 0-6.353 1.083c.174 1.723-.992 2-2.084 2.355-.811 3.212 1.62 7.407 1.038 10.336-.415 2.086-2.982 2.409-4.869 2.8a16.056 16.056 0 0 0 .211 3.108c-.431 1.59-2.366 2.5-4.2 2.717-6.033.725-15.193 1.051-21-1.036-1.62-3.972-2.895-8.8-4.244-13.338-5.66.6-10.237-2.442-14.552-4.438-1.495-.693-3.561-1.074-4.12-2.263-.541-1.152-.319-3.359-.454-5.443-.341-5.324-.634-10.459-2.04-15.911-.631-2.446-1.731-4.6-2.5-6.961-.709-2.185-1.949-4.885-2.272-7.063-.48-3.229 2.561-3.408 4.5-4.807 3-2.164 5.364-3.36 8.618-5.313.964-.578 3.871-2.042 4.2-2.716.657-1.337-1.128-3.221-1.606-4.269a12.84 12.84 0 0 1-1.257-4.7 9.067 9.067 0 0 1-6.05-3.889c-2.068-3.032-3.5-8.642-1.713-12.909.141-.336.84-1 .944-1.513.2-1.016-.384-2.368-.42-3.449-.188-5.546.938-10.325 4.672-12C40.81 9.4 46.235 7.387 51.346 4.386a37.858 37.858 0 0 1 6.192-2.638c7.8-2.872 19.774-2.331 26.25 2.566 2.746 2.077 7.135 6.462 8.7 9.637 4.146 8.382 3.852 22.39.951 32.586a32.744 32.744 0 0 1-1.739 5.025c-.55 1.149-2.261 3.446-2.053 4.46.214 1.048 3.9 3.848 4.692 4.61 1.423 1.374 4.128 3.2 4.347 4.93.236 1.844-.812 4.367-1.343 6.147-1.776 5.94-3.508 11.43-5.52 16.725" fill="#231f20"/>
    <path d="M64.141 47.319c.225-.3 1.462-.755 3.194.079 0 0-2.052.342-1.882 3.764l-.853-.172s-.884-3.1-.457-3.671" fill="#f7e4cd"/>
    <path d="M79.135 76.728a.941.941 0 1 1-.941-.941.94.94 0 0 1 .941.941M80.076 81.089a.941.941 0 1 1-.941-.941.941.941 0 0 1 .941.941" fill="#1d1919"/>
</svg>
