<svg xmlns="http://www.w3.org/2000/svg" width="128" height="128">
    <path d="M63.579 5.186a8.111 8.111 0 0 0-3.089.781L18.336 26.109a8.008 8.008 0 0 0-4.362 5.423L3.575 76.776a7.938 7.938 0 0 0 1.094 6.129q.213.33.458.637l29.178 36.277a8.082 8.082 0 0 0 6.3 3.008l46.79-.01a8.092 8.092 0 0 0 6.3-3l29.166-36.283a7.945 7.945 0 0 0 1.558-6.766l-10.411-45.246a8.009 8.009 0 0 0-4.361-5.424L67.488 5.967a8.113 8.113 0 0 0-3.909-.781z" fill="#326ce5"/>
    <path d="M63.556 1.91a8.558 8.558 0 0 0-3.256.83L15.8 24a8.456 8.456 0 0 0-4.6 5.726L.215 77.484a8.376 8.376 0 0 0 1.154 6.474 8.13 8.13 0 0 0 .485.669l30.8 38.3a8.538 8.538 0 0 0 6.653 3.176l49.394-.011a8.537 8.537 0 0 0 6.653-3.17l30.789-38.305a8.388 8.388 0 0 0 1.644-7.138L116.8 29.712a8.454 8.454 0 0 0-4.605-5.72L67.686 2.734a8.575 8.575 0 0 0-4.13-.824zm.022 3.277a8.119 8.119 0 0 1 3.908.782l42.16 20.131a8.007 8.007 0 0 1 4.361 5.423l10.416 45.244a7.945 7.945 0 0 1-1.558 6.766L93.7 119.815a8.085 8.085 0 0 1-6.3 3l-46.79.011a8.084 8.084 0 0 1-6.3-3.008L5.126 83.543a7.763 7.763 0 0 1-.458-.636 7.937 7.937 0 0 1-1.094-6.13l10.4-45.243a8.006 8.006 0 0 1 4.362-5.423L60.489 5.969a8.113 8.113 0 0 1 3.089-.782z" fill="#fff"/>
    <path d="M64 20.582a2.675 2.675 0 0 0-2.523 2.8c0 .024 0 .046.005.07 0 .21-.012.464-.005.647a20.82 20.82 0 0 0 .345 2.4 23.564 23.564 0 0 1 .28 4.577 2.753 2.753 0 0 1-.82 1.3l-.059 1.067a32.888 32.888 0 0 0-4.561.7 32.454 32.454 0 0 0-16.486 9.419c-.279-.191-.766-.54-.911-.647a2 2 0 0 1-1.5-.146 23.537 23.537 0 0 1-3.4-3.073 21.187 21.187 0 0 0-1.66-1.763c-.154-.132-.389-.311-.561-.447a2.992 2.992 0 0 0-1.758-.663 2.43 2.43 0 0 0-2.011.889 2.675 2.675 0 0 0 .62 3.72c.013.01.026.017.038.027.167.135.37.308.523.421a21.152 21.152 0 0 0 2.092 1.223 23.525 23.525 0 0 1 3.752 2.646 2.8 2.8 0 0 1 .5 1.451l.809.723a32.649 32.649 0 0 0-5.149 22.761L30.506 71a3.5 3.5 0 0 1-1.083 1.094 23.564 23.564 0 0 1-4.523.744 21.2 21.2 0 0 0-2.421.194c-.193.037-.463.107-.674.157h-.022l-.037.011a2.532 2.532 0 1 0 1.121 4.916c.011 0 .027 0 .038-.005s.032-.012.048-.016c.209-.046.47-.1.653-.146a20.925 20.925 0 0 0 2.264-.868 23.64 23.64 0 0 1 4.4-1.294 2.782 2.782 0 0 1 1.45.513l1.1-.189A32.832 32.832 0 0 0 47.37 94.28l-.458 1.1a2.5 2.5 0 0 1 .224 1.427 24.643 24.643 0 0 1-2.284 4.105 21.308 21.308 0 0 0-1.353 2.016c-.1.189-.227.479-.323.679a2.533 2.533 0 1 0 4.555 2.162l.006-.005v-.006c.1-.2.231-.456.312-.641a20.871 20.871 0 0 0 .728-2.313c.668-1.677 1.035-3.437 1.954-4.533a2.032 2.032 0 0 1 1.087-.529l.571-1.036a32.667 32.667 0 0 0 23.285.06c.161.285.459.832.539.97a2 2 0 0 1 1.289.782 23.6 23.6 0 0 1 1.73 4.243 21.356 21.356 0 0 0 .733 2.313c.082.186.217.449.313.647a2.535 2.535 0 1 0 4.561-2.157c-.1-.2-.229-.49-.329-.679a20.846 20.846 0 0 0-1.353-2.011 23.52 23.52 0 0 1-2.237-4.006 1.976 1.976 0 0 1 .194-1.488 8.616 8.616 0 0 1-.421-1.019 32.834 32.834 0 0 0 14.546-18.3c.326.052.894.152 1.078.189a1.992 1.992 0 0 1 1.412-.523 23.572 23.572 0 0 1 4.4 1.294 21.141 21.141 0 0 0 2.264.873c.182.049.444.095.652.141.017 0 .032.012.049.016l.038.005a2.532 2.532 0 1 0 1.121-4.917c-.216-.049-.523-.132-.733-.172a21.223 21.223 0 0 0-2.421-.194 23.551 23.551 0 0 1-4.523-.744 2.831 2.831 0 0 1-1.089-1.095l-1.019-.3a32.768 32.768 0 0 0-5.257-22.708c.262-.238.755-.675.895-.8a1.992 1.992 0 0 1 .475-1.429 23.525 23.525 0 0 1 3.752-2.636 21.227 21.227 0 0 0 2.1-1.224c.163-.12.385-.31.556-.447a2.537 2.537 0 1 0-3.143-3.947c-.173.137-.407.315-.561.448a20.81 20.81 0 0 0-1.666 1.763 23.658 23.658 0 0 1-3.4 3.078 2.809 2.809 0 0 1-1.531.167l-.96.685a33.068 33.068 0 0 0-20.945-10.12 70.189 70.189 0 0 1-.059-1.126 2 2 0 0 1-.825-1.262 23.691 23.691 0 0 1 .281-4.576 21.041 21.041 0 0 0 .345-2.4c.008-.2 0-.5-.005-.717A2.675 2.675 0 0 0 64 20.582zm-3.16 19.571l-.749 13.235-.054.027a2.225 2.225 0 0 1-3.531 1.7l-.022.01-10.855-7.689a25.991 25.991 0 0 1 12.518-6.82 26.456 26.456 0 0 1 2.69-.463zm6.324 0a26.211 26.211 0 0 1 15.117 7.288L71.5 55.086l-.038-.016a2.229 2.229 0 0 1-3.537-1.7l-.01-.006zM41.693 52.38l9.907 8.863-.011.054a2.223 2.223 0 0 1-.873 3.822l-.011.043-12.7 3.666a25.98 25.98 0 0 1 3.688-16.448zm44.537 0a26.467 26.467 0 0 1 3.8 16.4l-12.766-3.672-.01-.053a2.226 2.226 0 0 1-.874-3.823v-.027l9.855-8.82zm-24.266 9.548h4.06l2.523 3.154-.906 3.935L64 70.769l-3.656-1.757-.905-3.936zm13.015 10.793a2.194 2.194 0 0 1 .512.038l.021-.027 13.139 2.221a26.024 26.024 0 0 1-10.519 13.214l-5.1-12.319.016-.022a2.233 2.233 0 0 1 1.931-3.1zm-22.067.054a2.225 2.225 0 0 1 2.011 3.1l.038.048-5.046 12.195A26.121 26.121 0 0 1 39.429 75l13.025-2.21.022.027a2.229 2.229 0 0 1 .436-.038zm11 5.342a2.25 2.25 0 0 1 2.038 1.17H66l6.421 11.6a26.429 26.429 0 0 1-2.566.717 26.092 26.092 0 0 1-14.238-.733l6.4-11.58h.011a2.229 2.229 0 0 1 1.888-1.174z" fill="#fff"/>
</svg>
