<svg xmlns="http://www.w3.org/2000/svg" width="128" height="128">
    <path d="M87.5 29.351a5.7 5.7 0 0 0-1.462.179v.07h.069a12.184 12.184 0 0 0 1.141 1.463c.287.57.537 1.139.822 1.709.035-.034.069-.072.069-.072a2 2 0 0 0 .752-1.782 8.317 8.317 0 0 1-.429-.749c-.213-.356-.677-.534-.962-.82" fill="#0d758d" fill-rule="evenodd"/>
    <path d="M30.774 99.728h-4.939q-.261-12.5-1.442-23.517h-.044L16.83 99.728h-3.761L5.6 76.211h-.049Q4.72 86.788 4.5 99.728H0Q.437 83.99 2.185 70.22h6.121l7.125 21.68h.044l7.169-21.68H28.5q1.924 16.13 2.273 29.508M52.194 77.957q-3.017 16.37-7.956 23.79-3.849 5.718-8.437 5.718a8.307 8.307 0 0 1-3.016-.734V104.1a14.249 14.249 0 0 0 2.055.131 4.968 4.968 0 0 0 3.454-1.182 4.308 4.308 0 0 0 1.572-3.234 21.576 21.576 0 0 0-1.223-5.026l-5.421-16.832h4.852l3.89 12.589q1.311 4.287 1.093 5.991a82.191 82.191 0 0 0 4.46-18.58z" fill="#0d758d"/>
    <path fill="#f0902a" d="M117.939 99.728h-14.031V70.22h4.721v25.879h9.31v3.629z"/>
    <path d="M82.663 93.825q-1.792-2.885-1.794-9.266 0-11.145 6.776-11.148a5.688 5.688 0 0 1 5.2 2.666q1.791 2.886 1.793 9.181 0 11.234-6.776 11.236a5.68 5.68 0 0 1-5.2-2.669m17.573 6.615l-5.424-2.675a10.1 10.1 0 0 0 1.357-1.318q3.454-4.061 3.455-12.019 0-14.643-11.5-14.646A10.886 10.886 0 0 0 79.34 73.5q-3.454 4.066-3.454 11.978 0 7.78 3.06 11.409 2.8 3.278 8.438 3.279a13.6 13.6 0 0 0 3.863-.519l7.063 4.111 1.926-3.317z" fill="#f0902a" fill-rule="evenodd"/>
    <path d="M73.829 91.549a7.838 7.838 0 0 1-2.752 6.165 10.847 10.847 0 0 1-7.385 2.4 14.808 14.808 0 0 1-8.392-2.753l1.268-2.535a14.385 14.385 0 0 0 6.332 1.748 6.646 6.646 0 0 0 4.177-1.174 4.019 4.019 0 0 0 1.606-3.277c0-1.752-1.222-3.25-3.464-4.506-2.07-1.136-6.206-3.507-6.206-3.507a7.07 7.07 0 0 1-3.365-6.28 7.34 7.34 0 0 1 2.512-5.792 9.477 9.477 0 0 1 6.492-2.21 13.432 13.432 0 0 1 7.473 2.188l-1.139 2.532a14.492 14.492 0 0 0-5.679-1.222 5.058 5.058 0 0 0-3.5 1.1 3.656 3.656 0 0 0-1.324 2.8c0 1.747 1.248 3.263 3.553 4.544 2.1 1.137 6.334 3.554 6.334 3.554 2.305 1.631 3.454 3.371 3.454 6.237" fill="#f0902a"/>
    <path d="M123.864 60.336a16.477 16.477 0 0 0-6.917 1c-.534.213-1.389.213-1.462.891.287.285.321.748.573 1.142a8.3 8.3 0 0 0 1.852 2.175c.749.57 1.5 1.139 2.283 1.638 1.39.859 2.959 1.356 4.312 2.212.787.5 1.568 1.14 2.355 1.676.391.285.639.749 1.14.926v-.108c-.251-.32-.321-.784-.57-1.142-.356-.354-.713-.677-1.07-1.032a17.029 17.029 0 0 0-3.707-3.6c-1.142-.786-3.639-1.856-4.1-3.171l-.072-.073a14.349 14.349 0 0 0 2.461-.574c1.211-.32 2.316-.248 3.564-.568.571-.144 1.142-.323 1.715-.5v-.323c-.646-.641-1.107-1.5-1.784-2.1a47.7 47.7 0 0 0-5.884-4.386c-1.107-.713-2.533-1.174-3.71-1.782-.425-.214-1.138-.32-1.388-.679a14.3 14.3 0 0 1-1.463-2.745c-1.033-1.959-2.033-4.132-2.923-6.2a38.026 38.026 0 0 0-1.818-4.063 35.941 35.941 0 0 0-13.8-13.334 17.062 17.062 0 0 0-4.563-1.463c-.893-.037-1.783-.107-2.674-.142a14.011 14.011 0 0 1-1.641-1.249c-2.033-1.283-7.272-4.063-8.771-.392-.963 2.319 1.426 4.6 2.247 5.777a16.7 16.7 0 0 1 1.817 2.673c.25.606.321 1.249.572 1.89a42.524 42.524 0 0 0 1.854 4.779 16.821 16.821 0 0 0 1.318 2.201c.288.4.786.571.893 1.215a10.19 10.19 0 0 0-.821 2.673C82.4 47.607 82.9 52.6 84.716 55.557c.569.892 1.926 2.853 3.744 2.1 1.605-.641 1.248-2.673 1.711-4.455.107-.431.035-.713.249-1v.072c.5 1 1 1.957 1.462 2.958a20.351 20.351 0 0 0 4.637 4.776c.853.644 1.531 1.747 2.6 2.141v-.108h-.07a3.94 3.94 0 0 0-.82-.712 17.486 17.486 0 0 1-1.854-2.14 45.6 45.6 0 0 1-3.992-6.489c-.572-1.108-1.07-2.319-1.534-3.423-.214-.426-.214-1.07-.571-1.283a13.351 13.351 0 0 0-1.71 2.421 20.153 20.153 0 0 0-1 5.387c-.142.037-.07 0-.142.07-1.14-.285-1.532-1.461-1.961-2.456a15.432 15.432 0 0 1-.321-9.523c.249-.747 1.321-3.1.892-3.813-.216-.681-.928-1.069-1.32-1.606a14.145 14.145 0 0 1-1.282-2.274c-.856-2-1.286-4.207-2.211-6.2a19.033 19.033 0 0 0-1.782-2.745 17.6 17.6 0 0 1-1.962-2.78c-.177-.393-.427-1.035-.143-1.462a.57.57 0 0 1 .5-.465c.46-.392 1.781.106 2.244.32a18.116 18.116 0 0 1 3.529 1.783c.5.357 1.035 1.034 1.675 1.214h.751c1.14.248 2.424.07 3.5.392a22.816 22.816 0 0 1 5.133 2.459 31.643 31.643 0 0 1 11.122 12.2c.429.818.608 1.568 1 2.422.749 1.751 1.677 3.533 2.424 5.243a23.354 23.354 0 0 0 2.534 4.778c.533.748 2.673 1.14 3.636 1.532a25.62 25.62 0 0 1 2.46 1c1.212.748 2.422 1.6 3.564 2.426.57.428 2.353 1.318 2.46 2.033" fill="#0d758d" fill-rule="evenodd"/>
    <path d="M121.309 99.725h.783v-3h1.023v-.615h-2.869v.613h1.063v3zm5.954 0H128V96.11h-1.109l-.9 2.464-.983-2.464h-1.068v3.615h.7v-2.751h.04l1.029 2.751h.532l1.028-2.751v2.751z" fill="#f0902a"/>
</svg>
