<svg xmlns="http://www.w3.org/2000/svg" xmlns:xlink="http://www.w3.org/1999/xlink" width="128" height="128">
    <defs>
        <linearGradient id="a" x1="52.198" y1="48.153" x2="41.183" y2="70.622" gradientUnits="userSpaceOnUse">
            <stop offset="0" stop-color="#3f873f"/>
            <stop offset=".33" stop-color="#3f8b3d"/>
            <stop offset=".637" stop-color="#3e9637"/>
            <stop offset=".934" stop-color="#3da92e"/>
            <stop offset="1" stop-color="#3dae2b"/>
        </linearGradient>
        <clipPath id="c">
            <path d="M47.978 42.914a1.472 1.472 0 0 0-1.472 0l-12.191 7.035a1.472 1.472 0 0 0-.737 1.276v14.081a1.476 1.476 0 0 0 .736 1.276l12.192 7.041a1.474 1.474 0 0 0 1.473 0l12.188-7.041a1.474 1.474 0 0 0 .736-1.276V51.224a1.471 1.471 0 0 0-.736-1.275z" fill="url(#a)" clip-rule="evenodd"/>
        </clipPath>
        <linearGradient id="d" x1="45.385" y1="59.912" x2="76.29" y2="37.078" gradientUnits="userSpaceOnUse">
            <stop offset=".138" stop-color="#3f873f"/>
            <stop offset=".397" stop-color="#529f44"/>
            <stop offset=".711" stop-color="#63b649"/>
            <stop offset=".908" stop-color="#6abf4b"/>
        </linearGradient>
        <linearGradient id="b" x1="33.147" y1="40.376" x2="61.334" y2="40.376" gradientUnits="userSpaceOnUse">
            <stop offset=".092" stop-color="#6abf4b"/>
            <stop offset=".289" stop-color="#63b649"/>
            <stop offset=".603" stop-color="#529f44"/>
            <stop offset=".862" stop-color="#3f873f"/>
        </linearGradient>
        <linearGradient id="e" x1="33.147" y1="58.262" x2="61.334" y2="58.262" xlink:href="#b"/>
        <linearGradient id="f" x1="33.147" y1="66.309" x2="61.334" y2="66.309" xlink:href="#b"/>
        <linearGradient id="g" x1="33.147" y1="69.946" x2="61.334" y2="69.946" xlink:href="#b"/>
        <linearGradient id="h" x1="65.441" y1="47.487" x2="48.057" y2="82.951" xlink:href="#a"/>
    </defs>
    <g fill="#669f66">
        <path d="M63.266 103.2a2.425 2.425 0 0 1-1.213-.324l-3.859-2.283c-.576-.323-.3-.437-.105-.5a7.711 7.711 0 0 0 1.745-.794.3.3 0 0 1 .287.022l2.965 1.76a.378.378 0 0 0 .358 0L75 94.4a.364.364 0 0 0 .176-.313V80.749a.373.373 0 0 0-.176-.318l-11.554-6.666a.359.359 0 0 0-.356 0l-11.552 6.668a.371.371 0 0 0-.183.316v13.34a.354.354 0 0 0 .182.309l3.167 1.83c1.718.859 2.77-.153 2.77-1.169V81.888a.333.333 0 0 1 .336-.333h1.466a.334.334 0 0 1 .335.333v13.171c0 2.293-1.249 3.608-3.423 3.608a4.946 4.946 0 0 1-2.663-.724L50.494 96.2a2.441 2.441 0 0 1-1.212-2.109V80.749a2.433 2.433 0 0 1 1.212-2.106l11.559-6.68a2.532 2.532 0 0 1 2.43 0l11.558 6.68a2.438 2.438 0 0 1 1.214 2.106v13.34a2.446 2.446 0 0 1-1.214 2.111l-11.558 6.674a2.426 2.426 0 0 1-1.217.326z"/>
        <path d="M66.836 94.006c-5.058 0-6.118-2.322-6.118-4.27a.332.332 0 0 1 .334-.333h1.495a.335.335 0 0 1 .332.284c.225 1.521.9 2.289 3.957 2.289 2.435 0 3.472-.551 3.472-1.843 0-.745-.294-1.3-4.078-1.668-3.163-.313-5.119-1.012-5.119-3.542 0-2.333 1.965-3.723 5.262-3.723 3.7 0 5.535 1.285 5.767 4.042a.333.333 0 0 1-.333.364h-1.5a.332.332 0 0 1-.324-.261c-.36-1.6-1.236-2.112-3.61-2.112-2.659 0-2.968.926-2.968 1.62 0 .841.364 1.085 3.954 1.56 3.553.47 5.24 1.135 5.24 3.632.001 2.518-2.099 3.961-5.763 3.961z"/>
    </g>
    <path d="M83.5 80.016a2.228 2.228 0 1 1-2.228-2.229 2.234 2.234 0 0 1 2.228 2.229zm-4.095-.007a1.868 1.868 0 1 0 1.862-1.862 1.869 1.869 0 0 0-1.858 1.862zm1.03-1.243h.865c.3 0 .873 0 .873.66a.575.575 0 0 1-.472.613c.342.024.365.248.412.566a2.469 2.469 0 0 0 .13.66h-.53c-.012-.118-.095-.755-.095-.79-.034-.141-.082-.212-.259-.212h-.436v1h-.484zm.473 1.1h.392a.337.337 0 0 0 .378-.353c0-.343-.236-.343-.366-.343h-.4z" fill="#669f66"/>
    <path d="M27.47 51a1.478 1.478 0 0 0-.74-1.286l-12.255-7.049a1.451 1.451 0 0 0-.675-.2h-.127a1.473 1.473 0 0 0-.677.2L.741 49.718A1.485 1.485 0 0 0 0 51l.027 19a.726.726 0 0 0 .369.639.715.715 0 0 0 .736 0l7.283-4.171a1.49 1.49 0 0 0 .741-1.284v-8.877a1.475 1.475 0 0 1 .744-1.281L13 53.24a1.47 1.47 0 0 1 .742-.2 1.447 1.447 0 0 1 .737.2l3.1 1.786a1.476 1.476 0 0 1 .74 1.281v8.873a1.493 1.493 0 0 0 .742 1.284l7.281 4.171a.722.722 0 0 0 .74 0 .738.738 0 0 0 .364-.635zM86.439 24.9a.74.74 0 0 0-1.1.647v18.805a.518.518 0 0 1-.777.448l-3.07-1.768a1.48 1.48 0 0 0-1.479 0l-12.26 7.076a1.48 1.48 0 0 0-.741 1.282v14.154a1.484 1.484 0 0 0 .74 1.282l12.26 7.081a1.484 1.484 0 0 0 1.481 0l12.262-7.081a1.482 1.482 0 0 0 .74-1.282V30.261a1.481 1.481 0 0 0-.759-1.293zm-1.138 36a.368.368 0 0 1-.185.32l-4.209 2.42a.375.375 0 0 1-.37 0l-4.209-2.427a.369.369 0 0 1-.186-.32v-4.861a.37.37 0 0 1 .185-.32l4.21-2.431a.366.366 0 0 1 .37 0l4.21 2.431a.369.369 0 0 1 .184.32z" fill="#333" fill-rule="evenodd"/>
    <g fill-rule="evenodd">
        <path d="M127.263 55.905a1.48 1.48 0 0 0 .737-1.28V51.2a1.481 1.481 0 0 0-.737-1.28l-12.182-7.073a1.48 1.48 0 0 0-1.483 0l-12.256 7.076a1.48 1.48 0 0 0-.74 1.282v14.15a1.48 1.48 0 0 0 .748 1.286l12.179 6.94a1.481 1.481 0 0 0 1.452.008l7.367-4.094a.742.742 0 0 0 .009-1.29l-12.333-7.085a.74.74 0 0 1-.372-.643v-4.434a.74.74 0 0 1 .37-.641l3.838-2.213a.741.741 0 0 1 .74 0l3.84 2.213a.74.74 0 0 1 .37.641v3.489a.74.74 0 0 0 1.112.64z" fill="#333"/>
        <path d="M114.159 55.242a.288.288 0 0 1 .284 0L116.8 56.6a.283.283 0 0 1 .142.246v2.716a.282.282 0 0 1-.142.246l-2.353 1.358a.283.283 0 0 1-.284 0l-2.351-1.358a.282.282 0 0 1-.142-.246v-2.716a.283.283 0 0 1 .142-.246z" fill="#669f66"/>
    </g>
    <path d="M47.978 42.914a1.472 1.472 0 0 0-1.472 0l-12.191 7.035a1.472 1.472 0 0 0-.737 1.276v14.081a1.476 1.476 0 0 0 .736 1.276l12.192 7.041a1.474 1.474 0 0 0 1.473 0l12.188-7.041a1.474 1.474 0 0 0 .736-1.276V51.224a1.471 1.471 0 0 0-.736-1.275z" fill-rule="evenodd" fill="url(#a)"/>
    <g clip-path="url(#c)">
        <path d="M46.481 42.914l-12.217 7.035a1.522 1.522 0 0 0-.788 1.276v14.081a1.425 1.425 0 0 0 .38.937l13.727-23.481a1.5 1.5 0 0 0-1.102.152zM47.651 73.765a1.525 1.525 0 0 0 .343-.142l12.2-7.041a1.5 1.5 0 0 0 .766-1.276V51.224a1.454 1.454 0 0 0-.445-1.022z" fill="none"/>
        <path d="M60.191 49.949l-12.226-7.035a1.445 1.445 0 0 0-.382-.152L33.856 66.243a1.7 1.7 0 0 0 .411.339l12.246 7.041a1.487 1.487 0 0 0 1.138.142L60.519 50.2a1.649 1.649 0 0 0-.328-.251z" fill="url(#d)"/>
        <g>
            <path d="M60.964 65.306V51.224a1.507 1.507 0 0 0-.773-1.275l-12.226-7.035a1.458 1.458 0 0 0-.448-.165l13.4 22.9a1.371 1.371 0 0 0 .047-.343zM34.264 49.949a1.522 1.522 0 0 0-.788 1.276v14.081a1.53 1.53 0 0 0 .791 1.276l12.246 7.041a1.493 1.493 0 0 0 .943.183l-13.119-23.9z" fill="none"/>
            <path fill="url(#b)" d="M46.099 40.328l-.167.096h.224l-.057-.096z"/>
            <path d="M60.2 66.582a1.548 1.548 0 0 0 .721-.937l-13.4-22.9a1.49 1.49 0 0 0-1.036.165l-12.148 6.997 13.119 23.9a1.5 1.5 0 0 0 .538-.183z" fill="url(#e)"/>
            <path fill="url(#f)" d="M61.334 66.355l-.08-.138v.185l.08-.047z"/>
            <path d="M60.2 66.582L48 73.623a1.5 1.5 0 0 1-.538.183l.243.442L61.254 66.4v-.185l-.335-.572a1.548 1.548 0 0 1-.719.939z" fill="url(#g)"/>
            <path d="M60.2 66.582L48 73.623a1.5 1.5 0 0 1-.538.183l.243.442L61.254 66.4v-.185l-.335-.572a1.548 1.548 0 0 1-.719.939z" fill="url(#h)"/>
        </g>
    </g>
</svg>
