<svg xmlns="http://www.w3.org/2000/svg" width="128" height="128">
    <path d="M122.983 93.74c-6.831 3.561-42.216 18.109-49.749 22.036s-11.719 3.89-17.67 1.045S11.958 98.766 5.175 95.524C1.784 93.9 0 92.536 0 91.244V78.306S49.024 67.634 56.939 64.8s10.66-2.942 17.4-.475S121.341 74.054 128 76.491v12.755c0 1.279-1.535 2.682-5.012 4.494z" fill="#a41e11"/>
    <path d="M122.983 80.8c-6.831 3.559-42.216 18.11-49.749 22.037s-11.719 3.89-17.67 1.045-43.606-18.059-50.389-21.3-6.926-5.474-.262-8.082S49.024 57.2 56.94 54.357s10.66-2.942 17.395-.474 41.909 16.468 48.565 18.906 6.913 4.449.083 8.009z" fill="#d82c20"/>
    <path d="M122.983 72.642C116.152 76.2 80.767 90.751 73.234 94.68s-11.719 3.888-17.67 1.043S11.958 77.668 5.175 74.426C1.784 72.805 0 71.44 0 70.148v-12.94S49.024 46.537 56.939 43.7s10.66-2.942 17.4-.475S121.341 52.954 128 55.393v12.756c0 1.278-1.54 2.681-5.017 4.493z" fill="#a41e11"/>
    <path d="M122.983 59.7c-6.831 3.561-42.216 18.11-49.749 22.038s-11.719 3.889-17.67 1.044S11.958 64.726 5.175 61.484s-6.926-5.473-.262-8.083S49.024 36.1 56.94 33.26s10.66-2.942 17.395-.475 41.909 16.467 48.565 18.906 6.913 4.449.083 8.009z" fill="#d82c20"/>
    <path d="M122.983 50.761c-6.831 3.561-42.216 18.111-49.749 22.039s-11.719 3.889-17.67 1.044S11.958 55.788 5.175 52.546C1.784 50.926 0 49.559 0 48.268v-12.94s49.022-10.671 56.937-13.51 10.66-2.942 17.4-.475S121.341 31.075 128 33.514v12.755c0 1.277-1.535 2.681-5.012 4.493z" fill="#a41e11"/>
    <path d="M122.983 37.82c-6.831 3.56-42.216 18.11-49.749 22.038s-11.719 3.888-17.67 1.042S11.958 42.846 5.175 39.6s-6.926-5.474-.262-8.084S49.024 14.22 56.94 11.38s10.66-2.942 17.395-.474 41.909 16.467 48.565 18.906 6.913 4.448.083 8.008z" fill="#d82c20"/>
    <path fill="#fff" d="M80.772 25.36l-11.091 1.151-2.483 5.974-4.011-6.666-12.806-1.152 9.556-3.446-2.867-5.289 8.946 3.498 8.435-2.761-2.28 5.47 8.601 3.221zM66.536 54.343l-20.7-8.585 29.661-4.552-8.961 13.137z"/>
    <ellipse cx="37.838" cy="34.825" rx="15.853" ry="6.145" fill="#fff"/>
    <path fill="#7a0c00" d="M93.879 26.992l17.554 6.938-17.539 6.93-.015-13.868z"/>
    <path fill="#ad2115" d="M74.459 34.675l19.42-7.683.015 13.868-1.904.744-17.531-6.929z"/>
</svg>
