<svg xmlns="http://www.w3.org/2000/svg" width="128" height="128">
    <path fill="#f7df1e" d="M0 0h128v128H0z"/>
    <path d="M85.983 100c2.581 4.2 5.933 7.314 11.866 7.314 4.978 0 8.168-2.5 8.168-5.933 0-4.124-3.272-5.587-8.757-7.985l-3.007-1.3c-8.676-3.7-14.446-8.33-14.446-18.123 0-9.021 6.867-15.888 17.615-15.888 7.64 0 13.146 2.661 17.108 9.63l-9.367 6.014c-2.052-3.7-4.287-5.161-7.741-5.161-3.515 0-5.75 2.235-5.75 5.161 0 3.617 2.235 5.079 7.4 7.314l3.007 1.28c10.22 4.389 15.99 8.859 15.99 18.9 0 10.829-8.513 16.761-19.932 16.761-11.174 0-18.387-5.323-21.922-12.292zM43.5 101.039c1.889 3.352 3.616 6.2 7.741 6.2 3.962 0 6.44-1.545 6.44-7.559v-40.9h12.028v41.06c0 12.455-7.294 18.123-17.96 18.123-9.631 0-15.218-4.978-18.042-10.992z"/>
</svg>
