<svg xmlns="http://www.w3.org/2000/svg" width="128" height="128">
    <path d="M86.118 118a1.174 1.174 0 0 1 2.306.438 5.889 5.889 0 0 0 .955 4.486 6.019 6.019 0 0 0 10.885-2.322c.137-.644 13.2-62.088 13.2-74.48 0-25.837-20.34-43.882-49.465-43.882-14.026 0-26.683 4.4-35.639 12.4a41.721 41.721 0 0 0-13.821 31.634c0 12.432 13.059 73.838 13.192 74.457a6.055 6.055 0 1 0 11.845-2.515 1.174 1.174 0 0 1 2.306-.441c.014.076.019.151.031.226l44.175.217c.012-.072.012-.143.03-.218z" fill="#57d1e5"/>
    <path d="M46.868 62.929h-.04a21.315 21.315 0 0 1-21.313-21.278v-.078a21.315 21.315 0 0 1 21.357-21.352h.038a21.355 21.355 0 0 1-.042 42.709z" fill="#fff"/>
    <path d="M94.366 128a8.212 8.212 0 0 1-1.543-.146 8.408 8.408 0 0 1-5.374-3.485 8.219 8.219 0 0 1-1.331-6.261 1.174 1.174 0 0 1 2.306.438 5.889 5.889 0 0 0 .955 4.486 6.019 6.019 0 0 0 10.885-2.322c.137-.643 13.2-62.088 13.2-74.48 0-25.837-20.34-43.882-49.465-43.882-14.026 0-26.683 4.405-35.639 12.4a41.721 41.721 0 0 0-13.821 31.63c0 12.433 13.059 73.838 13.192 74.457a6.055 6.055 0 1 0 11.845-2.515 1.174 1.174 0 0 1 2.306-.441 8.4 8.4 0 0 1-16.441 3.471c-.547-2.563-13.25-62.294-13.25-74.971A44.037 44.037 0 0 1 26.794 13C36.18 4.617 49.392 0 64 0c30.5 0 51.809 19.01 51.809 46.23 0 12.638-12.7 72.407-13.244 74.944A8.4 8.4 0 0 1 94.366 128z" fill="#3b2d55"/>
    <path d="M80.383 118.469a7.242 7.242 0 1 0 14.338 2.049l3.539-20.111" fill="#57d1e5"/>
    <path d="M99 100.321a.594.594 0 0 0-.558-.558 1.021 1.021 0 0 0-.932.558l-2.045 10.426-.931 5.214-.559 2.606c-.184.747-.373 1.864-.558 2.422a6.219 6.219 0 0 1-7.077 4.1 5.819 5.819 0 0 1-4.84-6.515.757.757 0 0 0 .011-.066 1.1 1.1 0 0 0-.942-1.239l-.067-.011a1.1 1.1 0 0 0-1.239.943 8.39 8.39 0 0 0 1.306 5.96 8.637 8.637 0 0 0 4.47 3.165 8.315 8.315 0 0 0 10.426-5.583l.559-2.752.373-2.752.932-5.213L99 100.407zM46.906 65.276a23.662 23.662 0 0 1-23.738-23.62v-.081a23.662 23.662 0 0 1 23.621-23.7h.042a23.7 23.7 0 0 1 .119 47.4zm0-45.056h-.038a21.315 21.315 0 0 0-21.353 21.353v.078a21.315 21.315 0 0 0 21.313 21.278h.04a21.355 21.355 0 0 0 .042-42.709z" fill="#3b2d55"/>
    <path d="M51.533 26.67c4.651-.924 11.728 4.655 11.728 14.9S56.188 57.4 51.533 56.472c-3.916-.743-4.844-9.306-2.422-11.728 1.49-1.49 4.655-2.045 4.655-3.165s-3.161-1.671-4.655-3.165c-2.233-2.422-1.49-10.985 2.422-11.732z" fill="#3b2d55"/>
    <path d="M29.928 100.411l3.35 20.11a7.242 7.242 0 1 0 14.339-2.048" fill="#57d1e5"/>
    <path d="M48.93 118.328c-.189-.743-.747-1.3-1.494-1.117-.558 0-.932.747-.932 1.305a6.06 6.06 0 0 1-4.655 6.515 5.95 5.95 0 0 1-7.077-4.1l-.558-2.422-1.675-7.824-2.039-10.423c0-.374-.374-.558-.747-.558a.8.8 0 0 0-.747.747c.55 3.538 1.112 7.076 2.044 10.8l1.117 7.824.558 2.752a8.216 8.216 0 0 0 8.936 5.771 8.353 8.353 0 0 0 7.262-9.31z" fill="#3b2d55"/>
    <path d="M41.476 100.042l2.233 20.11a7.155 7.155 0 0 0 7.446 6.33 7.252 7.252 0 0 0 6.888-7.635" fill="#57d1e5"/>
    <path d="M59.345 118.925a1.772 1.772 0 0 0-.932-1.116 1.242 1.242 0 0 0-1.3 1.116 6.409 6.409 0 0 1-5.214 6.33 5.954 5.954 0 0 1-6.7-4.47c-.189-.558-.189-1.49-.374-2.422l-.373-2.607-2.233-15.824c0-.374-.374-.559-.747-.559a.8.8 0 0 0-.747.747l.931 10.616.559 5.213.184 2.607a14.523 14.523 0 0 0 .374 2.752 8.428 8.428 0 0 0 16.576-2.461z" fill="#3b2d55"/>
    <path d="M69.956 118.847a7.2 7.2 0 0 0 14.344 1.305l2.233-20.3" fill="#57d1e5"/>
    <path d="M87.471 99.774c-.184-.373-.373-.558-.558-.558-.373-.189-.747.185-.932.558l-1.494 10.616-1.116 7.824-.371 2.421a6.13 6.13 0 0 1-6.7 4.471 6.01 6.01 0 0 1-5.213-6.291 1.043 1.043 0 0 0-.932-1.116c-.558-.185-1.121.373-1.306.931a8.561 8.561 0 0 0 1.495 5.214 8.181 8.181 0 0 0 11.543 2.233 8.739 8.739 0 0 0 3.538-5.033 13.344 13.344 0 0 0 .374-2.752l.184-2.606.559-5.214.932-10.615z" fill="#3b2d55"/>
    <path d="M56.18 99.071l.558 20.3a7.262 7.262 0 0 0 14.523 0l.559-20.3" fill="#57d1e5"/>
    <path d="M72.61 99.3c0-.559-.185-.932-.932-.932a.8.8 0 0 0-.747.747L70 118.666a5.212 5.212 0 0 1-.184 1.675l-.559 1.494a6.076 6.076 0 0 1-2.422 2.421 5.939 5.939 0 0 1-8.193-2.421l-.558-1.494a5.185 5.185 0 0 1-.185-1.675l-.932-19.552a.841.841 0 0 0-.786-.747.8.8 0 0 0-.747.747l.185 15.64v3.912a9.192 9.192 0 0 0 .181 2.234 8.01 8.01 0 0 0 4.286 5.771 8.34 8.34 0 0 0 11.362-3.538 8.468 8.468 0 0 0 .932-4.285v-3.908l.185-15.64zM72.2 57.592h-.75a1.134 1.134 0 1 0 .374 2.237 4.927 4.927 0 0 1 1.954.673 60.143 60.143 0 0 1-42.359 9.75v.039c-.373 0-.558.189-.931.747a.956.956 0 0 0 .558 1.3c1.428.2 2.858.337 4.287.443.937 2.492 3.185 5.622 6.2 5.622a4.482 4.482 0 0 0 1.06-.129c1.823-.456 2.957-2.514 3.127-5.551a63.047 63.047 0 0 0 9.415-1.568c.625 2.6 1.578 5.855 4.949 5.855a5.283 5.283 0 0 0 3.875-1.967 9.833 9.833 0 0 0 1.974-7.6 62.033 62.033 0 0 0 9.506-5.313 4.9 4.9 0 0 1 .658 1.607.652.652 0 0 0 .932.558.8.8 0 0 0 .747-.746 6.921 6.921 0 0 0-5.576-5.957zM42.137 76.375c-1.909.448-3.667-1.512-4.621-3.466q3.138.124 6.257-.059c-.165 2.183-.906 3.342-1.636 3.525zM62.2 73.5a3.016 3.016 0 0 1-2.106 1.163c-1.272 0-1.9-.952-2.671-4.1a62.292 62.292 0 0 0 6.217-2.137A7.193 7.193 0 0 1 62.2 73.5z" fill="#3b2d55"/>
    <path d="M63.624 68.427A7.186 7.186 0 0 1 62.2 73.5a3.016 3.016 0 0 1-2.106 1.163c-1.272 0-1.9-.952-2.671-4.1a62.091 62.091 0 0 0 6.201-2.136zM43.773 72.85c-.165 2.183-.906 3.342-1.636 3.525-1.909.448-3.659-1.512-4.613-3.466q3.135.125 6.249-.059z" fill="#fff"/>
</svg>
