<svg xmlns="http://www.w3.org/2000/svg" width="128" height="128">
  <path d="m15.93,112.07c21.24,21.24,55.67,21.24,76.91,0,21.24-21.24,21.24-55.67,0-76.91l-9.61,9.61c15.93,15.93,15.93,41.76,0,57.68-15.93,15.93-41.76,15.93-57.68,0l-9.61,9.61Z" fill="#5bc590" stroke-width="0"/>
  <path d="m35.16,92.84c10.62,10.62,27.84,10.62,38.46,0,10.62-10.62,10.62-27.84,0-38.46l-9.61,9.61c5.31,5.31,5.31,13.92,0,19.23-5.31,5.31-13.92,5.31-19.23,0l-9.61,9.61Z" fill="#5bc590" stroke-width="0"/>
  <path d="m112.07,15.93c-21.24-21.24-55.67-21.24-76.91,0-21.24,21.24-21.24,55.67,0,76.91l9.61-9.61c-15.93-15.93-15.93-41.76,0-57.68,15.93-15.93,41.76-15.93,57.68,0l9.61-9.61Z" fill="#5bc590" stroke-width="0"/>
  <path d="m92.84,35.16c-10.62-10.62-27.84-10.62-38.46,0-10.62,10.62-10.62,27.84,0,38.46l9.61-9.61c-5.31-5.31-5.31-13.92,0-19.23,5.31-5.31,13.92-5.31,19.23,0l9.61-9.61Z" fill="#5bc590" stroke-width="0"/>
  <path d="m112.07,15.93c-21.24-21.24-55.67-21.24-76.91,0-21.24,21.24-21.24,55.67,0,76.91l9.61-9.61c-15.93-15.93-15.93-41.76,0-57.68,15.93-15.93,41.76-15.93,57.68,0l9.61-9.61Z" fill="rgba(255, 255, 255, .4)" stroke-width="0"/>
  <path d="m92.84,35.16c-10.62-10.62-27.84-10.62-38.46,0-10.62,10.62-10.62,27.84,0,38.46l9.61-9.61c-5.31-5.31-5.31-13.92,0-19.23,5.31-5.31,13.92-5.31,19.23,0l9.61-9.61Z" fill="rgba(255, 255, 255, .4)" stroke-width="0"/>
</svg>