<svg  viewBox="0 0 300 300" xmlns="http://www.w3.org/2000/svg"><g fill="white"><path d="m0 0c-8.01 0-15.264-3.249-20.516-8.505-5.254-5.244-8.501-12.502-8.501-20.516 0-8.008 3.247-15.261 8.501-20.507 5.252-5.249 12.506-8.504 20.516-8.504 8.012 0 15.27 3.255 20.514 8.504 5.252 5.246 8.492 12.499 8.492 20.507 0 8.014-3.24 15.272-8.492 20.516-5.244 5.256-12.502 8.505-20.514 8.505m0 3.516c17.965 0 32.531-14.568 32.531-32.537 0-17.963-14.566-32.529-32.531-32.529-17.963 0-32.535 14.566-32.535 32.529 0 17.969 14.572 32.537 32.535 32.537" transform="matrix(4.579965 0 0 -4.579965 150.00916 17.10316)"/><path d="m0 0c0 1.896-1.258 2.973-3.039 2.973h-1.09v-5.948h1.059c1.656 0 3.07.9 3.07 2.975m19.389-2.14-8.03-6.323-7.339 5.778c-1.059-2.544-3.618-4.311-6.565-4.311h-6.281v13.992h6.281c3.293 0 5.666-2.094 6.563-4.325l7.341 5.772 2.719-2.14-6.728-5.288 1.293-1.012 6.726 5.285 2.723-2.134-6.727-5.294 1.291-1.014 6.733 5.295v4.855h4.881v-9.908h4.869v-4.101h-9.75v4.873zm15.933-.774h4.867v-4.099h-9.753v14.009h4.886z" transform="matrix(4.579965 0 0 -4.579965 79.53863 148.80419)"/></g></svg>
