<svg xmlns="http://www.w3.org/2000/svg" width="91" height="42" fill="none"><path fill-rule="evenodd" clip-rule="evenodd" d="M88.614 21.523c0-6.011-2.955-10.754-8.602-10.754-5.67 0-9.102 4.743-9.102 10.707 0 7.067 4.05 10.636 9.865 10.636 2.835 0 4.98-.634 6.6-1.526V25.89c-1.62.799-3.48 1.292-5.838 1.292-2.311 0-4.36-.799-4.623-3.57h11.652c0-.305.048-1.526.048-2.09zm-11.77-2.231c0-2.653 1.643-3.757 3.144-3.757 1.454 0 3.002 1.104 3.002 3.757h-6.147zm-15.13-8.524c-2.335 0-3.836 1.08-4.67 1.832l-.31-1.456h-5.242v27.379l5.957-1.245.024-6.645c.858.61 2.12 1.48 4.217 1.48 4.265 0 8.149-3.382 8.149-10.825-.024-6.81-3.955-10.52-8.125-10.52zm-1.43 16.178c-1.405 0-2.24-.493-2.811-1.103l-.024-8.711c.62-.681 1.477-1.151 2.835-1.151 2.169 0 3.67 2.395 3.67 5.471 0 3.146-1.478 5.494-3.67 5.494zM43.297 9.381l5.98-1.267V3.347l-5.98 1.244v4.79z" fill="#B1BAC4"/><path d="M49.277 11.165h-5.98v20.546h5.98V11.165z" fill="#B1BAC4"/><path fill-rule="evenodd" clip-rule="evenodd" d="M36.887 12.903l-.381-1.737h-5.147V31.71h5.957V17.787c1.406-1.808 3.789-1.479 4.527-1.22v-5.401c-.762-.282-3.55-.799-4.956 1.737zM24.97 6.072l-5.813 1.221-.024 18.808c0 3.475 2.645 6.035 6.171 6.035 1.954 0 3.383-.353 4.17-.775v-4.767c-.763.305-4.527 1.386-4.527-2.09V16.17h4.527v-5.002h-4.527l.023-5.095zM8.864 17.132c0-.916.763-1.268 2.025-1.268 1.811 0 4.099.54 5.91 1.503v-5.518c-1.978-.775-3.932-1.08-5.91-1.08-4.836 0-8.053 2.489-8.053 6.645 0 6.48 9.054 5.447 9.054 8.241 0 1.08-.953 1.433-2.287 1.433-1.978 0-4.503-.799-6.505-1.879v5.589a16.727 16.727 0 0 0 6.505 1.338c4.956 0 8.363-2.419 8.363-6.622-.024-6.997-9.102-5.752-9.102-8.382z" fill="#B1BAC4"/></svg>