<svg width="444" height="90" viewBox="0 0 444 90" fill="none" xmlns="http://www.w3.org/2000/svg">
<g clip-path="url(#clip0_92_27)">
<mask id="mask0_92_27" style="mask-type:luminance" maskUnits="userSpaceOnUse" x="0" y="18" width="100" height="63">
<path d="M100 18H0V80.2093H100V18Z" fill="white"/>
</mask>
<g mask="url(#mask0_92_27)">
<path d="M0.272305 23.2328C-0.724071 20.7174 1.13281 18 3.8502 18H20.7208C22.3058 18 23.7097 18.9432 24.2987 20.403L37.727 53.9107C38.0894 54.8091 38.0894 55.8196 37.727 56.7405L29.2805 77.7837C27.9898 80.9954 23.4153 80.9954 22.1246 77.7837L0.272305 23.2328Z" fill="white"/>
<path d="M32.8579 23.1205C31.9521 20.6276 33.8089 18 36.481 18H51.1777C52.8081 18 54.2573 19.0106 54.8007 20.5153L67.0064 54.0231C67.3007 54.8539 67.3007 55.7748 67.0064 56.6281L59.6693 76.7733C58.4467 80.1419 53.6459 80.1419 52.423 76.7733L32.8579 23.1205Z" fill="white"/>
<path d="M62.2735 23.2328C61.2772 20.7174 63.134 18 65.8514 18H82.722C84.307 18 85.7111 18.9432 86.2999 20.403L99.7282 53.9107C100.091 54.8091 100.091 55.8196 99.7282 56.7405L91.2816 77.7837C89.991 80.9954 85.4167 80.9954 84.1258 77.7837L62.2735 23.2328Z" fill="white"/>
</g>
</g>
<path d="M140.857 31.6364V41.0966H115.393V31.6364H140.857ZM120.727 21.9659H133.577V59.3075C133.577 60.0959 133.7 60.7353 133.945 61.2259C134.208 61.6989 134.585 62.0405 135.075 62.2507C135.566 62.4434 136.153 62.5398 136.836 62.5398C137.326 62.5398 137.843 62.496 138.386 62.4084C138.947 62.3033 139.367 62.2157 139.648 62.1456L141.592 71.4219C140.979 71.5971 140.112 71.8161 138.991 72.0788C137.887 72.3416 136.564 72.508 135.023 72.5781C132.009 72.7183 129.425 72.3679 127.271 71.527C125.133 70.6686 123.495 69.3371 122.357 67.5327C121.235 65.7282 120.692 63.4595 120.727 60.7266V21.9659ZM161.13 48.9801V72H148.28V18.1818H160.71V39.0469H161.157C162.068 36.5592 163.557 34.6146 165.624 33.2131C167.709 31.8116 170.258 31.1108 173.271 31.1108C176.109 31.1108 178.579 31.7415 180.681 33.0028C182.784 34.2467 184.413 36.0073 185.569 38.2848C186.743 40.5623 187.321 43.2251 187.304 46.2734V72H174.453V48.7962C174.471 46.5537 173.91 44.8018 172.772 43.5405C171.633 42.2791 170.03 41.6484 167.963 41.6484C166.614 41.6484 165.422 41.9463 164.389 42.5419C163.373 43.12 162.576 43.9522 161.998 45.0384C161.437 46.1245 161.148 47.4384 161.13 48.9801ZM195.325 72V31.6364H208.175V72H195.325ZM201.763 26.9325C199.959 26.9325 198.408 26.3369 197.112 25.1456C195.816 23.9368 195.167 22.4827 195.167 20.7834C195.167 19.1016 195.816 17.665 197.112 16.4737C198.408 15.2649 199.959 14.6605 201.763 14.6605C203.585 14.6605 205.136 15.2649 206.415 16.4737C207.711 17.665 208.359 19.1016 208.359 20.7834C208.359 22.4827 207.711 23.9368 206.415 25.1456C205.136 26.3369 203.585 26.9325 201.763 26.9325ZM216.354 72V31.6364H228.837V38.9943H229.257C229.993 36.3314 231.193 34.3518 232.857 33.0554C234.522 31.7415 236.457 31.0845 238.665 31.0845C239.26 31.0845 239.874 31.1283 240.504 31.2159C241.135 31.286 241.722 31.3999 242.265 31.5575V42.7259C241.652 42.5156 240.846 42.3492 239.847 42.2266C238.866 42.1039 237.99 42.0426 237.219 42.0426C235.695 42.0426 234.32 42.3842 233.094 43.0675C231.885 43.7332 230.93 44.6705 230.229 45.8793C229.546 47.0705 229.205 48.4721 229.205 50.0838V72H216.354ZM260.147 72.5781C257.169 72.5781 254.462 71.8073 252.027 70.2656C249.592 68.724 247.648 66.4115 246.194 63.3281C244.739 60.2448 244.012 56.4169 244.012 51.8445C244.012 47.0968 244.766 43.1901 246.272 40.1243C247.779 37.0585 249.75 34.7898 252.185 33.3182C254.638 31.8466 257.274 31.1108 260.095 31.1108C262.215 31.1108 264.028 31.4787 265.534 32.2145C267.041 32.9328 268.285 33.8613 269.266 35C270.247 36.1387 270.992 37.3213 271.5 38.5476H271.762V18.1818H284.613V72H271.894V65.4567H271.5C270.957 66.7005 270.186 67.8655 269.187 68.9517C268.189 70.0379 266.936 70.9138 265.429 71.5795C263.94 72.2453 262.18 72.5781 260.147 72.5781ZM264.615 62.5661C266.174 62.5661 267.505 62.1281 268.609 61.2521C269.713 60.3587 270.562 59.1061 271.158 57.4943C271.754 55.8826 272.051 53.9905 272.051 51.8182C272.051 49.6108 271.754 47.71 271.158 46.1158C270.58 44.5215 269.73 43.2952 268.609 42.4368C267.505 41.5784 266.174 41.1491 264.615 41.1491C263.02 41.1491 261.672 41.5871 260.568 42.4631C259.464 43.339 258.623 44.5741 258.045 46.1683C257.484 47.7625 257.204 49.6458 257.204 51.8182C257.204 53.9905 257.493 55.8826 258.071 57.4943C258.65 59.1061 259.482 60.3587 260.568 61.2521C261.672 62.1281 263.02 62.5661 264.615 62.5661ZM300.281 72L289.77 31.6364H302.672L308.112 57.4943H308.454L314.287 31.6364H326.875L332.866 57.3104H333.208L338.49 31.6364H351.393L340.855 72H327.111L320.805 48.4808H320.358L314.051 72H300.281ZM374.55 72.7621C370.328 72.7621 366.684 71.9299 363.619 70.2656C360.57 68.5838 358.223 66.1925 356.576 63.0916C354.947 59.9732 354.132 56.268 354.132 51.9759C354.132 47.8063 354.955 44.1624 356.602 41.044C358.249 37.9081 360.57 35.473 363.566 33.7386C366.562 31.9867 370.092 31.1108 374.156 31.1108C377.029 31.1108 379.657 31.5575 382.04 32.451C384.422 33.3445 386.481 34.6671 388.215 36.419C389.95 38.1709 391.299 40.3345 392.262 42.9098C393.226 45.4676 393.707 48.402 393.707 51.7131V54.919H358.626V47.456H381.751C381.733 46.0895 381.409 44.8719 380.778 43.8033C380.148 42.7346 379.281 41.9025 378.177 41.3068C377.091 40.6937 375.838 40.3871 374.419 40.3871C372.982 40.3871 371.695 40.7112 370.556 41.3594C369.417 41.9901 368.515 42.8572 367.849 43.9609C367.184 45.0471 366.833 46.2822 366.798 47.6662V55.2607C366.798 56.9074 367.122 58.3527 367.771 59.5966C368.419 60.8229 369.339 61.7777 370.53 62.4609C371.721 63.1442 373.14 63.4858 374.787 63.4858C375.926 63.4858 376.959 63.3281 377.888 63.0128C378.816 62.6974 379.613 62.2332 380.279 61.62C380.945 61.0069 381.444 60.2536 381.777 59.3601L393.576 59.7017C393.085 62.3471 392.008 64.6508 390.344 66.6129C388.697 68.5575 386.533 70.0729 383.853 71.1591C381.173 72.2277 378.072 72.7621 374.55 72.7621ZM400.27 72V18.1818H413.121V38.5476H413.383C413.909 37.3213 414.653 36.1387 415.617 35C416.598 33.8613 417.842 32.9328 419.349 32.2145C420.873 31.4787 422.695 31.1108 424.814 31.1108C427.617 31.1108 430.237 31.8466 432.672 33.3182C435.124 34.7898 437.104 37.0585 438.611 40.1243C440.117 43.1901 440.871 47.0968 440.871 51.8445C440.871 56.4169 440.144 60.2448 438.689 63.3281C437.253 66.4115 435.308 68.724 432.856 70.2656C430.421 71.8073 427.714 72.5781 424.736 72.5781C422.703 72.5781 420.943 72.2453 419.454 71.5795C417.965 70.9138 416.712 70.0379 415.696 68.9517C414.697 67.8655 413.926 66.7005 413.383 65.4567H412.989V72H400.27ZM412.858 51.8182C412.858 53.9905 413.147 55.8826 413.725 57.4943C414.321 59.1061 415.17 60.3587 416.274 61.2521C417.395 62.1281 418.735 62.5661 420.295 62.5661C421.871 62.5661 423.211 62.1281 424.315 61.2521C425.419 60.3587 426.251 59.1061 426.812 57.4943C427.39 55.8826 427.679 53.9905 427.679 51.8182C427.679 49.6458 427.39 47.7625 426.812 46.1683C426.251 44.5741 425.419 43.339 424.315 42.4631C423.229 41.5871 421.889 41.1491 420.295 41.1491C418.718 41.1491 417.378 41.5784 416.274 42.4368C415.17 43.2952 414.321 44.5215 413.725 46.1158C413.147 47.71 412.858 49.6108 412.858 51.8182Z" fill="white"/>
<defs>
<clipPath id="clip0_92_27">
<rect width="100" height="62.2093" fill="white" transform="translate(0 18)"/>
</clipPath>
</defs>
</svg>
