<svg xmlns="http://www.w3.org/2000/svg" width="128" height="128">
    <defs>
        <linearGradient id="a" x1="-863.701" y1="154.299" x2="-612.299" y2="405.701" gradientTransform="rotate(-90 -445 -165)" gradientUnits="userSpaceOnUse">
            <stop offset="0" stop-color="#c8511b"/>
            <stop offset="1" stop-color="#f90"/>
        </linearGradient>
    </defs>
    <path d="M0 0h128v128H0z" fill="url(#a)"/>
    <path d="M64 109.985h-.948L23.941 87.23a2 2 0 0 1-.948-1.66V40.533a1.789 1.789 0 0 1 .948-1.659l35.792-20.859a2.027 2.027 0 0 1 1.66 0 2 2 0 0 1 .948 1.659v19.674a1.3 1.3 0 0 1-.948 1.422L43.615 51.2v23.7L64 86.756l18.015-10.193a2.024 2.024 0 0 1 1.659 0l17.067 9.718c.948.475.948 1.423.711 2.371-.237.237-.237.474-.711.711l-35.793 20.622c-.237.237-.474.237-.948 0zM26.548 84.859L64 106.43 96.474 87.7l-13.748-7.819-17.778 10.193a2.6 2.6 0 0 1-1.9 0l-22.045-12.8a1.949 1.949 0 0 1-.948-1.422v-25.6a1.789 1.789 0 0 1 .948-1.659l17.778-10.43V22.519L26.548 41.244zm76.8-1.422a1.792 1.792 0 0 1-.948-.237l-17.067-9.719a2 2 0 0 1-.948-1.659V51.2L66.607 41.007a2 2 0 0 1-.948-1.659V19.911a1.789 1.789 0 0 1 .948-1.659 2.027 2.027 0 0 1 1.66 0l35.792 20.622a2 2 0 0 1 .948 1.659v41.482c0 .948-.707 1.422-1.659 1.422zM87.941 71.111l13.511 7.822V41.244L69.215 22.756V38.4l17.778 10.193a2 2 0 0 1 .948 1.659zm-32.474 4.741v-25.6h3.318v11.615l11.141-11.615h4.5L62.815 62.815l12.563 13.037h-4.5L58.785 64v11.852z" fill="#fff"/>
</svg>
