<svg xmlns="http://www.w3.org/2000/svg" width="128" height="128">
    <path id="path10" fill="#fff" d="M56.93 103.81V105.28c.07-.35.14-.7.21-1.07 0-.67-.53-.33-.21-.4z"/>
    <path id="path12" fill="#fff" d="M85.84 66.12s0 .03 0 0z"/>
    <path id="path14" fill="#fff" d="M67.63 19.87z"/>
    <path id="path20" d="M83.11 112.76c.14-1.59.07-3.21.26-4.8.44-3.49 0-7.06.94-10.51.45-1.79-1-3.88.86-5.44l-.46-1.52a2.75 2.75 0 01.05-2.49 48.29 48.29 0 01.55-9.15l.51-12.64c-9 4.14-17.49-1.65-18.93-8.59-.99-4.62-.48-8.96 3.11-12.44.6-.59 1.11-1.26 1.66-1.9 1.45-8.71.44-16.71-7-23 1.11-.64 2.11-.27 3-.44-9.14-2.29-20.22 4-23.89 13.5a21 21 0 00-1.51 8.89c9.06-4.2 17.18.81 19.42 8.45a13.06 13.06 0 01-12.1 16.47 23.47 23.47 0 01-7-1l.51 13.15a54.26 54.26 0 01.53 8.7l.07 2c0 .45 0 .9-.07 1.37a51.67 51.67 0 011 8.4 1.43 1.43 0 010-.22v.22c.22 4.8.36 9.6.7 14.39.14 2-.58 3-2.4 3.49-2.16.6-4.29 1.33-6.43 2A52.62 52.62 0 0045 120c3-.07 4.44-1.42 4.74-4.45.18-1.93.35-3.86.53-5.79.19-3.49.39-7 .59-10.49h.43v10c0 1.51.08 3 .18 4.54.44 7 .65 7-6.37 8.42a2.76 2.76 0 00-.47.2q.63.41 1.26.84a.42.42 0 01.31.21c1.67 0 3.36.15 5 0 3-.29 4.43-1.9 4.65-4.89.13-1.91.33-3.83.5-5.75a26.17 26.17 0 01.59-7.54v-1.38-.1c-.32.08.21-.27.26.41l.18-.9v11.55c0 1.36.08 2.7.1 4.06 0 4.9-.26 5.34-4.93 6.74-1.29.39-2.63.62-3.91 1-.92.32-2.1.14-3 1.23 3.8-.14 7.36.29 10.89-.29s5.12-2.07 5.87-5.64c.55-2.62.78-5.32 1.78-8a3.81 3.81 0 01.29.57c.5 2.48 1 5 1.5 7.45.68 3.47 2.09 4.94 5.61 5.56s7.34.2 11.12.29c-.54-.93-1.39-.77-2.07-1-2.35-.69-4.74-1.27-7-2.06a3.68 3.68 0 01-2.85-3.72v-16.92h.68c.24 3.54.53 7.06.72 10.6.43 8.18 1.4 9.07 9.61 8.62.46-.78 1.59-.17 2-1-2 0-3.69-.95-5.5-1.56a2.33 2.33 0 01-1.56-2.38c.09-5.8-.13-11.61.65-17.39.47 4.85.85 9.71 1.22 14.56.18 2.27 1.2 4 3.58 4.2 3.22.22 6.45 0 9.68 0a34.51 34.51 0 00-5.2-1.92c-4-1.26-3.92-1.27-3.56-5.28zM58.3 30.09A3 3 0 0155.36 33c-1.73 0-3-1-3.06-3.2a2.85 2.85 0 012.91-2.8h.13a2.74 2.74 0 012.96 3.09zm13.24 48.2c0 4.46-3.41 8.35-7.31 8.34-3.68 0-7.43-4.35-7.3-8.45-.2-1.21-.41-2.44-.68-4.13 2.63 1.79 4.84 3.63 7.81 3.7s5.41-1.5 7.89-3.32c.53 1.46-.81 2.59-.41 3.86z" fill="#fe733e"/>
    <path id="path22" d="M43.63 87.94c-.22-.08-.43-.18-.64-.25a29.3 29.3 0 01-8.05-5.24C26.19 74.89 20.41 65.43 19 54c-1.58-13.05 1.34-25.09 10-35.44A44.37 44.37 0 0159.21 2.32C72.64.92 84.71 4.67 94.87 14a44.39 44.39 0 0114.68 28.59A43.43 43.43 0 01104 69.85c-4.49 7.66-10.46 13.87-18.54 17.8l-.66.32a2.75 2.75 0 000 2.54 3.41 3.41 0 01.57-.5C97.49 83.56 106 74 109.91 60.6c.34-1.13.87-1.69 2.13-1.56 1.72.18 2.19-1 2.19-2.4V40.15c0-1.18-.29-2.48-1.51-2.61-2.25-.26-2.53-1.9-3-3.5a43.8 43.8 0 00-15.29-23C78.92-1.13 61.87-3.34 44 4.91 30.67 11 22.2 21.63 18.36 35.83c-.24.89-.13 1.93-1.63 1.62-2.13-.44-2.94.82-3 2.71v16.49c0 1.83.93 2.8 2.69 2.37s2 .4 2.33 1.64a43.67 43.67 0 007.07 14.48A44.87 44.87 0 0043.71 90c0-.68-.05-1.38-.08-2.06z" fill="#b5d2f3"/>
    <path id="path28" d="M43.64 91.36C42 95.93 37.67 95.82 34 97c2.77.72 5.6 1.55 8.37 1.07 1.65-.28 2 .31 2.22 1.29v.23a1.74 1.74 0 00.05.22 51.67 51.67 0 00-1-8.45z" fill="#fe684b"/>
    <path id="path30" d="M84.31 97.46c3.53 1.6 6.85 0 10.26-.47-3.33-1.41-7.64-.69-9.39-5-1.86 1.59-.42 3.69-.87 5.47z" fill="#fe6446"/>
    <path id="path32" d="M57.37 103.32l-.18.89c-.06.36-.14.71-.21 1.07a26.26 26.26 0 00-.59 7.55c.83.43.22 1.57 1 2z" fill="#fed6c8"/>
    <path id="path34" d="M50.9 99.29c-.2 3.49-.39 7-.59 10.49l1-.52v-10z" fill="#feebe3"/>
    <path id="path36" d="M40.54 123.46h5.69a2.82 2.82 0 01-.31-.21l-1.25-.83a8.06 8.06 0 00-4.13 1.04z" fill="#fe9166"/>
    <path id="path38" d="M81.78 123.46h5.53a5.31 5.31 0 00-3.51-1c-.43.85-1.57.23-2.02 1z" fill="#fe8f64"/>
    <path id="path40" d="M85.44 87.64c8.08-3.92 14-10.13 18.54-17.8a43.43 43.43 0 005.58-27.31 44.3 44.3 0 00-14.68-28.59C84.72 4.67 72.65.91 59.22 2.32a44.35 44.35 0 00-30.16 16.19C20.35 28.86 17.44 40.9 19 54c1.43 11.44 7.2 20.89 16 28.45a29.53 29.53 0 008 5.24l.64.25a53.12 53.12 0 00-.52-8.64l-.66-.47a49.42 49.42 0 01-6.08-5.58c-.58-.59-1.31-1.1-1.31-2.07-1.3.94-2.24.29-3-.75a35.07 35.07 0 01-7.13-19.38c-.31-6.37.27-12.56 2.94-18.52a39 39 0 0115.67-17.65c1.19-.73 1.88-.08 2.7.46a2.77 2.77 0 002-1l-.1-.24c-.7-1.48-.74-3.17 1-3.57s2.68 1 2.69 2.78c12.75-4.19 24.6-2.49 35.3 5.68a35.59 35.59 0 0114 24.27c1.81 12.84-2.53 23.48-11.48 32.48a15 15 0 01-3.59 2.73c-.23.13-.46.24-.69.35a47.48 47.48 0 00-.57 9.18z" fill="#e2f5fc"/>
    <path id="path42" d="M89.62 75.74c8.94-9 13.28-19.64 11.48-32.48A35.55 35.55 0 0087.12 19c-10.7-8.17-22.57-9.85-35.3-5.68h-.07c-1 .64-1.78 2-3.23 1.15l-.25-.16a2.79 2.79 0 01-2 1c0 .13-.08.26-.12.39-.92 2.56-3.66 3.24-5.5 4.78a35.16 35.16 0 00-10.91 15.29 34.78 34.78 0 001.9 28.56 29.56 29.56 0 002.7 4.27 3.61 3.61 0 01.71 2.57c0 1 .72 1.48 1.31 2.07a49.42 49.42 0 006.08 5.58l.66.47q-.24-6.57-.51-13.15c-3.81-2.5-6.61-5.7-7.09-10.46-.61-5.87 1.86-10.21 6.66-13.38h.07a21 21 0 011.51-8.89c3.67-9.53 14.75-15.79 23.89-13.5a21.15 21.15 0 0114.61 8.83 20.82 20.82 0 014 13.55c3.44 2.61 6.22 5.67 6.67 10.2.6 6.1-2 10.55-7.12 13.65v.06l-.51 12.64c.25-.11.48-.22.7-.34a14.88 14.88 0 003.61-2.75z" fill="#cdecf6"/>
    <path id="path44" d="M74.78 41.78c3.78-1.86 7.45-.86 11.09.35l.41.13a20.74 20.74 0 00-4-13.55 21.15 21.15 0 00-14.61-8.83c-.91.18-1.91-.2-3 .44 7.45 6.24 8.47 14.24 7 23l.68-.32c.79-.43 1.65-.81 2.43-1.22z" fill="#fe6b3c"/>
    <path id="path46" d="M93 52.47c-.45-4.53-3.23-7.59-6.67-10.2l-.4-.13c-3.66-1.2-7.32-2.21-11.1-.34-.82.4-1.65.79-2.48 1.17l-.68.32c-.55.63-1.06 1.31-1.65 1.9-3.57 3.48-4.07 7.79-3.12 12.35 1.44 6.95 9.92 12.74 18.94 8.62C91 63 93.58 58.55 93 52.47zM79.48 64.65A10.45 10.45 0 1190 54.31a10.23 10.23 0 01-10.18 10.3z" fill="#fe6142"/>
    <path id="path48" d="M42.15 42.3c-4.8 3.16-7.27 7.51-6.66 13.38.48 4.76 3.28 8 7.09 10.45a23.36 23.36 0 007 1 13.07 13.07 0 0012.1-16.47c-2.24-7.64-10.37-12.65-19.42-8.45h-.09zm6.57 22.35a10.5 10.5 0 11-.27-21h.12a10.5 10.5 0 01.4 21z" fill="#fe6143"/>
    <path id="path50" d="M58.32 79.15c-.41-.41-.71-1-1.39-1-.13 4.1 3.61 8.44 7.3 8.45 3.92 0 7.32-3.88 7.31-8.34-1.48.76-2.41 2.32-4.11 2.79-3.38.95-6.49.72-9.11-1.9z" fill="#070909"/>
    <path id="path52" d="M72 74.43c-2.48 1.82-4.85 3.37-7.89 3.32s-5.18-1.91-7.81-3.7c.28 1.69.48 2.91.68 4.13.68 0 1 .56 1.39 1 2.61 2.62 5.73 2.85 9.11 1.93 1.7-.47 2.63-2 4.11-2.79-.45-1.32.89-2.43.41-3.89z" fill="#fdfcfb"/>
    <path id="path54" d="M55.34 27a2.82 2.82 0 00-3 2.6 1.21 1.21 0 000 .19c0 2.25 1.33 3.23 3.06 3.21a3 3 0 002.9-2.9 2.73 2.73 0 00-2.96-3.1z" fill="#fea777"/>
    <path id="path56" d="M35.05 71.16a3.59 3.59 0 00-.71-2.57 32.67 32.67 0 01-2.7-4.27 34.74 34.74 0 01-1.9-28.56 35.16 35.16 0 0110.87-15.24c1.84-1.54 4.58-2.21 5.5-4.78a2.91 2.91 0 00.12-.39c-.83-.54-1.51-1.19-2.7-.46a39 39 0 00-15.67 17.65c-2.67 6-3.25 12.15-2.94 18.52a35.23 35.23 0 007.13 19.38c.76 1 1.71 1.69 3 .75z" fill="#fdfefe"/>
    <path id="path58" d="M51.74 13.36h.07c0-1.79-1-3.18-2.69-2.77s-1.67 2.09-1 3.57l.1.23.25.16c1.44.87 2.23-.52 3.23-1.14z" fill="#fbfdfe"/>
    <path id="path60" fill="#fff" d="M90 54.36a10.31 10.31 0 00-10-10.59h-.29a10.45 10.45 0 10-.35 20.89h.09A10.26 10.26 0 0090 54.71zM80 55.5a3 3 0 01-3.3-2.7 1.93 1.93 0 010-.34 3.2 3.2 0 013-3.39h.3a3.3 3.3 0 013.26 3.3C83 54.18 82 55.47 80 55.5z"/>
    <path id="path62" fill="#fff" d="M48.57 43.67a10.5 10.5 0 000 21h.12a10.5 10.5 0 00.1-21zm0 11.83a3 3 0 01-3.29-2.73v-.34a3.19 3.19 0 013-3.35h.31a3.26 3.26 0 013.22 3.3c-.24 1.87-1.25 3.1-3.23 3.12z"/>
    <path id="path64" d="M80 49.07a3.19 3.19 0 00-3.28 3.09v.3a3 3 0 003 3.06h.35c2 0 3-1.32 3.22-3.13A3.3 3.3 0 0080 49.07z" fill="#090b0b"/>
    <path id="path66" d="M48.6 49.08a3.18 3.18 0 00-3.32 3v.31a3 3 0 002.95 3.08 2 2 0 00.35 0c2 0 3-1.25 3.24-3.12a3.26 3.26 0 00-3.22-3.27z" fill="#090c0c"/>
</svg>
