<svg xmlns="http://www.w3.org/2000/svg" width="128" height="128">
    <path d="M10.509 54.716c-.246 0-.307-.122-.184-.306l1.288-1.657a.88.88 0 0 1 .675-.306h21.9c.245 0 .307.184.184.368L33.33 54.41a.935.935 0 0 1-.613.368zM1.245 60.36c-.245 0-.306-.122-.184-.306L2.35 58.4a.876.876 0 0 1 .674-.306H31a.282.282 0 0 1 .307.368l-.491 1.472a.538.538 0 0 1-.552.368zM16.091 66c-.245 0-.306-.184-.184-.368l.859-1.533a.815.815 0 0 1 .614-.369h12.269c.246 0 .368.185.368.43l-.117 1.476a.462.462 0 0 1-.43.43z" fill="#00add8"/>
    <g fill="#00add8">
        <path d="M79.77 53.612c-3.865.982-6.5 1.718-10.306 2.7-.921.246-.982.307-1.779-.613a8.208 8.208 0 0 0-2.885-2.332c-3.865-1.9-7.607-1.35-11.1.92a13.048 13.048 0 0 0-6.26 11.656 9.617 9.617 0 0 0 8.282 9.632 11.325 11.325 0 0 0 10.429-4.049c.552-.675 1.043-1.411 1.656-2.27h-11.84c-1.288 0-1.595-.8-1.165-1.841.8-1.9 2.27-5.092 3.128-6.687a1.657 1.657 0 0 1 1.534-.981H81.8c-.123 1.656-.123 3.313-.369 4.969A26.156 26.156 0 0 1 76.4 76.74a25.554 25.554 0 0 1-17.488 10.429 21.729 21.729 0 0 1-16.5-4.049 19.271 19.271 0 0 1-7.794-13.62 24.081 24.081 0 0 1 5.215-17.975A27.228 27.228 0 0 1 57.01 40.913c5.767-1.043 11.288-.368 16.257 3.006a19.23 19.23 0 0 1 7.117 8.65c.368.552.122.859-.614 1.043z"/>
        <path d="M100.076 87.537a23.01 23.01 0 0 1-14.969-5.4A19.244 19.244 0 0 1 78.482 70.3c-1.105-6.933.8-13.067 4.969-18.527 4.478-5.89 9.877-8.957 17.177-10.245 6.258-1.105 12.147-.491 17.484 3.128a19.1 19.1 0 0 1 8.65 13.681 23.682 23.682 0 0 1-7.055 20.8 28.108 28.108 0 0 1-14.723 7.852c-1.657.303-3.313.364-4.908.548zm14.6-24.784a17.975 17.975 0 0 0-.184-2.025 10.107 10.107 0 0 0-12.515-8.159 13.4 13.4 0 0 0-10.735 10.675 10.1 10.1 0 0 0 5.644 11.594 11.243 11.243 0 0 0 10-.368c4.846-2.515 7.484-6.441 7.791-11.717z"/>
    </g>
</svg>
