<svg xmlns="http://www.w3.org/2000/svg" width="128" height="128">
    <path d="M89.92 102.908a12.341 12.341 0 0 1-8.571 3.437h-.276l-.248.027a12.22 12.22 0 0 1-8.5-3.45 11.238 11.238 0 0 1-3.658-8.378 10.58 10.58 0 0 1 .745-3.865 26.734 26.734 0 0 1 1.56-3.367c.594-1.022 1.532-2.485 2.664-4.141l6.583-10.089 2.568-3.8 5.438 3.8-6.834 10.144a3.629 3.629 0 0 1 1.076-.152h.207a10.851 10.851 0 0 1 7.384 3.2 10.3 10.3 0 0 1 3.547 8.144 11.21 11.21 0 0 1-3.685 8.49zM86.083 94.6a4.756 4.756 0 0 0-1.559-3.547 4.982 4.982 0 0 0-3.617-1.56h-.041a5.1 5.1 0 0 0-4.886 3.477 5.459 5.459 0 0 0-.262 1.629 5.151 5.151 0 0 0 5.148 5.162v-.041a5.22 5.22 0 0 0 5.217-5.12zm-33.608.9l7.467 10.849h7.867l-8.792-12.233L66.8 83.3l-5.16-3.593-2.291 3.022-6.984 9.871V72.764l-6.984-5.7v38.729h6.984V95.482z" fill="#fff"/>
    <path d="M101.762 1.891L128 126.109H0l42.607-90.872L68.279 54.1zM89.92 102.908a11.21 11.21 0 0 0 3.685-8.488 10.3 10.3 0 0 0-3.547-8.144 10.851 10.851 0 0 0-7.384-3.2h-.207a3.629 3.629 0 0 0-1.076.152l6.832-10.144-5.438-3.8-2.568 3.8-6.583 10.087c-1.132 1.656-2.07 3.119-2.664 4.141a26.734 26.734 0 0 0-1.56 3.367 10.58 10.58 0 0 0-.745 3.865 11.238 11.238 0 0 0 3.658 8.378 12.22 12.22 0 0 0 8.5 3.45l.248-.027h.276a12.341 12.341 0 0 0 8.573-3.437zm-22.111 3.437l-8.792-12.229L66.8 83.3l-5.16-3.593-2.291 3.022-6.984 9.871V72.764l-6.984-5.7v38.729h6.984V95.482l.11.014 7.467 10.849zm13.1-16.853h-.041a5.1 5.1 0 0 0-4.888 3.478 5.459 5.459 0 0 0-.262 1.629 5.151 5.151 0 0 0 5.148 5.162v-.041a5.22 5.22 0 0 0 5.217-5.12 4.756 4.756 0 0 0-1.559-3.547 4.982 4.982 0 0 0-3.617-1.561z" fill="#7d64ff"/>
</svg>
