<svg xmlns="http://www.w3.org/2000/svg" width="128" height="128" fill="white">
    <path d="M87.225 70.366a17.39 17.39 0 0 0-12.779 5.59l-8.12-4.688A22.013 22.013 0 0 0 67.559 64a22.013 22.013 0 0 0-1.233-7.268l8.12-4.688a17.43 17.43 0 1 0 12.779-29.279A17.422 17.422 0 0 0 70.469 45l-8.163 4.713a22.114 22.114 0 0 0-12.814-7.449v-7.873A17.433 17.433 0 0 0 45.449 0a17.433 17.433 0 0 0-4.042 34.391v7.876A22.142 22.142 0 0 0 23.34 64a22.142 22.142 0 0 0 18.067 21.733v7.876A17.433 17.433 0 0 0 45.449 128a17.433 17.433 0 0 0 4.043-34.391v-7.876a22.114 22.114 0 0 0 12.814-7.449L70.469 83a17.422 17.422 0 0 0 16.756 22.238 17.435 17.435 0 1 0 0-34.869zm0-38.617a8.451 8.451 0 1 1-8.45 8.451 8.451 8.451 0 0 1 8.45-8.451zM37 17.435a8.451 8.451 0 1 1 8.45 8.45 8.45 8.45 0 0 1-8.45-8.45zm16.9 93.13a8.451 8.451 0 1 1-8.451-8.45 8.451 8.451 0 0 1 8.451 8.45zM58.125 64a12.676 12.676 0 0 1-25.352 0 12.676 12.676 0 0 1 25.352 0zm29.1 32.251a8.451 8.451 0 1 1 8.451-8.451 8.451 8.451 0 0 1-8.451 8.451z"/>
</svg>
