<svg xmlns="http://www.w3.org/2000/svg" width="128" height="128">
  <path fill="#009639" d="M8.57,96c.58,1.01,1.42,1.84,2.43,2.41l49.69,28.69h0c2.04,1.2,4.57,1.2,6.6,0l49.7-28.69c2.06-1.17,3.32-3.35,3.3-5.72V35.31h0c.02-2.37-1.25-4.55-3.3-5.72L67.3,.9h0c-2.04-1.2-4.56-1.2-6.6,0h0S11.01,29.59,11.01,29.59c-2.06,1.17-3.32,3.35-3.3,5.72h0v57.38c-.01,1.16,.29,2.3,.87,3.31"/>
  <path fill="#fff" d="M48.09,85.85c0,3.53-2.86,6.39-6.39,6.39s-6.39-2.86-6.39-6.39h0s0-43.87,0-43.87c.23-3.67,3.4-6.46,7.07-6.22,.06,0,.12,0,.18,.01,3.33-.04,6.52,1.38,8.71,3.9l1.93,2.31,26.7,31.95v-31.77h0c0-3.53,2.86-6.39,6.39-6.39,3.53,0,6.39,2.86,6.39,6.39h0s0,0,0,0v43.87c-.24,3.67-3.41,6.46-7.08,6.22-.06,0-.12,0-.18-.01-3.33,.04-6.52-1.38-8.71-3.9l-28.63-34.26v31.77h0Z"/>
</svg>