<svg xmlns="http://www.w3.org/2000/svg" width="128" height="128">
    <path fill="#eaa942" d="M126.57 40.94a4.31 4.31 0 000-6.41l-33-33a4.31 4.31 0 00-6.52 0C84.25 4.22 81.5 7 78.74 9.75a4.06 4.06 0 00-1.28 3 4.32 4.32 0 001.43 3.34q16.5 16.47 33 33a4.34 4.34 0 006.52 0q4.09-4.04 8.16-8.15zM77.61 65.9a14 14 0 1013.9 14 13.85 13.85 0 00-13.9-14zm-.06 20.87a6.86 6.86 0 01-6.87-7 7 7 0 016.93-6.94 7.09 7.09 0 016.94 7 7 7 0 01-7 6.94zM22.81 100.68a3.84 3.84 0 00-5.38 0c-2 2-4 3.94-5.93 5.93-1 1-2 2.06-3.09 3.24-1-1-1.7-1.85-2.51-2.62a3.47 3.47 0 10-4.9 4.98q7.41 7.41 14.81 14.79a3.48 3.48 0 004.64.22 3.43 3.43 0 00.75-4.51 8.06 8.06 0 00-1.05-1.22c-.6-.63-1.22-1.25-1.86-1.9l.68-.71c2.73-2.73 5.46-5.44 8.17-8.18a3.86 3.86 0 00.15-5.55q-2.22-2.26-4.48-4.47z"/>
    <path fill="#4e60a5" d="M78.87 26a4.35 4.35 0 00-6.53 0l-18.8 18.8a4.37 4.37 0 000 6.23l11.14 11.14c.19.19.39.35.57.52a21.47 21.47 0 0127.44 2.23c.2-.18.37-.32.52-.48l8.86-8.85a4.37 4.37 0 000-6.44Q90.47 37.56 78.87 26zM60 67.36q-3.35-3.36-6.72-6.71a4.18 4.18 0 00-6.1.36L32.8 75.39c-3.25 3.25-6.51 6.48-9.74 9.74a4.16 4.16 0 000 6.06q5.82 5.81 11.6 11.56a33.34 33.34 0 002.7 2.62c1.76 1.39 4 1 5.88-.82l14.64-14.63.62-.67a21.56 21.56 0 011.77-21.56c-.11-.14-.18-.24-.27-.33z"/>
</svg>
