<svg xmlns="http://www.w3.org/2000/svg" width="128" height="128">
    <path d="M42.43 6c-.074-1.673-.2-2.776 7-1.494C61.705 1.69 67.661-.6 81.97 1.5 93.3-1.485 105.874.074 114.434 5.409c8.153 5.08 10.569 9.991 10.888 22a86.009 86.009 0 0 1-1.958 11.3c-.759-.023-1.214-2.143-1.973-2.166.062-3.155 1-6.8.793-9.95-.107-1.608-.443-3.259-.718-5.1a16.585 16.585 0 0 0-1.193-4.2C113.762 2.463 94.992.968 82.366 5.1a57.707 57.707 0 0 0-10.642-.608c-10.037.14-15.156 2.155-22.353 3.762" fill="#191919"/>
    <path d="M114.383 74.6c2.683-.778 6.36-2.253 7.52-2.182 5.725.35 4.835 6.029 2.841 9.757-2.92 5.461-7.85 8.033-13.675 9-3.369.556-6.819.615-10.622.931-.787 5.678-1.726 11.225-2.291 16.81-1.011 9.994-6.1 16.221-16.075 18.227l-11.263-3.328C87.71 125.3 93.26 120.87 95.38 104.36c.672-5.239 1.59-10.445 2.454-16.045 9.509-.868 20.032.685 25.046-12.177h-8.506q-.018-.771.009-1.538zM47.1 4.141c-1.555.62 1.381 2.4-.174 3.017A67.847 67.847 0 0 0 31.2 4.872c-16.332-.2-25 7.361-25.615 23.6-.299 7.749 1.836 26.269 7.215 38.418.392.885 3.626 14.62 3.016 15.371C6.168 68.489.632 34.812 1.918 24.622 3.744 10.164 12.3 1.57 26.808 1.115 33.532.9 40.33 3.059 47.1 4.141zM121.417 35.222c.3-1.779 1.635-2.3 2.251 1.4-.369 5.548-6.64 24.159-12.537 37.3-1.212 2.7.7-2.393-.128.456l-4.3-1.767q4.89-11.148 9.782-22.295c1.638-4.592 4.396-11.959 4.932-15.094z"/>
    <path d="M65.382 119.527c-.418.958-1.4 1.556-2.1 2.334l-.017-.025-1.479-1.967a15.623 15.623 0 0 1-2.155-4.107c-1.048-5.368-1.082-20.126-1.082-20.126s-5.022 1.3-2.91-.642c-.046-.444-.383-1.254.058-1.324 1.3-.2 3.433-2.122 5.436-3.361.808 9 .392 19.558 2.29 25.5" fill="#121212"/>
    <path d="M25.38 94.488C11.788 84.5 9.75 65.656 6.717 57.354l1.907-2.172c2.982 8.358 6.6 20.529 14.065 32.44-.584.669 3.275 6.197 2.691 6.866z"/>
    <path d="M15.817 82.261l1.753-2c0 .2 2.754 4.211 4.234 6.242 3.4 4.664 5.618 9.743 16.609-.144.016.676-3.486 5.047-3.47 5.724-6.4 3.932-9.1 4.033-13.338-.648-2.39-2.644-3.888-6.09-5.788-9.174zM63.287 121.861l2.1-2.334c.441.62 3.173 3.832 5.436 4.28 4.548.9 7.508 2.219 11.263 3.328-7.123 1.281-14.135 2.188-18.799-5.274z"/>
    <path d="M61.138 90.309c.4-.2-4.266 5.646-4.707 5.719-11.506 1.91-17.364-1.3-17.364-1.3-1.3-2.3 2.427-2.891 3.319-2.594 4.408 1.466 7.741 3.608 18.752-1.825z" fill="#070707"/>
    <path d="M106.707 72.606c1.432.589 2.562.67 3.994 1.259 1.127.074 2.626.766 5.154.3-.017.514 9.365 1.158 7.455 1.81-14.076 1.79-15.53 1.2-19.307.825z"/>
    <path d="M42.386 92.133c-.781.524-.7 3.043-2.083 2.926-2.156-.183-3.66-2.438-5.36-2.98l-.047-2.03 2.2-2.1 2.892 1.822a7.332 7.332 0 0 0 2.398 2.362z" fill="#020202"/>
    <path d="M8.624 55.182c.358.894-1.271 1.448-1.907 2.172l-.549-3.246 1.61-1.98a10.916 10.916 0 0 0 .846 3.054z" fill="#070707"/>
    <path d="M61.791 119.869l1.479 1.967z" fill="#282828"/>
    <path d="M37.094 87.949l9.485-11.464 7.833 2.732c-3.22 1.9-5.076 3.316-7.165 4.149-3.25 1.3-7.919.746-7.261 6.405z"/>
    <path d="M97.612 72.783c-1.554 6.137-2.939 10.482-3.712 14.934a152.523 152.523 0 0 0-2.085 16.816c-.973 16.32-13.462 19.5-20.586 15.5-13.023-7.294.48-28.113-6.355-40.7-1.191-2.193-4.1-3.763-6.535-6 4.178-8.22 6.392-16.874 5.277-26.308-1.427-12.068-5.843-15.271-17.6-12.178-.911.24-2.124.825-3.028 1.108C42.8 23.247 49.427 11.2 60.831 8.59c15.4-3.524 32.358 6.783 38.225 23.108-4.218 1.529-8.013 1.873-10.871 4.921-5.307 5.657 4.965 25.546 9.427 36.164z" fill="#2e6093"/>
    <path d="M28.763 88.437c-1.739-.488-5.652-5.1-7.925-9.532-6.723-13.093-9.271-29.948-11.526-43.493C6.166 16.514 18.937 5.151 37.683 8.793c2.76.536 5.457 1.4 8.654 2.229-10.3 32.276-12.686 48.3-3.924 64.483-2.691 3.042-10.94 14.47-13.65 12.932z" fill="#2e6094"/>
    <path d="M118.468 25.236c.11 7.094-1.711 14.162-3.8 20.942-2.4 7.772-6.616 14.862-9.932 22.311 0-10.923.51-21.5-.145-32.008-.648-10.416-7.238-17.832-14.87-24.276A66.894 66.894 0 0 0 84.1 8.387c16.766-4.51 34.149 2.594 34.368 16.849z" fill="#2d5f93"/>
    <path d="M45.1 88.707L60 78.905c.414 1.826 1.624 3.915 1.04 5.164-2.197 4.683-7.167 6.009-15.94 4.638z" fill="#4874a1"/>
    <path d="M117.384 80.712c-6.689 5-11.926 5.333-18.393 4.111l.376-5.808c12.143 2.2 12.818 1.46 16.07 1.617 1.355.086 1.947.08 1.947.08z" fill="#3f6d9d"/>
    <path d="M56.1 37.043c-5.353-3.2-12.978 1.7-13.326 1.841-.576 6.647-1.315 13.8-1.68 19.391-.557 8.506 3.2 13.272 12.566 15.811C59.7 63.878 65.267 45.93 56.1 37.043zm-2.32 7.633a2.788 2.788 0 1 1 2.788-2.788 2.788 2.788 0 0 1-2.788 2.788z" fill="#2c5f93"/>
    <path d="M91.7 38.478a17.864 17.864 0 0 0-2.131 7.4c.235 6.012 4.872 14.434 10.621 20.271V36.1c-4.831 0-7.16.732-8.49 2.378zm3.177 6.2a2.788 2.788 0 1 1 2.788-2.788 2.788 2.788 0 0 1-2.793 2.786z" fill="#406e9d"/>
</svg>
