<svg xmlns="http://www.w3.org/2000/svg" width="128" height="128">
    <path fill="#f26e7e" d="M24.15 71.25c4.73-2.73 4.74-11.58 0-19.76S11.77 38.89 7 41.62 2.3 53.2 7 61.39 19.41 74 24.15 71.25zm-17.1 7.66C2.31 81.64 2.31 90.49 7 98.67s12.39 12.6 17.13 9.87 4.74-11.58 0-19.77-12.35-12.6-17.08-9.86zm49.36 11c4.73-2.74 4.74-11.59 0-19.77S44 57.54 39.3 60.27s-4.74 11.59 0 19.77 12.37 12.6 17.11 9.87zm.02 17.52c-4.72-8.19-12.43-12.6-17.12-9.87s-4.74 11.58 0 19.76 12.39 12.6 17.13 9.87 4.72-11.58-.01-19.76z"/>
    <path fill="#8a3391" d="M88.71 97.54c-4.74-2.73-12.4 1.68-17.13 9.87s-4.71 17 0 19.76 12.4-1.68 17.13-9.86 4.73-17.04 0-19.77zM71.58 89.9C76.32 92.63 84 88.21 88.71 80s4.71-17 0-19.77-12.42 1.77-17.15 9.9-4.71 17.03.02 19.77zM121 78.92c-4.73-2.73-12.4 1.68-17.12 9.87s-4.72 17 0 19.76 12.41-1.68 17.13-9.87 4.69-17.03-.01-19.76zm-17.16-7.65c4.73 2.74 12.4-1.68 17.12-9.86s4.72-17 0-19.77-12.4 1.69-17.12 9.87-4.74 17.03 0 19.76z"/>
    <path fill="#f7bf2a" d="M64 19.8c9.44 0 17.1-4.44 17.1-9.9S73.43 0 64 0 46.88 4.43 46.88 9.9s7.66 9.9 17.12 9.9z"/>
    <ellipse fill="#f7bf2a" cx="31.73" cy="28.5" rx="17.11" ry="9.9"/>
    <path fill="#f7bf2a" d="M64 37.25c-9.45 0-17.11 4.43-17.11 9.89S54.54 57 64 57s17.1-4.43 17.1-9.9-7.67-9.85-17.1-9.85z"/>
    <ellipse fill="#f7bf2a" cx="96.28" cy="28.5" rx="17.11" ry="9.9"/>
</svg>
