<svg xmlns="http://www.w3.org/2000/svg" width="128" height="128">
    <circle fill="#61DAFB" cx="64" cy="63.97" r="11.34"/>
    <path fill="#61DAFB" d="M127.64 63.98c0-8.92-10.46-16.64-26.73-21.31 4.09-16.42 2.63-29.34-5.09-33.8C88.08 4.41 76.17 9.6 64 21.36 51.83 9.61 39.92 4.43 32.19 8.87c-6.44 3.72-8.81 13.13-6.67 26.49.38 2.37.89 4.81 1.53 7.33C10.8 47.35.36 55.07.36 63.98S10.8 80.61 27.04 85.27c-.64 2.51-1.15 4.96-1.53 7.33-2.14 13.36.23 22.77 6.67 26.49 1.9 1.1 4.05 1.64 6.41 1.64 5.64 0 12.46-3.1 19.86-9.11 1.85-1.5 3.7-3.16 5.55-4.95 1.85 1.79 3.7 3.45 5.54 4.95 7.4 6.01 14.22 9.11 19.86 9.11 2.36 0 4.51-.54 6.41-1.64 6.44-3.71 8.81-13.12 6.67-26.49-.38-2.37-.89-4.82-1.53-7.33 16.24-4.67 26.68-12.39 26.68-21.29zM89.42 12.77c1.38 0 2.6.29 3.63.88 5.01 2.89 6.1 13.36 2.52 27.64-5.21-1.19-10.9-2.1-16.95-2.66-3.51-4.95-7.13-9.43-10.77-13.34 8.41-8.14 16.2-12.52 21.56-12.52zm-7.68 61.44c-1.97 3.4-4.03 6.68-6.15 9.8-3.71.28-7.57.43-11.58.43s-7.87-.15-11.58-.43c-2.13-3.12-4.19-6.4-6.15-9.8-1.97-3.41-3.78-6.83-5.42-10.24 1.64-3.41 3.45-6.83 5.42-10.24 2-3.47 4.07-6.74 6.16-9.81 3.7-.28 7.56-.43 11.57-.43s7.87.15 11.58.43c2.09 3.07 4.15 6.34 6.16 9.81 1.96 3.4 3.77 6.83 5.42 10.23-1.61 3.35-3.41 6.77-5.42 10.24zm8.35-3.74c1.56 3.69 2.9 7.33 4.01 10.86-3.54.8-7.36 1.47-11.42 1.98 1.32-2.06 2.61-4.17 3.86-6.33 1.26-2.18 2.44-4.35 3.56-6.51zM64.01 98.73c-2.51-2.73-4.99-5.72-7.42-8.92 2.43.11 4.9.17 7.42.17s4.99-.06 7.42-.17c-2.42 3.2-4.91 6.19-7.42 8.92zM45.34 83.31c-4.06-.51-7.88-1.18-11.42-1.98 1.11-3.53 2.45-7.17 4.01-10.86 1.13 2.17 2.31 4.35 3.56 6.51s2.54 4.27 3.86 6.33zm-7.41-25.83c-1.56-3.69-2.9-7.33-4.01-10.86 3.54-.8 7.36-1.47 11.42-1.98-1.31 2.05-2.6 4.16-3.86 6.33a166.72 166.72 0 00-3.56 6.51zm26.08-28.23c2.46 2.66 4.95 5.63 7.42 8.89-2.43-.11-4.9-.17-7.42-.17s-4.98.06-7.41.17c2.47-3.26 4.96-6.23 7.42-8.89zm22.52 21.72a166.02 166.02 0 00-3.86-6.33c4.06.51 7.87 1.18 11.4 1.98-1.08 3.46-2.4 7.1-3.99 10.86a166.72 166.72 0 00-3.56-6.51zM30.98 34.48c-1.73-10.78-.28-18.37 3.97-20.82 1.03-.59 2.25-.88 3.63-.88 5.36 0 13.15 4.38 21.56 12.52-3.64 3.92-7.26 8.39-10.77 13.35-6.06.56-11.75 1.47-16.97 2.66-.59-2.34-1.07-4.62-1.42-6.82zM5.9 63.98c0-5.78 8.51-11.95 22.65-15.99 1.61 5.18 3.69 10.55 6.2 15.99-2.5 5.44-4.59 10.82-6.2 15.99C14.41 75.93 5.9 69.76 5.9 63.98zm49.07 43.34c-8.47 6.88-15.76 9.42-20.02 6.98-4.25-2.45-5.7-10.05-3.97-20.82.35-2.2.83-4.48 1.42-6.82 5.22 1.2 10.91 2.1 16.97 2.66 3.47 4.9 7.09 9.41 10.78 13.39a79.602 79.602 0 01-5.17 4.62zm42.06-13.85c1.72 10.78.28 18.37-3.97 20.83-4.24 2.45-11.55-.09-20.02-6.98a76.76 76.76 0 01-5.17-4.62c3.69-3.99 7.31-8.49 10.78-13.39 6.05-.56 11.75-1.47 16.97-2.66.59 2.34 1.07 4.62 1.42 6.82zm2.44-13.5c-1.61-5.18-3.69-10.56-6.2-16 2.53-5.51 4.6-10.88 6.17-15.99 14.16 4.04 22.67 10.22 22.67 16s-8.51 11.95-22.64 15.99z"/>
</svg>
