<svg xmlns="http://www.w3.org/2000/svg" width="128" height="128">
    <g fill="#e01e5a">
        <path d="M26.985 80.9a13.442 13.442 0 1 1-13.442-13.438h13.442zM33.706 80.9a13.442 13.442 0 1 1 26.883 0v33.6a13.442 13.442 0 0 1-26.883 0z"/>
    </g>
    <g fill="#36c5f0">
        <path d="M47.147 26.934a13.442 13.442 0 1 1 13.442-13.442v13.442zM47.147 33.757a13.442 13.442 0 1 1 0 26.883h-33.7a13.442 13.442 0 1 1 0-26.883z"/>
    </g>
    <g fill="#2eb67d">
        <path d="M101.015 47.2a13.442 13.442 0 1 1 13.442 13.44h-13.442zM94.294 47.2a13.442 13.442 0 1 1-26.883 0V13.492a13.442 13.442 0 0 1 26.883 0z"/>
    </g>
    <g fill="#ecb22e">
        <path d="M80.853 101.066a13.442 13.442 0 1 1-13.442 13.442v-13.442zM80.853 94.345a13.442 13.442 0 1 1 0-26.883h33.705a13.442 13.442 0 1 1 0 26.883z"/>
    </g>
</svg>
