<svg xmlns="http://www.w3.org/2000/svg" width="128" height="128">
  <path d="M128,0H0V128H128V0Zm-30.58,82.21s0-.02,0-.04c-.02,18.96-14.77,29.75-36.61,29.75-9.81,0-19.51-2.03-28.5-5.94v-25.11c8.82,4.79,19.81,8.37,28.5,8.37,5.88,0,9.78-1.53,9.78-6.39,0-12.65-40-7.92-40-37.06,0-18.59,14.57-29.71,35.91-29.71,8.69,0,17.38,1.28,26.13,4.79v24.79c-8.09-4.26-17.06-6.58-26.2-6.77-5.49,0-9.2,1.6-9.2,5.75,0,11.82,40.16,6.2,40.19,37.54,0,0,0-.02,0-.03v.06Z" fill="#625bf6" fill-rule="evenodd"/>
  <path d="M97.42,82.21s0-.02,0-.04c-.02,18.96-14.77,29.75-36.61,29.75-9.81,0-19.51-2.03-28.5-5.94v-25.11c8.82,4.79,19.81,8.37,28.5,8.37,5.88,0,9.78-1.53,9.78-6.39,0-12.65-40-7.92-40-37.06,0-18.59,14.57-29.71,35.91-29.71,8.69,0,17.38,1.28,26.13,4.79v24.79c-8.09-4.26-17.06-6.58-26.2-6.77-5.49,0-9.2,1.6-9.2,5.75,0,11.82,40.16,6.2,40.19,37.54,0,0,0-.02,0-.03v.06Z" fill="#fff" fill-rule="evenodd"/>
</svg>