<?xml version="1.0" encoding="UTF-8"?>
<svg version="1.1" xmlns="http://www.w3.org/2000/svg" width="144" height="144">
<path d="M0 0 C47.52 0 95.04 0 144 0 C144 47.52 144 95.04 144 144 C96.48 144 48.96 144 0 144 C0 96.48 0 48.96 0 0 Z " fill="#000000" transform="translate(0,0)"/>
<path d="M0 0 C4.60457855 3.54341557 8.76669658 7.15004486 12 12 C14.34509931 12.76488359 14.34509931 12.76488359 17.0625 13.25 C24.8746264 15.23630737 30.58313363 19.32462957 35.0625 26.0625 C38.34168571 32.7465545 38.37774818 40.65187729 36.1484375 47.6875 C32.39781683 55.2397702 25.88281899 59.81675076 18.01953125 62.484375 C15.90459903 63.02435769 13.85624257 63.32461233 11.6875 63.5625 C7.91821084 63.72749915 7.91821084 63.72749915 5 66 C2.87890625 66.265625 2.87890625 66.265625 0.5625 66.25 C-0.19933594 66.25515625 -0.96117188 66.2603125 -1.74609375 66.265625 C-4.21443018 65.9747292 -5.857686 65.22975656 -8 64 C-6.53966837 66.92066326 -5.60087013 68.67520533 -2.6875 70.25 C0.19514018 71.05445772 3.03707401 71.58656847 6 72 C4.84826645 74.46800047 3.95216435 76.04783565 2 78 C-1.99282096 78.86152153 -5.61445333 78.7142732 -9.265625 76.83203125 C-13.08035491 74.08401285 -16.05586827 71.37429638 -18 67 C-18 66.34 -18 65.68 -18 65 C-18.66 65 -19.32 65 -20 65 C-20.2475 65.721875 -20.495 66.44375 -20.75 67.1875 C-22.96977778 72.182 -25.91217278 75.85180628 -31 78 C-35.50509297 78.66203875 -38.81089827 78.87007444 -42.5625 76.125 C-44 74 -44 74 -44 72 C-42.7625 71.71125 -41.525 71.4225 -40.25 71.125 C-35.91470955 70.06492401 -35.91470955 70.06492401 -32 68 C-30.73195434 65.9664052 -30.73195434 65.9664052 -30 64 C-30.56589844 64.32484375 -31.13179687 64.6496875 -31.71484375 64.984375 C-34.20065719 66.08918097 -35.85951047 66.26829435 -38.5625 66.25 C-39.32691406 66.25515625 -40.09132812 66.2603125 -40.87890625 66.265625 C-43 66 -43 66 -46 64 C-48.0359432 63.80260938 -50.08047569 63.68783408 -52.125 63.625 C-60.14834105 63.08951561 -66.07522577 61.53077218 -71.5 55.375 C-75.80387317 49.89951691 -75.60517216 44.83230593 -75 38 C-73.47415033 32.68382311 -69.65297795 29.28228759 -65.23828125 26.15625 C-61.61567944 24.28488851 -58.02967048 24.01865588 -54 24 C-53.690625 22.2984375 -53.690625 22.2984375 -53.375 20.5625 C-50.97323608 11.12223349 -44.08726809 3.64129309 -35.8515625 -1.28515625 C-24.28500497 -7.28342679 -11.19387273 -6.7070725 0 0 Z " fill="#010102" transform="translate(91,34)"/>
<path d="M0 0 C4.60457855 3.54341557 8.76669658 7.15004486 12 12 C14.34509931 12.76488359 14.34509931 12.76488359 17.0625 13.25 C24.8746264 15.23630737 30.58313363 19.32462957 35.0625 26.0625 C38.34168571 32.7465545 38.37774818 40.65187729 36.1484375 47.6875 C32.39781683 55.2397702 25.88281899 59.81675076 18.01953125 62.484375 C15.90459903 63.02435769 13.85624257 63.32461233 11.6875 63.5625 C7.91821084 63.72749915 7.91821084 63.72749915 5 66 C2.87890625 66.265625 2.87890625 66.265625 0.5625 66.25 C-0.19933594 66.25515625 -0.96117188 66.2603125 -1.74609375 66.265625 C-4.21443018 65.9747292 -5.857686 65.22975656 -8 64 C-6.53966837 66.92066326 -5.60087013 68.67520533 -2.6875 70.25 C0.19514018 71.05445772 3.03707401 71.58656847 6 72 C4.84826645 74.46800047 3.95216435 76.04783565 2 78 C-1.99282096 78.86152153 -5.61445333 78.7142732 -9.265625 76.83203125 C-13.08035491 74.08401285 -16.05586827 71.37429638 -18 67 C-18 66.34 -18 65.68 -18 65 C-18.66 65 -19.32 65 -20 65 C-20.2475 65.721875 -20.495 66.44375 -20.75 67.1875 C-22.96977778 72.182 -25.91217278 75.85180628 -31 78 C-35.50509297 78.66203875 -38.81089827 78.87007444 -42.5625 76.125 C-44 74 -44 74 -44 72 C-42.7625 71.71125 -41.525 71.4225 -40.25 71.125 C-35.91470955 70.06492401 -35.91470955 70.06492401 -32 68 C-30.73195434 65.9664052 -30.73195434 65.9664052 -30 64 C-30.56589844 64.32484375 -31.13179687 64.6496875 -31.71484375 64.984375 C-34.20065719 66.08918097 -35.85951047 66.26829435 -38.5625 66.25 C-39.32691406 66.25515625 -40.09132812 66.2603125 -40.87890625 66.265625 C-43 66 -43 66 -46 64 C-48.0359432 63.80260938 -50.08047569 63.68783408 -52.125 63.625 C-60.14834105 63.08951561 -66.07522577 61.53077218 -71.5 55.375 C-75.80387317 49.89951691 -75.60517216 44.83230593 -75 38 C-73.47415033 32.68382311 -69.65297795 29.28228759 -65.23828125 26.15625 C-61.61567944 24.28488851 -58.02967048 24.01865588 -54 24 C-53.690625 22.2984375 -53.690625 22.2984375 -53.375 20.5625 C-50.97323608 11.12223349 -44.08726809 3.64129309 -35.8515625 -1.28515625 C-24.28500497 -7.28342679 -11.19387273 -6.7070725 0 0 Z M-44 11 C-48.00280065 16.37280683 -50 22.31910292 -50 29 C-50.56847656 28.96519531 -51.13695313 28.93039063 -51.72265625 28.89453125 C-57.18821472 28.70291735 -61.16116719 29.15362776 -66 32 C-70.14323803 37.23356383 -71.56497259 41.33332343 -71 48 C-68.8875286 52.30944165 -66.36927372 55.0599363 -62.08203125 57.3203125 C-58.13327411 58.6094002 -54.09765397 58.29681196 -50 58 C-49.67 56.35 -49.34 54.7 -49 53 C-47.515 52.505 -47.515 52.505 -46 52 C-45.71125 52.61875 -45.4225 53.2375 -45.125 53.875 C-44.06279958 56.13325765 -44.06279958 56.13325765 -42 58 C-37.73627642 58.5631333 -35.68689858 58.45306076 -32.0625 56.0625 C-29.26191398 51.90405409 -29.09902422 48.87962106 -30 44 C-30.88620995 41.71565123 -30.88620995 41.71565123 -32 39.5 C-34.20998657 34.96121038 -35.09976292 31.00063141 -34 26 C-31.91903154 22.1506196 -29.04733255 19.63378562 -25 18 C-18.70363613 17.18790617 -13.48728854 17.81737265 -8 21 C-5.49916659 23.18021374 -4.24195936 24.71786484 -3.62109375 28.0078125 C-3.38403717 32.3971828 -4.07051792 35.55834375 -6 39.5 C-8.20670512 44.02414097 -9.1091699 48.01355794 -8 53 C-5.56579582 56.50811779 -4.20657416 57.77376734 0 58.5625 C3.65706566 57.87680019 5.38806014 56.61193986 8 54 C8 53.34 8 52.68 8 52 C9.485 52.495 9.485 52.495 11 53 C11.495 55.475 11.495 55.475 12 58 C19.71787631 57.22821237 25.00766257 55.07176174 30 49 C32.65448895 44.0520326 34.21131974 38.58835746 33 33 C30.20287188 25.8371582 26.46647561 21.86918391 19.453125 18.79296875 C16.84256747 17.83959802 16.84256747 17.83959802 13.3125 17.75 C8.67803502 16.70068718 7.55269184 14.12169208 4.88671875 10.359375 C0.55246183 4.93931044 -5.38652496 1.81562482 -12 0 C-24.95052428 -1.31960318 -35.11834113 1.23428712 -44 11 Z " fill="#F6F6F9" transform="translate(91,34)"/>
<path d="M0 0 C4.60457855 3.54341557 8.76669658 7.15004486 12 12 C14.34509931 12.76488359 14.34509931 12.76488359 17.0625 13.25 C24.8746264 15.23630737 30.58313363 19.32462957 35.0625 26.0625 C38.34168571 32.7465545 38.37774818 40.65187729 36.1484375 47.6875 C32.40047043 55.23442688 25.83325957 59.87861409 17.96484375 62.54296875 C14.89868943 63.25616966 12.13541854 63.19596366 9 63 C9.66 59.7 10.32 56.4 11 53 C11.33 53 11.66 53 12 53 C12 54.65 12 56.3 12 58 C13.91789954 57.37879354 15.83427522 56.75288109 17.75 56.125 C19.35101563 55.60292969 19.35101563 55.60292969 20.984375 55.0703125 C25.98419583 53.53046172 25.98419583 53.53046172 29.125 49.75 C29.41375 48.8425 29.7025 47.935 30 47 C30.556875 45.6078125 30.556875 45.6078125 31.125 44.1875 C32.75731217 38.24121995 32.73414453 33.86269437 30.125 28.3125 C26.98174154 23.14219702 22.64576233 20.87304379 17 19 C15.80375 18.938125 14.6075 18.87625 13.375 18.8125 C8.49792791 17.63839005 7.07405668 14.5187701 4.18359375 10.5859375 C0.11957815 5.77309613 -5.72670419 2.08798857 -12 1 C-22.65154773 0.1816821 -31.33164771 1.07535327 -39.875 7.8125 C-46.19889412 13.78011839 -48.03600235 20.77204014 -50 29 C-50.88042969 29.08636719 -51.76085937 29.17273437 -52.66796875 29.26171875 C-59.8798772 30.03798702 -59.8798772 30.03798702 -66.1875 33.3125 C-69.52731344 38.26463716 -70.63551933 41.96256634 -70 48 C-67.5489847 52.9020306 -65.16156036 55.18389543 -60 57 C-56.67284824 57.50803814 -53.35925614 57.80747346 -50 58 C-50 56.35 -50 54.7 -50 53 C-48.02 52.505 -48.02 52.505 -46 52 C-46.33 52.66 -46.66 53.32 -47 54 C-47.33 54 -47.66 54 -48 54 C-48.07427838 57.34252724 -48.06546953 59.8035914 -47 63 C-54.75227826 63.47222 -61.40477506 63.49674428 -68 59 C-71.47869972 55.704776 -74.78328504 52.34123209 -75.23828125 47.42578125 C-75.39205763 40.9752668 -75.4698473 35.93571871 -71 31 C-65.82510353 25.86014797 -61.26899203 24.03365274 -54 24 C-53.690625 22.2984375 -53.690625 22.2984375 -53.375 20.5625 C-50.97323608 11.12223349 -44.08726809 3.64129309 -35.8515625 -1.28515625 C-24.28500497 -7.28342679 -11.19387273 -6.7070725 0 0 Z " fill="#E7E7E9" transform="translate(91,34)"/>
<path d="M0 0 C3.24108227 4.8616234 2.41055758 8.83245997 1.37109375 14.3203125 C-1.05964742 23.14723925 -4.50490469 27.01540936 -12.18603516 31.42358398 C-13.78226325 32.29795232 -15.39021093 33.15085734 -17 34 C-17.33 34.33 -17.66 34.66 -18 35 C-19.68183948 35.23287008 -21.3712416 35.41264166 -23.0625 35.5625 C-23.98160156 35.64628906 -24.90070313 35.73007813 -25.84765625 35.81640625 C-26.55792969 35.87699219 -27.26820312 35.93757813 -28 36 C-28.33 36.99 -28.66 37.98 -29 39 C-29.66 39 -30.32 39 -31 39 C-30.67 40.65 -30.34 42.3 -30 44 C-31.65 45.32 -33.3 46.64 -35 48 C-34.38722388 45.03824877 -33.74627478 43.61941217 -32 41 C-32.59167969 40.98582031 -33.18335937 40.97164062 -33.79296875 40.95703125 C-38.27141146 40.68671742 -40.451646 40.43644502 -44.0625 37.5625 C-46 35 -46 35 -46 33 C-45.15115234 33.24169922 -45.15115234 33.24169922 -44.28515625 33.48828125 C-41.93807777 34.01386635 -39.8398366 34.16717566 -37.4375 34.1875 C-36.67308594 34.20167969 -35.90867187 34.21585938 -35.12109375 34.23046875 C-32.69846497 34.1323375 -32.69846497 34.1323375 -30 32 C-27.80078125 31.47265625 -27.80078125 31.47265625 -25.3125 31.0625 C-17.13585551 29.51524558 -10.00496157 27.42777687 -4.8125 20.390625 C-1.18621455 14.15128092 -0.75307402 7.05511447 0 0 Z " fill="#23223D" transform="translate(129,65)"/>
<path d="M0 0 C0.66 0 1.32 0 2 0 C3.33203125 1.86328125 3.33203125 1.86328125 4.8125 4.3125 C7.17142645 7.94205592 8.85083821 10.38081491 13 12 C16.69523952 12.71923208 16.69523952 12.71923208 20 13 C19.67 13.99 19.34 14.98 19 16 C14.80390743 15.67722365 12.02892419 14.5305696 8.5 12.375 C5.68598007 10.76631861 4.27706647 10.01731665 1 9.8125 C-1.8864274 10.95504418 -3.71771308 12.2265522 -6.1875 14.0625 C-11.34221167 17.74820681 -15.85781873 17.61995848 -22 17 C-22.30550781 16.22011719 -22.61101563 15.44023438 -22.92578125 14.63671875 C-23.93012617 12.0328572 -23.93012617 12.0328572 -25.1875 9.8125 C-25.455625 9.214375 -25.72375 8.61625 -26 8 C-25.67 7.34 -25.34 6.68 -25 6 C-22.69 6 -20.38 6 -18 6 C-18 6.33 -18 6.66 -18 7 C-19.98 7 -21.96 7 -24 7 C-22.60910963 9.6816144 -22.60910963 9.6816144 -20 12 C-16.14143422 12.96836593 -12.64137104 12.72771724 -9 11.11328125 C-4.51726004 8.20529692 -2.32600143 4.74504292 0 0 Z " fill="#0F0E2E" transform="translate(71,99)"/>
<path d="M0 0 C1.99967852 2.99951778 2.63538908 5.42312885 3.42578125 8.89453125 C4.0112894 11.28254106 4.0112894 11.28254106 5.625 14.4375 C7.30225226 18.78310813 7.90233197 22.40240377 7 27 C4.9375 30.0625 4.9375 30.0625 2 32 C-1.5625 32.5625 -1.5625 32.5625 -5 32 C-7.4375 30.125 -7.4375 30.125 -9 28 C-9 27.34 -9 26.68 -9 26 C-9.99 26.33 -10.98 26.66 -12 27 C-12.33 28.65 -12.66 30.3 -13 32 C-14.98 32 -16.96 32 -19 32 C-19.33 31.34 -19.66 30.68 -20 30 C-18.35 30 -16.7 30 -15 30 C-14.67 28.35 -14.34 26.7 -14 25 C-11.875 24.1875 -11.875 24.1875 -9 24 C-7 25.66666667 -5 27.33333333 -3 29 C-0.19514873 28.9593157 -0.19514873 28.9593157 2 28 C2.91297308 23.02936879 2.91297308 18.97063121 2 14 C1.01 14.495 1.01 14.495 0 15 C-1.86122475 11.87656536 -2.1853192 9.9616974 -1.6875 6.375 C-1.58824219 5.59898438 -1.48898438 4.82296875 -1.38671875 4.0234375 C-1 2 -1 2 0 0 Z " fill="#0C0B1D" transform="translate(54,60)"/>
<path d="M0 0 C1.30062431 3.81516464 0.89369853 7.27561763 0.5625 11.25 C0.46066406 12.51328125 0.35882813 13.7765625 0.25390625 15.078125 C0.17011719 16.04234375 0.08632812 17.0065625 0 18 C2.31029577 18.77130988 2.31029577 18.77130988 5 19 C7.09139045 17.84368196 7.09139045 17.84368196 8.8125 16.0625 C9.41707031 15.49660156 10.02164063 14.93070313 10.64453125 14.34765625 C11.31548828 13.68056641 11.31548828 13.68056641 12 13 C14.4375 13.75 14.4375 13.75 17 15 C17.33 16.32 17.66 17.64 18 19 C20.64 18.34 23.28 17.68 26 17 C26.33 17.66 26.66 18.32 27 19 C25.75336669 19.50833591 24.50250613 20.00631145 23.25 20.5 C22.55390625 20.7784375 21.8578125 21.056875 21.140625 21.34375 C19 22 19 22 15 22 C14.505 19.525 14.505 19.525 14 17 C13.01 16.67 12.02 16.34 11 16 C10.731875 16.61875 10.46375 17.2375 10.1875 17.875 C9 20 9 20 6 22 C2.04004171 22.60260235 0.4766349 22.32121048 -2.875 20.0625 C-5.74867783 15.92102313 -5.78528484 12.89549913 -5 8 C-4.23514187 5.39560967 -3.30833412 3.41538608 -2 1 C-1.34 0.67 -0.68 0.34 0 0 Z " fill="#08071F" transform="translate(88,70)"/>
<path d="M0 0 C3 1 3 1 5.125 3.8125 C9.12950402 8.74112033 14.14193255 10.66512203 20.3671875 11.39453125 C22.63582512 11.54358428 24.90723157 11.65672343 27.1796875 11.7265625 C30 12 30 12 33 14 C35.14943335 14.27877399 35.14943335 14.27877399 37.4375 14.1875 C38.19933594 14.18105469 38.96117187 14.17460938 39.74609375 14.16796875 C41.93937857 14.00451771 43.88870807 13.60116513 46 13 C44.125 17.875 44.125 17.875 43 19 C41.04577134 19.15167148 39.08490271 19.22179996 37.125 19.25 C35.52011719 19.28867188 35.52011719 19.28867188 33.8828125 19.328125 C30.6270764 18.95755341 30.03889636 18.41737413 28 16 C24.73623573 14.91207858 22.2423489 14.93129295 18.8125 14.875 C12.7918063 14.45931736 9.76640533 13.14783699 5.58984375 8.84765625 C5.06519531 8.23792969 4.54054688 7.62820312 4 7 C3.175 6.071875 2.35 5.14375 1.5 4.1875 C0 2 0 2 0 0 Z " fill="#201E58" transform="translate(15,85)"/>
<path d="M0 0 C2.47595602 3.71393402 2.20717286 5.64799145 2.125 10.0625 C2.10695313 11.31160156 2.08890625 12.56070313 2.0703125 13.84765625 C2.03550781 15.40806641 2.03550781 15.40806641 2 17 C2 20.39454276 4.73877243 22.65596692 7 25 C7.99 25.66 8.98 26.32 10 27 C10 27.66 10 28.32 10 29 C11.02480469 29.04898438 12.04960937 29.09796875 13.10546875 29.1484375 C14.4661706 29.22351071 15.82684644 29.29905655 17.1875 29.375 C18.19780273 29.42140625 18.19780273 29.42140625 19.22851562 29.46875 C23.19678975 29.70103922 26.40729879 30.28387476 30 32 C30 32.33 30 32.66 30 33 C22.00820899 33.25779971 14.15602434 32.89733133 7 29 C7 28.34 7 27.68 7 27 C6.01 26.67 5.02 26.34 4 26 C2.61328125 24.4765625 2.61328125 24.4765625 1.3125 22.625 C0.87550781 22.01914063 0.43851563 21.41328125 -0.01171875 20.7890625 C-1 19 -1 19 -1 16 C-1.66 16 -2.32 16 -3 16 C-3 12.04 -3 8.08 -3 4 C-2.34 4 -1.68 4 -1 4 C-0.67 2.68 -0.34 1.36 0 0 Z " fill="#0E0F29" transform="translate(15,69)"/>
<path d="M0 0 C3.37728458 0.40936783 5.25872428 1.1623368 8.1875 3 C12.530035 5.65163641 17.01045242 5.79921338 22 6 C22 4.35 22 2.7 22 1 C23.32 0.67 24.64 0.34 26 0 C25.67 0.66 25.34 1.32 25 2 C24.67 2 24.34 2 24 2 C23.92572162 5.34252724 23.93453047 7.8035914 25 11 C15.73514046 11.56435693 8.8081376 10.86996441 1.4375 4.9375 C0 3 0 3 0 0 Z " fill="#EDEEF4" transform="translate(19,86)"/>
<path d="M0 0 C2.65963722 0.94807257 4.87099207 2.17962639 7.2890625 3.6328125 C10.88218537 5.56650788 10.88218537 5.56650788 14.83203125 5.5078125 C16.75328322 4.7239137 18.62060852 3.81078949 20.4765625 2.8828125 C21.1365625 3.2128125 21.7965625 3.5428125 22.4765625 3.8828125 C22.4765625 4.8728125 22.4765625 5.8628125 22.4765625 6.8828125 C18.88881538 9.11518849 16.92591766 10.17064219 12.703125 9.33203125 C7.62257405 7.56814024 4.12428883 5.92350232 0.4765625 1.8828125 C-1.99621545 2.98182492 -3.77217331 4.09793536 -5.8359375 5.8828125 C-10.54937136 9.39048421 -15.7108449 10.42351879 -21.5234375 9.8828125 C-22.1834375 9.2228125 -22.8434375 8.5628125 -23.5234375 7.8828125 C-22.63205078 7.89634766 -22.63205078 7.89634766 -21.72265625 7.91015625 C-14.71838771 7.65961476 -10.64356154 5.44969989 -5.06640625 1.28125 C-2.5234375 -0.1171875 -2.5234375 -0.1171875 0 0 Z " fill="#0D0C28" transform="translate(73.5234375,108.1171875)"/>
<path d="M0 0 C0.33 0 0.66 0 1 0 C1.60147363 8.64785422 1.33498178 14.9351908 -4 22 C-4.66 22.66 -5.32 23.32 -6 24 C-6.99 24 -7.98 24 -9 24 C-9.309375 24.86625 -9.309375 24.86625 -9.625 25.75 C-11.57200975 28.93601596 -13.73886888 30.2156075 -17 32 C-21.3675291 32.93589909 -25.54274975 33.10871342 -30 33 C-27 31 -27 31 -23.9375 30.8125 C-19.24887719 30.29486011 -16.08271088 27.48661104 -12.4296875 24.69140625 C-10 23 -10 23 -7.26953125 22.01171875 C-6.52058594 21.67785156 -5.77164063 21.34398438 -5 21 C-3.82443472 17.54325286 -3.82443472 17.54325286 -3.3984375 15.08203125 C-3 13 -3 13 -1.9375 9.9375 C-0.88485769 6.63922076 -0.41184811 3.43206758 0 0 Z " fill="#060714" transform="translate(131,69)"/>
<path d="M0 0 C5.33590753 2.63967157 9.09019028 5.84377771 12.4375 10.75 C14.81891396 14.06041921 14.81891396 14.06041921 18.375 15.84375 C20.07389579 16.11308714 21.77910776 16.34537362 23.48828125 16.5390625 C27.59369461 17.29246651 30.67816946 19.56893966 34 22 C33.505 23.485 33.505 23.485 33 25 C32.29875 24.38125 31.5975 23.7625 30.875 23.125 C26.82134129 20.12881748 23.37914142 19.1188915 18.375 18.6875 C15 18 15 18 12.8125 15.8125 C11 13 11 13 9.375 10 C6.0045437 5.74258152 1.88379108 4.16013836 -3 2 C-4.33692707 1.34056976 -5.67162289 0.67648834 -7 0 C-4.26441156 -1.36779422 -2.91874379 -0.79210746 0 0 Z " fill="#141414" transform="translate(85,36)"/>
<path d="M0 0 C0.53625 0.28875 1.0725 0.5775 1.625 0.875 C0.635 1.535 -0.355 2.195 -1.375 2.875 C-3.0146875 2.194375 -3.0146875 2.194375 -4.6875 1.5 C-12.38086871 -1.65952343 -21.33283853 -1.27830194 -29 1.75 C-30.47247589 2.42844452 -31.93254655 3.13486471 -33.375 3.875 C-34.50035156 4.43574219 -34.50035156 4.43574219 -35.6484375 5.0078125 C-36.21820313 5.29398438 -36.78796875 5.58015625 -37.375 5.875 C-37.375 4.885 -37.375 3.895 -37.375 2.875 C-35.7720947 2.06001438 -34.16762722 1.24810073 -32.5625 0.4375 C-31.66917969 -0.01496094 -30.77585937 -0.46742187 -29.85546875 -0.93359375 C-20.76998312 -5.29748842 -8.92668911 -4.22843169 0 0 Z " fill="#0E0E0F" transform="translate(88.375,30.125)"/>
<path d="M0 0 C2.31 0 4.62 0 7 0 C7 0.33 7 0.66 7 1 C5.02 1 3.04 1 1 1 C2.39089037 3.6816144 2.39089037 3.6816144 5 6 C9.67723947 6.86959506 13.02572757 6.64951495 17 4 C17.99 4.33 18.98 4.66 20 5 C19.01 5.804375 18.02 6.60875 17 7.4375 C16.01 8.283125 15.02 9.12875 14 10 C14 10.33 14 10.66 14 11 C10.37 11 6.74 11 3 11 C2.34 9.35 1.68 7.7 1 6 C0.608125 5.278125 0.21625 4.55625 -0.1875 3.8125 C-0.5896875 2.9153125 -0.5896875 2.9153125 -1 2 C-0.67 1.34 -0.34 0.68 0 0 Z " fill="#0E0D2C" transform="translate(46,105)"/>
<path d="M0 0 C0.33 0 0.66 0 1 0 C1.10824843 1.6026782 1.18570645 3.20745748 1.25 4.8125 C1.29640625 5.70582031 1.3428125 6.59914063 1.390625 7.51953125 C1 10 1 10 -0.796875 11.796875 C-4.03733514 13.56648798 -6.37312728 13.45335909 -10 13 C-12.4375 11.125 -12.4375 11.125 -14 9 C-14 8.34 -14 7.68 -14 7 C-14.99 7.33 -15.98 7.66 -17 8 C-17.33 9.65 -17.66 11.3 -18 13 C-19.98 13 -21.96 13 -24 13 C-24.33 12.34 -24.66 11.68 -25 11 C-23.35 11 -21.7 11 -20 11 C-19.67 9.35 -19.34 7.7 -19 6 C-16.875 5.1875 -16.875 5.1875 -14 5 C-12 6.66666667 -10 8.33333333 -8 10 C-5.19514873 9.9593157 -5.19514873 9.9593157 -3 9 C-2.67 8.01 -2.34 7.02 -2 6 C-1.34 6 -0.68 6 0 6 C0 4.02 0 2.04 0 0 Z " fill="#1A1920" transform="translate(59,79)"/>
<path d="M0 0 C2.56278005 3.84417008 2.64781519 6.56547126 2 11 C-1.35222937 24.00607447 -1.35222937 24.00607447 -6.1796875 26.91796875 C-7.57574219 27.45357422 -7.57574219 27.45357422 -9 28 C-9 24.0345034 -7.47149789 23.03641169 -5 20 C-2.42923362 15.54614724 -1.436658 11.71428834 -0.8125 6.625 C-0.65394531 5.37976563 -0.49539062 4.13453125 -0.33203125 2.8515625 C-0.22246094 1.91054687 -0.11289063 0.96953125 0 0 Z " fill="#26254A" transform="translate(129,65)"/>
<path d="M0 0 C2.4375 0.75 2.4375 0.75 5 2 C5.33 3.32 5.66 4.64 6 6 C8.64 5.34 11.28 4.68 14 4 C14.33 4.66 14.66 5.32 15 6 C13.75336669 6.50833591 12.50250613 7.00631145 11.25 7.5 C10.55390625 7.7784375 9.8578125 8.056875 9.140625 8.34375 C7 9 7 9 3 9 C2.67 7.35 2.34 5.7 2 4 C1.01 3.67 0.02 3.34 -1 3 C-1.268125 3.61875 -1.53625 4.2375 -1.8125 4.875 C-3 7 -3 7 -6 9 C-8.6875 9.125 -8.6875 9.125 -11 9 C-9.68 8.67 -8.36 8.34 -7 8 C-7 7.34 -7 6.68 -7 6 C-5.46875 4.4921875 -5.46875 4.4921875 -3.5 2.875 C-2.8503125 2.33617188 -2.200625 1.79734375 -1.53125 1.2421875 C-0.77328125 0.62730469 -0.77328125 0.62730469 0 0 Z " fill="#121216" transform="translate(100,83)"/>
<path d="M0 0 C0.39058594 0.47179688 0.78117187 0.94359375 1.18359375 1.4296875 C3.4579539 3.39590853 5.12057611 3.59164401 8.0625 4.125 C15.97008347 6.08876907 22.7693499 12.03943717 27 19 C26.67 19.99 26.34 20.98 26 22 C25.443125 21.278125 24.88625 20.55625 24.3125 19.8125 C18.48120982 12.72039032 13.11973447 8.01995575 3.953125 6.4921875 C2 6 2 6 0 4 C0 2.68 0 1.36 0 0 Z " fill="#17171A" transform="translate(101,41)"/>
<path d="M0 0 C0.66 0 1.32 0 2 0 C2.03738281 0.67546875 2.07476563 1.3509375 2.11328125 2.046875 C2.17902344 2.93890625 2.24476562 3.8309375 2.3125 4.75 C2.37050781 5.63171875 2.42851562 6.5134375 2.48828125 7.421875 C3.0768026 10.3869444 3.93267263 11.8156541 6 14 C9.08777172 15.28008262 9.08777172 15.28008262 12 16 C12 16.99 12 17.98 12 19 C6.79229202 17.54668614 2.91649742 15.64659167 -0.3125 11.1875 C-1.47900552 7.47589153 -1.76257671 3.52515341 0 0 Z " fill="#1E1E1E" transform="translate(21,73)"/>
<path d="M0 0 C0.71800781 0.23460938 1.43601562 0.46921875 2.17578125 0.7109375 C2.50578125 1.7009375 2.83578125 2.6909375 3.17578125 3.7109375 C2.51578125 3.7109375 1.85578125 3.7109375 1.17578125 3.7109375 C0.84578125 3.0509375 0.51578125 2.3909375 0.17578125 1.7109375 C-2.2969967 2.80994992 -4.07295456 3.92606036 -6.13671875 5.7109375 C-10.85015261 9.21860921 -16.01162615 10.25164379 -21.82421875 9.7109375 C-22.48421875 9.0509375 -23.14421875 8.3909375 -23.82421875 7.7109375 C-22.93283203 7.72447266 -22.93283203 7.72447266 -22.0234375 7.73828125 C-15.01916896 7.48773976 -10.94434279 5.27782489 -5.3671875 1.109375 C-2.82421875 -0.2890625 -2.82421875 -0.2890625 0 0 Z " fill="#070516" transform="translate(73.82421875,108.2890625)"/>
<path d="M0 0 C0.66 0.66 1.32 1.32 2 2 C-1.74174414 5.39139356 -4.6969632 6.73040618 -9.625 7.75 C-10.75164062 7.99234375 -11.87828125 8.2346875 -13.0390625 8.484375 C-16 9 -16 9 -19 9 C-19 8.01 -19 7.02 -19 6 C-18.3709375 5.89042969 -17.741875 5.78085938 -17.09375 5.66796875 C-7.89459447 4.30888165 -7.89459447 4.30888165 0 0 Z " fill="#2D2C60" transform="translate(118,91)"/>
<path d="M0 0 C2 2 2 2 2.3125 5.625 C2.17500139 11.43167219 0.19068183 16.21397726 -3 21 C-3.66 21 -4.32 21 -5 21 C-4.690625 20.236875 -4.38125 19.47375 -4.0625 18.6875 C-2.04184877 13.57644101 -1.64730418 9.06878013 -1.28125 3.6171875 C-1 1 -1 1 0 0 Z " fill="#201F1F" transform="translate(122,65)"/>
<path d="M0 0 C1.0625 1.875 1.0625 1.875 2 4 C1.67 4.66 1.34 5.32 1 6 C-0.71089793 6.50423397 -2.44549377 6.92930565 -4.1875 7.3125 C-9.41062738 8.64202333 -12.21393878 10.21393878 -16 14 C-16.66 14.66 -17.32 15.32 -18 16 C-18 13 -18 13 -16 10.5625 C-12.12949336 7.25644224 -7.87896105 4.55622146 -2.81640625 3.578125 C-2.21699219 3.38734375 -1.61757813 3.1965625 -1 3 C-0.67 2.01 -0.34 1.02 0 0 Z " fill="#141417" transform="translate(36,52)"/>
<path d="M0 0 C7.425 0.99 7.425 0.99 15 2 C14.67 2.66 14.34 3.32 14 4 C11.69 4 9.38 4 7 4 C7 4.99 7 5.98 7 7 C4.625 6.3125 4.625 6.3125 2 5 C1.34 3.35 0.68 1.7 0 0 Z " fill="#231F5D" transform="translate(83,98)"/>
<path d="M0 0 C0 0.33 0 0.66 0 1 C-1.01320313 1.12117188 -2.02640625 1.24234375 -3.0703125 1.3671875 C-4.4219151 1.53613783 -5.77347542 1.70542669 -7.125 1.875 C-7.79015625 1.95363281 -8.4553125 2.03226563 -9.140625 2.11328125 C-13.30378644 2.64388026 -17.06671292 3.54186554 -21 5 C-21.33 4.34 -21.66 3.68 -22 3 C-14.34028215 -0.94848287 -8.46110589 -1.3374944 0 0 Z M-24 4 C-23.34 4 -22.68 4 -22 4 C-22.66 5.32 -23.32 6.64 -24 8 C-24.33 7.01 -24.66 6.02 -25 5 C-24.67 4.67 -24.34 4.34 -24 4 Z " fill="#1A1A1A" transform="translate(77,35)"/>
<path d="M0 0 C0.66 0 1.32 0 2 0 C2.99 1.98 3.98 3.96 5 6 C4 7 4 7 0.9375 7.0625 C-0.031875 7.041875 -1.00125 7.02125 -2 7 C-2 7.66 -2 8.32 -2 9 C-2.66 9 -3.32 9 -4 9 C-2.80100302 5.9168649 -1.52299523 2.93720508 0 0 Z " fill="#1D1B46" transform="translate(71,99)"/>
<path d="M0 0 C0.99 0 1.98 0 3 0 C2.67 0.66 2.34 1.32 2 2 C1.67 2 1.34 2 1 2 C0.92572162 5.34252724 0.93453047 7.8035914 2 11 C-1.96 11 -5.92 11 -10 11 C-10 10.67 -10 10.34 -10 10 C-7.36 9.67 -4.72 9.34 -2 9 C-2 8.34 -2 7.68 -2 7 C-3.98 7 -5.96 7 -8 7 C-8 6.67 -8 6.34 -8 6 C-5.69 6 -3.38 6 -1 6 C-1.020625 5.195625 -1.04125 4.39125 -1.0625 3.5625 C-1 1 -1 1 0 0 Z " fill="#B3B1CE" transform="translate(42,86)"/>
<path d="M0 0 C3.85408869 2.33273789 5.38284425 4.27403226 6.4375 8.5625 C6.93359375 10.87890625 6.93359375 10.87890625 7 13 C6.01 14.485 6.01 14.485 5 16 C4.81824219 15.25234375 4.63648437 14.5046875 4.44921875 13.734375 C4.07216797 12.25710937 4.07216797 12.25710937 3.6875 10.75 C3.44386719 9.77546875 3.20023437 8.8009375 2.94921875 7.796875 C2.00347644 5.01024335 0.89291287 3.22695632 -1 1 C-0.67 0.67 -0.34 0.34 0 0 Z " fill="#181722" transform="translate(84,53)"/>
<path d="M0 0 C0.66 0.99 1.32 1.98 2 3 C1.27231556 6.19061641 0.46534977 9.06930047 -1 12 C-1 13.32 -1 14.64 -1 16 C-1.66 16 -2.32 16 -3 16 C-3 12.04 -3 8.08 -3 4 C-2.34 4 -1.68 4 -1 4 C-0.67 2.68 -0.34 1.36 0 0 Z " fill="#0C0C1A" transform="translate(15,69)"/>
<path d="M0 0 C2.9719385 1.12451727 5.33440687 2.22293791 8 4 C10.32387947 4.39387788 12.65793749 4.73486085 15 5 C14.67 5.99 14.34 6.98 14 8 C8.65155992 7.46515599 4.64203897 5.53309233 0 3 C0 2.01 0 1.02 0 0 Z " fill="#27254D" transform="translate(76,107)"/>
<path d="M0 0 C2.00720923 0.28674418 4.0085944 0.61866701 6 1 C5.01 2.485 5.01 2.485 4 4 C4 3.34 4 2.68 4 2 C3.01 2.33 2.02 2.66 1 3 C0.67 4.65 0.34 6.3 0 8 C-1.98 8 -3.96 8 -6 8 C-6.33 7.34 -6.66 6.68 -7 6 C-5.35 6 -3.7 6 -2 6 C-1.855625 5.195625 -1.71125 4.39125 -1.5625 3.5625 C-1 1 -1 1 0 0 Z " fill="#121215" transform="translate(41,84)"/>
<path d="M0 0 C1.125 1.625 1.125 1.625 2 4 C1.13120403 7.87009115 0.09639322 10.46658737 -3 13 C-2.979375 12.05125 -2.95875 11.1025 -2.9375 10.125 C-2.77448174 7.09333717 -2.77448174 7.09333717 -4 5 C-2 2 -2 2 0 0 Z " fill="#060614" transform="translate(91,64)"/>
<path d="M0 0 C3.10009769 1.38238352 5.28263873 2.98578859 7.6875 5.375 C8.28949219 5.96023437 8.89148438 6.54546875 9.51171875 7.1484375 C11.10135013 9.12608914 11.5905426 10.5214179 12 13 C11.01 13.495 11.01 13.495 10 14 C9.61328125 13.38511719 9.2265625 12.77023438 8.828125 12.13671875 C8.30734375 11.32847656 7.7865625 10.52023438 7.25 9.6875 C6.73953125 8.88699219 6.2290625 8.08648437 5.703125 7.26171875 C3.99626115 4.99503487 2.25904971 3.67464337 0 2 C0 1.34 0 0.68 0 0 Z " fill="#1E1E21" transform="translate(116,49)"/>
<path d="M0 0 C1.32 0 2.64 0 4 0 C4 0.66 4 1.32 4 2 C6.97 2 9.94 2 13 2 C13 2.33 13 2.66 13 3 C10.03 3 7.06 3 4 3 C4.33 5.31 4.66 7.62 5 10 C4.01 9.67 3.02 9.34 2 9 C1.26953125 6.93359375 1.26953125 6.93359375 0.8125 4.4375 C0.65394531 3.61121094 0.49539062 2.78492187 0.33203125 1.93359375 C0.16767578 0.97646484 0.16767578 0.97646484 0 0 Z " fill="#04040F" transform="translate(42,102)"/>
<path d="M0 0 C0.99 0.33 1.98 0.66 3 1 C-1.77618266 4.89635954 -3.80401645 6.13469529 -10 6 C-10 5.01 -10 4.02 -10 3 C-9.04287109 2.80083984 -9.04287109 2.80083984 -8.06640625 2.59765625 C-7.24011719 2.42105469 -6.41382813 2.24445313 -5.5625 2.0625 C-4.73878906 1.88847656 -3.91507813 1.71445313 -3.06640625 1.53515625 C-1.02338796 1.19247006 -1.02338796 1.19247006 0 0 Z " fill="#282850" transform="translate(63,109)"/>
<path d="M0 0 C4.0144599 1.3381533 5.35766442 3.76313892 8 7 C8.99 7.66 9.98 8.32 11 9 C11 9.66 11 10.32 11 11 C5.84563204 9.63560848 2.93351599 6.27426385 0 2 C0 1.34 0 0.68 0 0 Z " fill="#282758" transform="translate(15,85)"/>
<path d="M0 0 C-1.7664657 1.0076952 -3.53833823 2.00591714 -5.3125 3 C-6.79169922 3.8353125 -6.79169922 3.8353125 -8.30078125 4.6875 C-11 6 -11 6 -14 6 C-10.33829808 1.75242578 -5.68114185 -1.89371395 0 0 Z " fill="#1C1C1D" transform="translate(64,29)"/>
<path d="M0 0 C1.97944936 2.96917403 2.29350581 3.65702279 2.3125 7 C2.32925781 7.680625 2.34601563 8.36125 2.36328125 9.0625 C1.90165342 11.52451507 0.88101041 12.41181179 -1 14 C-1.027193 12.41676312 -1.04648306 10.83338938 -1.0625 9.25 C-1.07410156 8.36828125 -1.08570312 7.4865625 -1.09765625 6.578125 C-1.00826198 4.2181162 -0.66912821 2.25501476 0 0 Z " fill="#181730" transform="translate(129,65)"/>
<path d="M0 0 C0.33 0 0.66 0 1 0 C1.07476562 0.62648438 1.14953125 1.25296875 1.2265625 1.8984375 C1.62998447 4.40598191 2.06609491 6.63497183 3 9 C5.98283157 10.69165301 5.98283157 10.69165301 9 11 C7.3125 12.1875 7.3125 12.1875 5 13 C2.3125 11.8125 2.3125 11.8125 0 10 C-1.231394 6.30581799 -0.64432764 3.7943739 0 0 Z " fill="#252431" transform="translate(84,79)"/>
<path d="M0 0 C2 2 2 2 2.1953125 4.1640625 C2.17210937 4.97617188 2.14890625 5.78828125 2.125 6.625 C2.10695313 7.44226563 2.08890625 8.25953125 2.0703125 9.1015625 C2.03550781 10.04128906 2.03550781 10.04128906 2 11 C1.01 11.495 1.01 11.495 0 12 C-1.10251165 8.69246505 -2.05066101 5.35433109 -3 2 C-2.01 1.34 -1.02 0.68 0 0 Z " fill="#0A0720" transform="translate(59,76)"/>
<path d="M0 0 C0.33 0 0.66 0 1 0 C1 1.65 1 3.3 1 5 C1.99 5.33 2.98 5.66 4 6 C3.67 6.66 3.34 7.32 3 8 C3.66 8.66 4.32 9.32 5 10 C2.69 10 0.38 10 -2 10 C-1.34 6.7 -0.68 3.4 0 0 Z " fill="#B4B2D3" transform="translate(102,87)"/>
<path d="M0 0 C0.66 0.33 1.32 0.66 2 1 C-1.49087093 5.0042343 -3.64951939 6.62671065 -9 7 C-6.25604436 4.05278838 -3.61662784 1.80831392 0 0 Z " fill="#0D0E25" transform="translate(121,92)"/>
<path d="M0 0 C-0.66 0 -1.32 0 -2 0 C-2 0.66 -2 1.32 -2 2 C-6.455 2.495 -6.455 2.495 -11 3 C-11 2.01 -11 1.02 -11 0 C-3.375 -1.125 -3.375 -1.125 0 0 Z " fill="#25236A" transform="translate(110,97)"/>
<path d="M0 0 C0.33 0.99 0.66 1.98 1 3 C1.66 3 2.32 3 3 3 C3.99 5.31 4.98 7.62 6 10 C5.34 10.66 4.68 11.32 4 12 C3.32332002 10.75539217 2.65905281 9.50403104 2 8.25 C1.62875 7.55390625 1.2575 6.8578125 0.875 6.140625 C0 4 0 4 0 0 Z " fill="#221F39" transform="translate(54,66)"/>
<path d="M0 0 C0.99 0.33 1.98 0.66 3 1 C1.35 4.3 -0.3 7.6 -2 11 C-2.66 9.68 -3.32 8.36 -4 7 C-3.06434658 4.35435928 -1.54985485 2.37036624 0 0 Z " fill="#191919" transform="translate(47,45)"/>
<path d="M0 0 C0.66 0.66 1.32 1.32 2 2 C0.50260417 3.23697917 -0.99479167 4.47395833 -2.4921875 5.7109375 C-3.71051161 6.75250992 -4.86660097 7.86660097 -6 9 C-6 5 -6 5 -4.6875 3.515625 C-3.125 2.34375 -1.5625 1.171875 0 0 Z " fill="#1D1D22" transform="translate(62,51)"/>
<path d="M0 0 C0.33 0 0.66 0 1 0 C1.08090971 1.62418745 1.13914995 3.24951745 1.1875 4.875 C1.22230469 5.77992187 1.25710937 6.68484375 1.29296875 7.6171875 C1.19628906 8.40351562 1.09960938 9.18984375 1 10 C0.01 10.66 -0.98 11.32 -2 12 C-2.66 11.34 -3.32 10.68 -4 10 C-3.34 8.68 -2.68 7.36 -2 6 C-1.34 6 -0.68 6 0 6 C0 4.02 0 2.04 0 0 Z " fill="#262434" transform="translate(59,79)"/>
<path d="M0 0 C0.99 0 1.98 0 3 0 C3.33 3.3 3.66 6.6 4 10 C3.01 9.67 2.02 9.34 1 9 C0.67 6.03 0.34 3.06 0 0 Z " fill="#1B1B35" transform="translate(13,76)"/>
<path d="M0 0 C2.31 0 4.62 0 7 0 C7 0.99 7 1.98 7 3 C4.69 3 2.38 3 0 3 C0 2.01 0 1.02 0 0 Z " fill="#12112F" transform="translate(90,102)"/>
<path d="M0 0 C1.98 0.495 1.98 0.495 4 1 C3.67 2.32 3.34 3.64 3 5 C1.68 4.67 0.36 4.34 -1 4 C-0.67 2.68 -0.34 1.36 0 0 Z " fill="#554EBF" transform="translate(66,70)"/>
<path d="M0 0 C1.98 0.495 1.98 0.495 4 1 C3.67 2.32 3.34 3.64 3 5 C1.68 4.67 0.36 4.34 -1 4 C-0.67 2.68 -0.34 1.36 0 0 Z " fill="#554EBF" transform="translate(75,70)"/>
<path d="M0 0 C2.31 0 4.62 0 7 0 C7 0.33 7 0.66 7 1 C5.02 1 3.04 1 1 1 C1.99 2.65 2.98 4.3 4 6 C3.01 6 2.02 6 1 6 C-0.0625 4.125 -0.0625 4.125 -1 2 C-0.67 1.34 -0.34 0.68 0 0 Z " fill="#45444E" transform="translate(46,105)"/>
<path d="M0 0 C0.33 0.66 0.66 1.32 1 2 C-1.36292656 4.52588702 -2.66462511 5.88820837 -6 7 C-6 6.01 -6 5.02 -6 4 C-3 1.8125 -3 1.8125 0 0 Z " fill="#18173F" transform="translate(126,86)"/>
<path d="M0 0 C0.66 1.32 1.32 2.64 2 4 C1.34 4 0.68 4 0 4 C0 2.68 0 1.36 0 0 Z M0 4 C-0.33 4.99 -0.66 5.98 -1 7 C-3.31 6.67 -5.62 6.34 -8 6 C-4.91190305 4.23537317 -3.76687864 4 0 4 Z " fill="#212120" transform="translate(41,59)"/>
<path d="M0 0 C4.21912747 0.4794463 6.79663178 1.16625119 10 4 C6.37673261 5.2077558 5.35853631 4.54311128 2 3 C2 2.34 2 1.68 2 1 C1.34 0.67 0.68 0.34 0 0 Z " fill="#202020" transform="translate(80,28)"/>
<path d="M0 0 C0.33 0.66 0.66 1.32 1 2 C0.06553465 4.03144641 -0.93224776 6.03533587 -2 8 C-2.66 7.67 -3.32 7.34 -4 7 C-3.39816251 4.97954558 -2.72693904 2.97888961 -2 1 C-1.34 0.67 -0.68 0.34 0 0 Z " fill="#21203A" transform="translate(88,70)"/>
<path d="M0 0 C0.75 1.6875 0.75 1.6875 1 4 C-0.9375 6.75 -0.9375 6.75 -3 9 C-3.33 8.01 -3.66 7.02 -4 6 C-2.0625 2.8125 -2.0625 2.8125 0 0 Z " fill="#1D1C22" transform="translate(42,41)"/>
<path d="M0 0 C0.66 0 1.32 0 2 0 C2.99 1.98 3.98 3.96 5 6 C4.01 6 3.02 6 2 6 C2 5.34 2 4.68 2 4 C1.01 3.67 0.02 3.34 -1 3 C-0.67 2.01 -0.34 1.02 0 0 Z " fill="#2E2A63" transform="translate(71,99)"/>
<path d="M0 0 C0.91058531 3.07322544 1.08886184 5.80097361 1 9 C0.34 9 -0.32 9 -1 9 C-2.0326802 6.21176345 -2.04509293 5.1322726 -1.0625 2.25 C-0.711875 1.5075 -0.36125 0.765 0 0 Z " fill="#050412" transform="translate(87,79)"/>
<path d="M0 0 C0.66 0.66 1.32 1.32 2 2 C0.824375 2.928125 0.824375 2.928125 -0.375 3.875 C-2.96837647 5.89858661 -2.96837647 5.89858661 -5 8 C-5 5 -5 5 -2.5 2.3125 C-1.675 1.549375 -0.85 0.78625 0 0 Z " fill="#1A1A1D" transform="translate(23,60)"/>
</svg>
