<svg width="1000" height="500" viewBox="0 0 1000 500" fill="none" xmlns="http://www.w3.org/2000/svg">
<path d="M233.264 205H316.815C318.616 205 320.079 206.462 320.079 208.264V213.05H230V208.264C230 206.462 231.462 205 233.264 205Z" fill="white"/>
<path d="M320.079 221.405H230V229.455H320.079V221.405Z" fill="white"/>
<path d="M320.079 270.622H230V278.672H320.079V270.622Z" fill="white"/>
<path d="M230 287.028H320.079V291.815C320.079 293.616 318.616 295.079 316.815 295.079H233.264C231.462 295.079 230 293.616 230 291.815V287.028Z" fill="white"/>
<path d="M267.956 237.812H230V245.862H267.956V237.812Z" fill="white"/>
<path d="M320.079 237.812H282.122V245.862H320.079V237.812Z" fill="white"/>
<path d="M267.956 254.217H230V262.267H267.956V254.217Z" fill="white"/>
<path d="M320.079 254.217H282.122V262.267H320.079V254.217Z" fill="white"/>
<path d="M386.668 207.415H395.466V278.769H387.848L387.204 273.833H386.99C384.915 275.765 382.376 277.231 379.371 278.232C376.438 279.162 373.041 279.627 369.178 279.627C361.953 279.627 356.767 277.481 353.619 273.189C350.543 268.897 349.005 261.887 349.005 252.159C349.005 242.43 350.901 235.42 354.692 231.128C358.484 226.836 364.814 224.69 373.684 224.69C376.188 224.69 378.513 224.904 380.659 225.334C382.876 225.691 384.879 226.228 386.668 226.943V207.415ZM374.757 232.63C368.105 232.63 363.598 234.025 361.238 236.815C358.949 239.604 357.804 244.719 357.804 252.159C357.804 259.383 358.806 264.427 360.808 267.288C362.883 270.078 366.71 271.473 372.29 271.473C374.936 271.473 377.476 271.151 379.908 270.507C382.34 269.792 384.593 268.754 386.668 267.395V234.776C384.951 234.061 383.127 233.524 381.195 233.166C379.264 232.809 377.118 232.63 374.757 232.63Z" fill="white"/>
<path d="M447.294 268.468V275.872C445.434 276.873 442.68 277.767 439.032 278.554C435.455 279.27 431.807 279.627 428.087 279.627C419.789 279.627 413.852 277.481 410.275 273.189C406.699 268.897 404.91 261.816 404.91 251.944C404.91 242.43 406.77 235.527 410.49 231.235C414.21 226.872 420.147 224.69 428.302 224.69C435.884 224.69 441.321 226.407 444.611 229.84C447.902 233.202 449.547 238.853 449.547 246.794C449.547 248.224 449.511 249.548 449.44 250.764C449.368 251.98 449.225 253.446 449.011 255.163H413.816C413.888 261.029 415.068 265.213 417.357 267.717C419.718 270.221 423.759 271.473 429.482 271.473C432.558 271.473 435.777 271.186 439.139 270.614C442.501 270.042 445.219 269.327 447.294 268.468ZM441.5 245.613C441.428 240.892 440.391 237.566 438.388 235.634C436.385 233.631 433.023 232.63 428.302 232.63C423.008 232.63 419.253 233.775 417.035 236.064C414.889 238.281 413.816 242.215 413.816 247.867H441.392C441.392 247.724 441.392 247.402 441.392 246.901C441.464 246.329 441.5 245.899 441.5 245.613Z" fill="white"/>
<path d="M498.588 268.468V275.872C496.728 276.873 493.974 277.767 490.326 278.554C486.749 279.27 483.101 279.627 479.382 279.627C471.084 279.627 465.146 277.481 461.57 273.189C457.993 268.897 456.205 261.816 456.205 251.944C456.205 242.43 458.065 235.527 461.784 231.235C465.504 226.872 471.441 224.69 479.596 224.69C487.179 224.69 492.615 226.407 495.906 229.84C499.196 233.202 500.842 238.853 500.842 246.794C500.842 248.224 500.806 249.548 500.734 250.764C500.663 251.98 500.52 253.446 500.305 255.163H465.111C465.182 261.029 466.363 265.213 468.652 267.717C471.012 270.221 475.054 271.473 480.776 271.473C483.852 271.473 487.071 271.186 490.433 270.614C493.796 270.042 496.514 269.327 498.588 268.468ZM492.794 245.613C492.723 240.892 491.685 237.566 489.682 235.634C487.679 233.631 484.317 232.63 479.596 232.63C474.303 232.63 470.547 233.775 468.33 236.064C466.184 238.281 465.111 242.215 465.111 247.867H492.687C492.687 247.724 492.687 247.402 492.687 246.901C492.758 246.329 492.794 245.899 492.794 245.613Z" fill="white"/>
<path d="M518.873 295.079H510.074V225.763H517.693L518.229 230.484H518.551C520.769 228.624 523.415 227.193 526.491 226.192C529.567 225.191 532.858 224.69 536.363 224.69C543.588 224.69 548.738 226.836 551.814 231.128C554.961 235.42 556.535 242.43 556.535 252.159C556.535 261.887 554.64 268.897 550.848 273.189C547.057 277.481 540.726 279.627 531.856 279.627C529.209 279.627 526.777 279.449 524.56 279.091C522.414 278.733 520.518 278.197 518.873 277.481V295.079ZM547.737 252.159C547.737 244.862 546.699 239.783 544.625 236.922C542.622 234.061 538.831 232.63 533.251 232.63C530.604 232.63 528.065 233.023 525.633 233.81C523.272 234.526 521.019 235.599 518.873 237.029V269.327C520.661 270.042 522.485 270.578 524.345 270.936C526.277 271.294 528.423 271.473 530.783 271.473C537.436 271.473 541.907 270.113 544.196 267.395C546.556 264.605 547.737 259.526 547.737 252.159Z" fill="white"/>
<path d="M596.572 270.507V277.911C595.428 278.411 593.854 278.805 591.851 279.091C589.92 279.449 588.06 279.627 586.272 279.627C579.834 279.627 575.22 278.197 572.43 275.335C569.712 272.474 568.352 267.538 568.352 260.528V233.274H560.412V225.763H568.46L569.855 212.887H577.151V225.763H596.036V233.274H577.151V260.206C577.151 264.57 577.938 267.538 579.512 269.112C581.157 270.686 584.018 271.473 588.096 271.473C589.383 271.473 590.85 271.365 592.495 271.151C594.212 270.936 595.571 270.721 596.572 270.507Z" fill="white"/>
<path d="M611.926 278.769H603.128V225.763H611.175L611.604 230.269H612.034C614.823 228.624 617.613 227.408 620.403 226.621C623.193 225.763 625.947 225.334 628.665 225.334C629.81 225.334 630.561 225.334 630.918 225.334C631.348 225.334 631.669 225.369 631.884 225.441V233.918C631.383 233.775 630.74 233.703 629.953 233.703C629.237 233.631 628.093 233.596 626.519 233.596C623.944 233.596 621.404 233.918 618.901 234.561C616.469 235.134 614.144 236.028 611.926 237.244V278.769Z" fill="white"/>
<path d="M655.977 279.627C650.111 279.627 645.712 278.161 642.779 275.228C639.846 272.295 638.38 267.896 638.38 262.03V225.763H647.178V260.957C647.178 264.605 648.108 267.252 649.968 268.897C651.828 270.543 654.761 271.365 658.767 271.365C661.199 271.365 663.631 271.079 666.063 270.507C668.567 269.863 671.071 268.897 673.574 267.61V225.763H682.373V278.769H674.325L673.896 274.37H673.682C669.962 276.301 666.743 277.66 664.025 278.447C661.306 279.234 658.624 279.627 655.977 279.627Z" fill="white"/>
<path d="M712.641 232.63C708.063 232.63 704.879 233.166 703.091 234.239C701.374 235.312 700.516 237.494 700.516 240.785C700.516 242.502 700.909 243.825 701.696 244.755C702.554 245.613 703.878 246.186 705.666 246.472L719.293 248.51C723.585 249.154 726.59 250.513 728.306 252.588C730.023 254.591 730.882 257.774 730.882 262.137C730.882 268.289 729.415 272.76 726.482 275.55C723.549 278.268 718.685 279.627 711.89 279.627C707.812 279.627 704.021 279.413 700.516 278.984C697.011 278.554 694.114 277.982 691.824 277.267V269.005C694.114 269.72 696.903 270.328 700.194 270.829C703.556 271.258 706.99 271.473 710.495 271.473C714.93 271.473 717.97 270.829 719.615 269.541C721.26 268.254 722.083 265.964 722.083 262.674C722.083 260.599 721.618 259.097 720.688 258.167C719.758 257.166 718.077 256.486 715.645 256.129L702.018 254.09C698.584 253.589 696.009 252.266 694.292 250.12C692.647 247.974 691.789 244.862 691.717 240.785C691.717 235.205 693.362 231.128 696.653 228.553C700.015 225.977 705.165 224.69 712.104 224.69C714.965 224.69 717.541 224.761 719.83 224.904C722.19 225.047 724.658 225.334 727.233 225.763V233.596C725.374 233.31 723.192 233.095 720.688 232.952C718.184 232.737 715.502 232.63 712.641 232.63Z" fill="white"/>
<path d="M770 270.507V277.911C768.855 278.411 767.282 278.805 765.279 279.091C763.347 279.449 761.488 279.627 759.699 279.627C753.261 279.627 748.647 278.197 745.858 275.335C743.139 272.474 741.78 267.538 741.78 260.528V233.274H733.84V225.763H741.887L743.282 212.887H750.579V225.763H769.464V233.274H750.579V260.206C750.579 264.57 751.366 267.538 752.939 269.112C754.585 270.686 757.446 271.473 761.523 271.473C762.811 271.473 764.277 271.365 765.923 271.151C767.639 270.936 768.999 270.721 770 270.507Z" fill="white"/>
</svg>
