<svg xmlns="http://www.w3.org/2000/svg" width="146" height="36" fill="none"><path d="M18.727.5c-1.915 0-4.357 2.516-4.357 6.895V9.53c-1.265-.832-2.74-1.284-4.586-1.284-5.218.018-9.276 4.252-9.276 9.5 0 5.249 3.883 9.484 9.241 9.484 2.583 0 4.621-.96 5.956-2.28.879 1.248 1.968 1.936 2.917 1.936.738 0 1.107-.416 1.107-1.34V1.75c0-.833-.37-1.249-1.002-1.249zm-8.574 21.753c-2.582 0-4.216-1.937-4.216-4.524 0-2.588 1.634-4.525 4.216-4.525 2.583 0 4.217 1.937 4.217 4.524 0 2.607-1.634 4.525-4.217 4.525zM39.512 8.95h-1.81c-1.3 0-1.774.543-1.774 1.828v6.823c0 2.75-1.37 4.38-3.584 4.38-2.285 0-3.444-1.557-3.444-4.453v-6.75c0-1.339-.527-1.828-1.775-1.828h-1.81c-1.247 0-1.774.489-1.774 1.828v6.895c0 5.9 2.882 9.556 7.942 9.556 2.248 0 4.251-.905 5.657-2.48.843 1.376 2.003 2.136 3.04 2.136.632 0 1.106-.416 1.106-1.34V10.78c0-1.339-.527-1.828-1.774-1.828zM53.778 27.23c5.43 0 9.47-4.235 9.47-9.483 0-5.375-4.058-9.483-9.47-9.483-5.394 0-9.47 4.235-9.47 9.483 0 5.375 4.076 9.483 9.47 9.483zm0-4.977c-2.442 0-4.058-1.937-4.058-4.524 0-2.588 1.598-4.525 4.058-4.525 2.478 0 4.059 1.937 4.059 4.524-.018 2.607-1.581 4.525-4.059 4.525zm14.196 4.289h1.81c1.23 0 1.774-.489 1.774-1.828V1.839C71.558.916 71.19.5 70.451.5 68.641.5 66.2 3.016 66.2 7.395v17.319c0 1.34.527 1.828 1.774 1.828zM78.393 6.436c1.634 0 3.022-1.303 3.022-2.968S80.027.5 78.393.5c-1.67 0-3.022 1.303-3.022 2.968s1.335 2.968 3.022 2.968zm-.914 20.106h1.81c1.3 0 1.774-.543 1.774-1.828V10.779c0-1.285-.474-1.828-1.774-1.828h-1.81c-1.3 0-1.774.543-1.774 1.828v13.935c0 1.267.474 1.828 1.774 1.828zM95.154 8.264a7.816 7.816 0 0 0-5.798 2.551c-.878-1.447-2.038-2.207-3.04-2.207-.737 0-1.106.416-1.106 1.339v14.767c0 1.34.527 1.828 1.774 1.828h1.81c1.3 0 1.774-.543 1.774-1.828v-6.84c0-2.733 1.547-4.38 3.813-4.38 2.302 0 3.514 1.592 3.514 4.452v6.768c0 1.34.527 1.828 1.774 1.828h1.81c1.247 0 1.774-.489 1.774-1.828v-7.04c0-5.755-2.846-9.41-8.099-9.41zm25.844 12.83c1.582-1.212 2.548-3.04 2.548-5.139 0-.869-.176-1.647-.51-2.407 1.775-.905 2.443-2.552 2.443-4.108 0-1.556-.598-2.009-1.476-1.593-3.145 1.484-3.584 1.557-5.657 1.177-1.301-.235-2.249-.416-3.514-.416-2.337 0-4.252.76-5.869 2.135-1.51 1.303-2.284 3.203-2.284 5.212 0 2.1.932 3.927 2.548 5.14-2.108 1.14-3.584 3.547-3.584 6.406 0 4.723 3.689 7.999 9.435 7.999 6.026 0 9.47-3.62 9.47-8.343.035-2.86-1.441-4.995-3.55-6.062zm-5.885-7.998c1.95 0 3.145 1.031 3.145 3.112a3.128 3.128 0 0 1-3.145 3.113c-1.81 0-3.11-1.448-3.11-3.113 0-1.954 1.23-3.112 3.11-3.112zm0 17.862c-2.337 0-4.076-1.557-4.076-3.547 0-2.208 1.634-3.548 4.076-3.548 2.477 0 4.111 1.34 4.111 3.548 0 2.026-1.704 3.547-4.111 3.547zm20.925-3.728c5.429 0 9.47-4.235 9.47-9.483 0-5.375-4.059-9.483-9.47-9.483-5.394 0-9.47 4.235-9.47 9.483 0 5.375 4.076 9.483 9.47 9.483zm0-4.977c-2.442 0-4.059-1.937-4.059-4.524 0-2.588 1.599-4.525 4.059-4.525 2.477 0 4.058 1.937 4.058 4.524 0 2.607-1.581 4.525-4.058 4.525z" fill="#B1BAC4"/></svg>