<svg width="78" height="24" viewBox="0 0 78 24" fill="none" xmlns="http://www.w3.org/2000/svg"><path fill-rule="evenodd" clip-rule="evenodd" d="M37.0321 0.726216C36.4515 1.2062 36.0609 1.87736 35.9304 2.6193C35.7041 4.17022 36.7708 5.3666 38.3232 5.3666C39.9073 5.3666 41.2334 4.29996 41.4597 2.81241C41.7177 1.2283 40.6511 0.000240244 39.0987 0.000240244C38.3454 -0.0111476 37.6128 0.246236 37.0321 0.726216ZM23.6138 13.7292C23.6513 13.0046 23.6402 12.2783 23.5806 11.5552H11.7345L9.72794 15.6814H18.5492C17.8778 18.0636 15.3613 19.5723 12.344 19.5723C7.78024 19.5723 4.76289 16.5203 4.76289 12.1934C4.76289 7.96607 7.84964 4.88084 11.9744 4.88084C15.0943 4.88084 16.9394 6.48757 17.8808 8.36889H23.0103C21.7687 3.60601 17.7782 0.384984 11.9744 0.384984C5.06462 0.384984 0 5.41641 0 12.1934C0 19.0352 4.99824 24.0003 12.344 23.9882C19.0878 23.9882 23.3452 19.1966 23.6138 13.7292ZM28.041 0.754568L24.4186 23.6306H29.0488L32.6696 0.754568H28.041ZM33.1031 23.6306L35.5849 7.86492H40.2135L37.7317 23.6306H33.1031ZM60.8731 0.754568H56.2444L54.8338 9.57579C53.9965 8.33566 52.4878 7.49684 50.3078 7.49684C46.6176 7.49684 42.695 9.97861 41.8879 15.0779C40.9148 21.2484 44.9399 24.0002 48.0599 24.0002C50.1403 24.0002 51.8512 23.1599 53.0581 21.6512L54.0569 23.6306H59.1954L58.0398 19.4229L60.8731 0.754568ZM50.7438 11.522C52.521 11.522 54.4325 13.1317 53.9965 15.9499C53.5273 18.9688 51.2462 19.9751 49.6349 19.9751C47.5228 19.9751 45.9809 18.1632 46.3822 15.5803C46.7519 13.1317 48.5291 11.522 50.7438 11.522ZM77.5111 17.258H65.6696C66.1735 19.2705 67.5826 20.2753 69.5272 20.2753C71.306 20.2753 72.2429 19.8393 72.8825 18.8662H77.0751C76.0688 22.5217 72.7483 23.9957 69.6283 23.9957C64.6301 23.9957 61.3774 20.473 61.3774 15.7433C61.3774 11.0483 64.7312 7.49232 69.494 7.49232C74.2569 7.49232 77.5458 11.0528 77.5458 15.7478C77.5458 16.386 77.5458 16.6198 77.5111 17.258ZM65.6364 14.1712H73.3216C73.0198 12.4604 71.4086 11.2534 69.4971 11.2534C67.4815 11.2534 66.0799 12.4272 65.6364 14.1712Z" fill="white"></path></svg>