<?xml version="1.0" encoding="UTF-8" standalone="no"?>
<!DOCTYPE svg PUBLIC "-//W3C//DTD SVG 1.1//EN" "http://www.w3.org/Graphics/SVG/1.1/DTD/svg11.dtd">
<svg width="100%" height="100%" viewBox="0 0 108 89" version="1.1" xmlns="http://www.w3.org/2000/svg" xmlns:xlink="http://www.w3.org/1999/xlink" xml:space="preserve" xmlns:serif="http://www.serif.com/" style="fill-rule:evenodd;clip-rule:evenodd;stroke-linejoin:round;stroke-miterlimit:2;">
    <g transform="matrix(1,0,0,1,-131,-392)">
        <g transform="matrix(1,0,0,1,11.685,280.452)">
            <g transform="matrix(36,0,0,36,117.815,140.348)">
                <path d="M0.194,-0.8C0.101,-0.8 0.05,-0.75 0.05,-0.656L0.05,-0.42C0.05,-0.401 0.059,-0.389 0.077,-0.383L0.314,-0.305L0.314,-0.172C0.314,-0.145 0.3,-0.132 0.274,-0.132L0.226,-0.132C0.201,-0.132 0.186,-0.145 0.186,-0.172L0.186,-0.249C0.186,-0.26 0.181,-0.265 0.17,-0.265L0.066,-0.265C0.056,-0.265 0.05,-0.26 0.05,-0.249L0.05,-0.144C0.05,-0.05 0.101,-0 0.194,-0L0.306,-0C0.4,-0 0.45,-0.05 0.45,-0.144L0.45,-0.375C0.45,-0.394 0.441,-0.405 0.424,-0.412L0.186,-0.49L0.186,-0.628C0.186,-0.654 0.201,-0.668 0.226,-0.668L0.274,-0.668C0.301,-0.668 0.314,-0.654 0.314,-0.628L0.314,-0.55C0.314,-0.54 0.32,-0.534 0.33,-0.534L0.434,-0.534C0.445,-0.534 0.45,-0.54 0.45,-0.55L0.45,-0.656C0.45,-0.75 0.4,-0.8 0.306,-0.8L0.194,-0.8Z" style="fill:white;fill-rule:nonzero;"/>
            </g>
            <g transform="matrix(36,0,0,36,136.535,140.348)">
                <path d="M0.338,-0.8C0.327,-0.8 0.318,-0.791 0.318,-0.78L0.318,-0.172C0.318,-0.145 0.304,-0.132 0.278,-0.132L0.226,-0.132C0.2,-0.132 0.186,-0.145 0.186,-0.172L0.186,-0.78C0.186,-0.791 0.177,-0.8 0.166,-0.8L0.07,-0.8C0.059,-0.8 0.05,-0.791 0.05,-0.78L0.05,-0.144C0.05,-0.05 0.1,-0 0.194,-0L0.306,-0C0.4,-0 0.45,-0.05 0.45,-0.144L0.45,-0.78C0.45,-0.791 0.441,-0.8 0.43,-0.8L0.338,-0.8Z" style="fill:white;fill-rule:nonzero;"/>
            </g>
            <g transform="matrix(36,0,0,36,155.255,140.348)">
                <path d="M0.05,-0.016C0.05,-0.006 0.056,-0 0.066,-0L0.17,-0C0.181,-0 0.186,-0.006 0.186,-0.016L0.186,-0.268L0.306,-0.268C0.4,-0.268 0.45,-0.319 0.45,-0.412L0.45,-0.656C0.45,-0.75 0.4,-0.8 0.306,-0.8L0.066,-0.8C0.056,-0.8 0.05,-0.794 0.05,-0.784L0.05,-0.016ZM0.186,-0.4L0.186,-0.668L0.274,-0.668C0.301,-0.668 0.314,-0.654 0.314,-0.628L0.314,-0.44C0.314,-0.415 0.301,-0.4 0.274,-0.4L0.186,-0.4Z" style="fill:white;fill-rule:nonzero;"/>
            </g>
            <g transform="matrix(36,0,0,36,173.975,140.348)">
                <path d="M0.449,-0.784C0.449,-0.794 0.445,-0.8 0.433,-0.8L0.065,-0.8C0.056,-0.8 0.05,-0.794 0.05,-0.784L0.05,-0.016C0.05,-0.006 0.056,-0 0.065,-0L0.433,-0C0.445,-0 0.449,-0.006 0.449,-0.016L0.449,-0.116C0.449,-0.127 0.445,-0.132 0.433,-0.132L0.183,-0.132L0.183,-0.334L0.374,-0.334C0.384,-0.334 0.39,-0.34 0.39,-0.351L0.39,-0.45C0.39,-0.461 0.384,-0.467 0.374,-0.467L0.183,-0.467L0.183,-0.667L0.433,-0.667C0.445,-0.667 0.449,-0.674 0.449,-0.684L0.449,-0.784Z" style="fill:white;fill-rule:nonzero;"/>
            </g>
            <g transform="matrix(36,0,0,36,192.299,140.348)">
                <path d="M0.461,-0.656C0.461,-0.75 0.411,-0.8 0.317,-0.8L0.066,-0.8C0.056,-0.8 0.05,-0.794 0.05,-0.784L0.05,-0.016C0.05,-0.006 0.056,-0 0.066,-0L0.17,-0C0.18,-0 0.186,-0.006 0.186,-0.016L0.186,-0.268L0.255,-0.268L0.322,-0.014C0.324,-0.005 0.329,-0 0.339,-0L0.443,-0C0.454,-0 0.46,-0.006 0.457,-0.018L0.388,-0.28C0.436,-0.301 0.461,-0.345 0.461,-0.412L0.461,-0.656ZM0.186,-0.4L0.186,-0.668L0.285,-0.668C0.311,-0.668 0.325,-0.654 0.325,-0.628L0.325,-0.44C0.325,-0.414 0.311,-0.4 0.285,-0.4L0.186,-0.4Z" style="fill:white;fill-rule:nonzero;"/>
            </g>
            <g transform="matrix(36,0,0,36,117.815,172.348)">
                <path d="M0.05,-0.016C0.05,-0.005 0.055,-0 0.066,-0L0.306,-0C0.4,-0 0.45,-0.05 0.45,-0.144L0.45,-0.655C0.45,-0.749 0.4,-0.8 0.306,-0.8L0.066,-0.8C0.055,-0.8 0.05,-0.794 0.05,-0.784L0.05,-0.016ZM0.186,-0.132L0.186,-0.668L0.278,-0.668C0.304,-0.668 0.318,-0.654 0.318,-0.627L0.318,-0.172C0.318,-0.145 0.304,-0.132 0.278,-0.132L0.186,-0.132Z" style="fill:white;fill-rule:nonzero;"/>
            </g>
            <g transform="matrix(36,0,0,36,136.535,172.348)">
                <path d="M0.338,-0.8C0.327,-0.8 0.318,-0.791 0.318,-0.78L0.318,-0.172C0.318,-0.145 0.304,-0.132 0.278,-0.132L0.226,-0.132C0.2,-0.132 0.186,-0.145 0.186,-0.172L0.186,-0.78C0.186,-0.791 0.177,-0.8 0.166,-0.8L0.07,-0.8C0.059,-0.8 0.05,-0.791 0.05,-0.78L0.05,-0.144C0.05,-0.05 0.1,-0 0.194,-0L0.306,-0C0.4,-0 0.45,-0.05 0.45,-0.144L0.45,-0.78C0.45,-0.791 0.441,-0.8 0.43,-0.8L0.338,-0.8Z" style="fill:white;fill-rule:nonzero;"/>
            </g>
            <g transform="matrix(36,0,0,36,155.255,172.348)">
                <path d="M0.05,-0.016C0.05,-0.006 0.056,-0 0.066,-0L0.17,-0C0.181,-0 0.186,-0.006 0.186,-0.016L0.186,-0.268L0.306,-0.268C0.4,-0.268 0.45,-0.319 0.45,-0.412L0.45,-0.656C0.45,-0.75 0.4,-0.8 0.306,-0.8L0.066,-0.8C0.056,-0.8 0.05,-0.794 0.05,-0.784L0.05,-0.016ZM0.186,-0.4L0.186,-0.668L0.274,-0.668C0.301,-0.668 0.314,-0.654 0.314,-0.628L0.314,-0.44C0.314,-0.415 0.301,-0.4 0.274,-0.4L0.186,-0.4Z" style="fill:white;fill-rule:nonzero;"/>
            </g>
            <g transform="matrix(36,0,0,36,173.975,172.348)">
                <path d="M0.449,-0.784C0.449,-0.794 0.445,-0.8 0.433,-0.8L0.065,-0.8C0.056,-0.8 0.05,-0.794 0.05,-0.784L0.05,-0.016C0.05,-0.006 0.056,-0 0.065,-0L0.433,-0C0.445,-0 0.449,-0.006 0.449,-0.016L0.449,-0.116C0.449,-0.127 0.445,-0.132 0.433,-0.132L0.183,-0.132L0.183,-0.334L0.374,-0.334C0.384,-0.334 0.39,-0.34 0.39,-0.351L0.39,-0.45C0.39,-0.461 0.384,-0.467 0.374,-0.467L0.183,-0.467L0.183,-0.667L0.433,-0.667C0.445,-0.667 0.449,-0.674 0.449,-0.684L0.449,-0.784Z" style="fill:white;fill-rule:nonzero;"/>
            </g>
            <g transform="matrix(36,0,0,36,192.299,172.348)">
                <path d="M0.461,-0.656C0.461,-0.75 0.411,-0.8 0.317,-0.8L0.066,-0.8C0.056,-0.8 0.05,-0.794 0.05,-0.784L0.05,-0.016C0.05,-0.006 0.056,-0 0.066,-0L0.17,-0C0.18,-0 0.186,-0.006 0.186,-0.016L0.186,-0.268L0.255,-0.268L0.322,-0.014C0.324,-0.005 0.329,-0 0.339,-0L0.443,-0C0.454,-0 0.46,-0.006 0.457,-0.018L0.388,-0.28C0.436,-0.301 0.461,-0.345 0.461,-0.412L0.461,-0.656ZM0.186,-0.4L0.186,-0.668L0.285,-0.668C0.311,-0.668 0.325,-0.654 0.325,-0.628L0.325,-0.44C0.325,-0.414 0.311,-0.4 0.285,-0.4L0.186,-0.4Z" style="fill:white;fill-rule:nonzero;"/>
            </g>
            <g transform="matrix(30,0,0,30,117.815,200.348)">
                <path d="M0.194,-0.8C0.101,-0.8 0.05,-0.75 0.05,-0.656L0.05,-0.42C0.05,-0.401 0.059,-0.389 0.077,-0.383L0.314,-0.305L0.314,-0.172C0.314,-0.145 0.3,-0.132 0.274,-0.132L0.226,-0.132C0.201,-0.132 0.186,-0.145 0.186,-0.172L0.186,-0.249C0.186,-0.26 0.181,-0.265 0.17,-0.265L0.066,-0.265C0.056,-0.265 0.05,-0.26 0.05,-0.249L0.05,-0.144C0.05,-0.05 0.101,-0 0.194,-0L0.306,-0C0.4,-0 0.45,-0.05 0.45,-0.144L0.45,-0.375C0.45,-0.394 0.441,-0.405 0.424,-0.412L0.186,-0.49L0.186,-0.628C0.186,-0.654 0.201,-0.668 0.226,-0.668L0.274,-0.668C0.301,-0.668 0.314,-0.654 0.314,-0.628L0.314,-0.55C0.314,-0.54 0.32,-0.534 0.33,-0.534L0.434,-0.534C0.445,-0.534 0.45,-0.54 0.45,-0.55L0.45,-0.656C0.45,-0.75 0.4,-0.8 0.306,-0.8L0.194,-0.8Z" style="fill:white;fill-rule:nonzero;"/>
            </g>
            <g transform="matrix(30,0,0,30,133.415,200.348)">
                <path d="M0.449,-0.784C0.449,-0.794 0.445,-0.8 0.433,-0.8L0.065,-0.8C0.056,-0.8 0.05,-0.794 0.05,-0.784L0.05,-0.016C0.05,-0.006 0.056,-0 0.065,-0L0.433,-0C0.445,-0 0.449,-0.006 0.449,-0.016L0.449,-0.116C0.449,-0.127 0.445,-0.132 0.433,-0.132L0.183,-0.132L0.183,-0.334L0.374,-0.334C0.384,-0.334 0.39,-0.34 0.39,-0.351L0.39,-0.45C0.39,-0.461 0.384,-0.467 0.374,-0.467L0.183,-0.467L0.183,-0.667L0.433,-0.667C0.445,-0.667 0.449,-0.674 0.449,-0.684L0.449,-0.784Z" style="fill:white;fill-rule:nonzero;"/>
            </g>
            <g transform="matrix(30,0,0,30,148.685,200.348)">
                <path d="M0.451,-0.656C0.451,-0.75 0.4,-0.8 0.307,-0.8L0.195,-0.8C0.101,-0.8 0.05,-0.75 0.05,-0.656L0.05,-0.144C0.05,-0.05 0.101,-0 0.195,-0L0.307,-0C0.4,-0 0.451,-0.05 0.451,-0.144L0.451,-0.252C0.451,-0.262 0.445,-0.268 0.435,-0.268L0.335,-0.268C0.324,-0.268 0.319,-0.262 0.319,-0.252L0.319,-0.172C0.319,-0.145 0.305,-0.132 0.279,-0.132L0.227,-0.132C0.201,-0.132 0.187,-0.145 0.187,-0.172L0.187,-0.628C0.187,-0.654 0.2,-0.668 0.227,-0.668L0.279,-0.668C0.305,-0.668 0.319,-0.654 0.319,-0.628L0.319,-0.548C0.319,-0.538 0.324,-0.532 0.335,-0.532L0.435,-0.532C0.445,-0.532 0.451,-0.538 0.451,-0.548L0.451,-0.656Z" style="fill:white;fill-rule:nonzero;"/>
            </g>
            <g transform="matrix(30,0,0,30,164.315,200.348)">
                <path d="M0.461,-0.656C0.461,-0.75 0.411,-0.8 0.317,-0.8L0.066,-0.8C0.056,-0.8 0.05,-0.794 0.05,-0.784L0.05,-0.016C0.05,-0.006 0.056,-0 0.066,-0L0.17,-0C0.18,-0 0.186,-0.006 0.186,-0.016L0.186,-0.268L0.255,-0.268L0.322,-0.014C0.324,-0.005 0.329,-0 0.339,-0L0.443,-0C0.454,-0 0.46,-0.006 0.457,-0.018L0.388,-0.28C0.436,-0.301 0.461,-0.345 0.461,-0.412L0.461,-0.656ZM0.186,-0.4L0.186,-0.668L0.285,-0.668C0.311,-0.668 0.325,-0.654 0.325,-0.628L0.325,-0.44C0.325,-0.414 0.311,-0.4 0.285,-0.4L0.186,-0.4Z" style="fill:white;fill-rule:nonzero;"/>
            </g>
            <g transform="matrix(30,0,0,30,180.245,200.348)">
                <path d="M0.449,-0.784C0.449,-0.794 0.445,-0.8 0.433,-0.8L0.065,-0.8C0.056,-0.8 0.05,-0.794 0.05,-0.784L0.05,-0.016C0.05,-0.006 0.056,-0 0.065,-0L0.433,-0C0.445,-0 0.449,-0.006 0.449,-0.016L0.449,-0.116C0.449,-0.127 0.445,-0.132 0.433,-0.132L0.183,-0.132L0.183,-0.334L0.374,-0.334C0.384,-0.334 0.39,-0.34 0.39,-0.351L0.39,-0.45C0.39,-0.461 0.384,-0.467 0.374,-0.467L0.183,-0.467L0.183,-0.667L0.433,-0.667C0.445,-0.667 0.449,-0.674 0.449,-0.684L0.449,-0.784Z" style="fill:white;fill-rule:nonzero;"/>
            </g>
            <g transform="matrix(30,0,0,30,195.815,200.348)">
                <path d="M0.046,-0.8C0.036,-0.8 0.03,-0.794 0.03,-0.784L0.03,-0.684C0.03,-0.674 0.036,-0.668 0.046,-0.668L0.162,-0.668L0.162,-0.016C0.162,-0.005 0.168,-0 0.178,-0L0.282,-0C0.293,-0 0.298,-0.005 0.298,-0.016L0.298,-0.668L0.414,-0.668C0.425,-0.668 0.43,-0.674 0.43,-0.684L0.43,-0.784C0.43,-0.794 0.425,-0.8 0.414,-0.8L0.046,-0.8Z" style="fill:white;fill-rule:nonzero;"/>
            </g>
            <g transform="matrix(16,0,0,16,207.935,200.348)">
                <path d="M0.451,-0.556C0.451,-0.65 0.4,-0.7 0.307,-0.7L0.195,-0.7C0.101,-0.7 0.05,-0.65 0.05,-0.556L0.05,-0.144C0.05,-0.05 0.101,-0 0.195,-0L0.307,-0C0.4,-0 0.451,-0.05 0.451,-0.144L0.451,-0.252C0.451,-0.262 0.445,-0.268 0.435,-0.268L0.341,-0.268C0.33,-0.268 0.325,-0.262 0.325,-0.252L0.325,-0.167C0.325,-0.14 0.311,-0.127 0.285,-0.127L0.221,-0.127C0.195,-0.127 0.181,-0.14 0.181,-0.167L0.181,-0.53C0.181,-0.556 0.194,-0.57 0.221,-0.57L0.285,-0.57C0.311,-0.57 0.325,-0.556 0.325,-0.53L0.325,-0.448C0.325,-0.438 0.33,-0.432 0.341,-0.432L0.435,-0.432C0.445,-0.432 0.451,-0.438 0.451,-0.448L0.451,-0.556Z" style="fill:white;fill-rule:nonzero;"/>
            </g>
            <g transform="matrix(16,0,0,16,215.951,200.348)">
                <path d="M0.05,-0.144C0.05,-0.05 0.1,-0 0.194,-0L0.306,-0C0.4,-0 0.45,-0.05 0.45,-0.144L0.45,-0.556C0.45,-0.65 0.4,-0.7 0.306,-0.7L0.194,-0.7C0.1,-0.7 0.05,-0.65 0.05,-0.556L0.05,-0.144ZM0.22,-0.129C0.194,-0.129 0.18,-0.142 0.18,-0.169L0.18,-0.531C0.18,-0.557 0.194,-0.571 0.22,-0.571L0.284,-0.571C0.31,-0.571 0.324,-0.557 0.324,-0.531L0.324,-0.169C0.324,-0.142 0.31,-0.129 0.284,-0.129L0.22,-0.129Z" style="fill:white;fill-rule:nonzero;"/>
            </g>
            <g transform="matrix(16,0,0,16,223.951,200.348)">
                <path d="M0.05,-0.02C0.05,-0.007 0.057,-0 0.07,-0L0.161,-0C0.174,-0 0.181,-0.007 0.181,-0.02L0.181,-0.112C0.181,-0.125 0.174,-0.132 0.161,-0.132L0.07,-0.132C0.057,-0.132 0.05,-0.125 0.05,-0.112L0.05,-0.02Z" style="fill:white;fill-rule:nonzero;"/>
            </g>
        </g>
    </g>
</svg>
